{"glyphs":{"0":{"ha":733,"x_min":65,"x_max":669,"o":"m 375 700 q 592 609 515 700 q 669 350 669 518 q 589 84 669 178 q 361 -10 508 -10 q 142 81 219 -10 q 65 336 65 171 q 146 606 65 511 q 375 700 226 700 m 365 599 q 153 344 153 599 q 367 88 153 88 q 527 151 472 88 q 582 338 582 214 q 527 533 582 467 q 365 599 472 599 z "},"1":{"ha":478,"x_min":15,"x_max":313,"o":"m 306 288 l 311 0 l 200 0 l 207 274 l 206 571 l 26 521 l 15 526 l 15 614 l 296 697 l 313 686 l 306 288 z "},"2":{"ha":632,"x_min":65,"x_max":592,"o":"m 319 697 q 456 655 403 697 q 510 543 510 613 q 471 419 510 488 q 347 251 432 350 l 207 92 l 210 86 l 467 86 l 583 94 l 592 88 l 576 -6 l 435 0 l 124 0 l 72 -3 l 65 3 l 65 72 l 258 282 q 368 420 333 365 q 403 517 403 475 q 375 578 403 554 q 297 603 347 603 q 198 578 247 603 q 108 508 149 553 l 94 508 l 76 593 q 319 697 192 697 z "},"3":{"ha":572,"x_min":43,"x_max":507,"o":"m 265 699 q 418 649 360 699 q 476 522 476 600 q 441 407 476 463 q 338 317 406 351 l 338 311 q 507 126 507 271 q 467 -10 507 50 q 356 -102 428 -69 q 190 -135 283 -135 q 54 -122 126 -135 l 47 -28 l 56 -21 q 197 -49 121 -49 q 346 -5 289 -49 q 403 113 403 39 q 356 215 403 178 q 224 256 310 253 l 142 256 l 135 264 l 138 340 l 199 342 q 275 363 236 342 q 340 419 314 383 q 365 499 365 456 q 332 578 365 549 q 244 607 299 607 q 72 525 165 607 l 60 525 l 43 613 q 265 699 147 699 z "},"4":{"ha":668,"x_min":38,"x_max":624,"o":"m 486 107 l 490 -119 l 483 -128 l 400 -135 l 393 -126 l 396 107 l 136 107 l 44 104 l 38 115 l 38 186 l 386 692 l 488 692 l 485 193 l 615 193 l 624 182 l 617 104 l 489 107 l 486 107 m 397 558 l 388 558 l 135 193 l 397 193 l 397 558 z "},"5":{"ha":581,"x_min":43,"x_max":521,"o":"m 510 601 l 501 593 l 400 601 l 194 601 l 189 385 l 276 367 q 460 286 406 339 q 514 147 514 233 q 472 0 514 64 q 353 -100 429 -64 q 182 -136 278 -136 q 51 -122 124 -136 l 43 -25 l 53 -15 q 204 -49 131 -49 q 354 1 299 -49 q 410 129 410 50 q 367 229 410 192 q 229 285 325 267 l 111 307 l 101 317 l 108 679 l 126 694 l 200 692 l 388 692 l 515 697 l 521 689 l 510 601 z "},"6":{"ha":653,"x_min":64,"x_max":593,"o":"m 371 485 q 534 421 475 485 q 593 250 593 357 q 520 61 593 133 q 322 -11 447 -11 q 129 68 194 -11 q 64 293 64 147 q 172 608 64 469 q 475 825 279 747 l 482 825 l 568 775 l 568 764 q 308 625 401 706 q 182 433 214 544 l 190 424 q 371 485 274 485 m 331 65 q 451 109 408 65 q 494 235 494 153 q 454 359 494 315 q 340 403 414 403 q 165 331 249 403 l 164 293 q 331 65 164 65 z "},"7":{"ha":579,"x_min":31,"x_max":540,"o":"m 481 692 l 539 694 l 540 613 l 271 24 l 208 -142 l 119 -117 l 113 -99 l 436 600 l 143 600 l 38 589 l 31 601 l 38 696 l 163 692 l 481 692 z "},"8":{"ha":658,"x_min":67,"x_max":582,"o":"m 340 822 q 499 770 442 822 q 557 628 557 718 q 521 511 557 557 q 422 429 485 465 l 422 422 q 540 342 497 386 q 582 219 582 299 q 508 53 582 115 q 313 -10 435 -10 q 133 48 199 -10 q 67 199 67 106 q 111 326 67 276 q 229 411 156 375 l 229 418 q 99 610 99 486 q 165 765 99 708 q 340 822 232 822 m 335 742 q 231 707 269 742 q 192 613 192 672 q 228 520 192 553 q 335 460 265 488 q 433 522 397 486 q 468 618 468 557 q 433 709 468 676 q 335 742 397 742 m 315 376 q 203 314 244 351 q 161 210 161 276 q 205 108 161 147 q 322 69 249 69 q 444 109 399 69 q 489 213 489 149 q 465 287 489 257 q 409 334 442 317 q 315 376 376 351 z "},"9":{"ha":653,"x_min":60,"x_max":589,"o":"m 282 208 q 119 272 178 208 q 60 443 60 336 q 133 632 60 560 q 331 704 206 704 q 524 625 458 704 q 589 400 589 546 q 481 85 589 224 q 178 -132 374 -54 l 171 -132 l 85 -82 l 85 -71 q 345 68 251 -12 q 471 260 439 149 l 463 269 q 282 208 379 208 m 322 628 q 201 584 244 628 q 158 458 158 540 q 199 334 158 378 q 313 290 239 290 q 488 363 404 290 l 489 400 q 322 628 489 628 z "}," ":{"ha":229,"x_min":0,"x_max":0,"o":""},"!":{"ha":356,"x_min":100,"x_max":244,"o":"m 214 303 l 149 296 l 136 308 l 136 899 l 147 913 l 232 917 l 244 903 l 214 303 m 167 122 q 210 106 194 122 q 226 60 226 89 q 209 11 226 29 q 163 -7 192 -7 q 100 57 100 -7 q 118 104 100 86 q 167 122 136 122 z "},"\"":{"ha":389,"x_min":72,"x_max":331,"o":"m 139 624 l 82 615 l 72 625 l 79 881 l 164 888 l 172 878 l 139 624 m 297 624 l 240 615 l 232 625 l 238 881 l 322 888 l 331 878 l 297 624 z "},"#":{"ha":717,"x_min":28,"x_max":689,"o":"m 485 346 l 632 346 l 639 338 l 633 278 l 469 278 l 417 44 l 353 44 l 346 54 l 396 278 l 243 278 l 192 44 l 126 44 l 119 54 l 169 278 l 36 278 l 28 285 l 33 346 l 185 346 l 221 507 l 85 507 l 76 515 l 82 575 l 236 575 l 286 797 l 350 797 l 357 786 l 310 575 l 461 575 l 511 797 l 575 797 l 583 786 l 536 575 l 681 575 l 689 567 l 682 507 l 521 507 l 485 346 m 294 507 l 258 346 l 411 346 l 447 507 l 294 507 z "},"$":{"ha":603,"x_min":67,"x_max":521,"o":"m 521 193 q 464 62 521 118 q 310 -4 407 6 l 296 -179 l 242 -179 l 231 -169 l 243 -6 q 67 39 146 -1 l 78 136 l 90 140 q 249 67 153 79 l 269 314 q 174 361 211 339 q 110 419 136 383 q 85 504 85 454 q 143 634 85 581 q 300 694 201 688 l 315 892 l 369 892 l 382 881 l 367 694 q 500 663 436 688 l 483 574 l 468 569 q 361 619 417 608 l 342 381 q 474 303 426 344 q 521 193 521 263 m 175 515 q 201 456 175 481 q 278 408 228 431 l 294 622 q 208 585 240 617 q 175 515 175 553 m 315 67 q 399 108 367 76 q 431 178 431 139 q 406 238 431 214 q 333 285 381 263 l 315 67 z "},"%":{"ha":1144,"x_min":56,"x_max":1088,"o":"m 903 894 l 247 -126 l 199 -99 l 192 -82 l 846 942 l 894 914 l 903 894 m 267 896 q 412 835 361 896 q 463 658 463 774 q 409 470 463 535 q 253 406 356 406 q 107 467 158 406 q 56 644 56 529 q 110 831 56 767 q 267 896 164 896 m 258 815 q 133 651 133 815 q 260 482 133 482 q 386 646 386 482 q 258 815 386 815 m 892 485 q 1037 424 986 485 q 1088 247 1088 363 q 1034 59 1088 124 q 878 -6 981 -6 q 732 56 783 -6 q 681 233 681 118 q 735 420 681 356 q 892 485 789 485 m 883 404 q 758 240 758 404 q 885 71 758 71 q 1011 235 1011 71 q 883 404 1011 404 z "},"&":{"ha":1067,"x_min":60,"x_max":1143,"o":"m 1143 431 q 1081 352 1115 378 q 994 322 1047 326 q 840 344 957 322 q 779 157 833 239 q 633 30 725 75 q 426 -15 542 -15 q 158 84 256 -15 q 60 353 60 183 q 97 535 60 456 q 197 658 133 614 q 338 701 260 701 q 453 666 411 701 q 496 575 496 631 q 490 535 496 553 q 721 747 621 631 q 876 988 821 864 l 886 988 q 931 911 918 956 q 759 667 878 793 q 483 436 640 542 q 165 271 326 331 q 256 122 188 175 q 435 68 325 68 q 600 104 526 68 q 715 207 674 140 q 758 361 757 274 q 678 371 703 371 q 564 285 606 371 l 550 283 l 529 344 q 590 422 556 396 q 678 453 625 447 q 833 429 704 453 q 993 404 953 404 q 1107 489 1074 404 l 1121 490 l 1143 431 m 335 625 q 205 554 254 625 q 156 367 156 483 l 156 350 q 363 450 254 386 q 422 551 422 492 q 399 607 422 589 q 335 625 375 625 z "},"'":{"ha":231,"x_min":72,"x_max":172,"o":"m 139 624 l 82 615 l 72 625 l 79 881 l 164 888 l 172 878 l 139 624 z "},"(":{"ha":400,"x_min":114,"x_max":393,"o":"m 393 872 q 249 673 292 792 q 204 357 206 554 q 249 47 206 164 q 393 -149 292 -69 l 393 -160 l 353 -196 l 343 -196 q 168 20 221 -107 q 114 356 115 147 q 168 701 115 571 q 343 919 221 831 l 353 919 l 393 883 l 393 872 z "},")":{"ha":400,"x_min":7,"x_max":286,"o":"m 7 -150 q 151 49 108 -69 q 196 365 194 168 q 151 675 194 558 q 7 871 108 792 l 7 882 l 47 918 l 57 918 q 232 702 179 829 q 286 367 285 575 q 232 22 285 151 q 57 -197 179 -108 l 47 -197 l 7 -161 l 7 -150 z "},"*":{"ha":519,"x_min":50,"x_max":481,"o":"m 282 843 l 235 838 l 228 847 l 225 1006 q 308 1018 264 1018 l 313 1010 l 282 843 m 200 781 l 190 775 l 50 822 q 61 907 50 876 l 71 910 l 207 826 l 200 781 m 443 879 q 481 804 471 835 l 474 797 l 319 775 l 299 817 l 304 829 l 443 879 m 399 621 q 342 560 381 589 l 331 561 l 267 718 l 300 749 l 314 746 l 399 621 m 239 713 l 160 583 q 83 622 133 592 l 83 631 l 199 747 l 240 725 l 239 713 z "},"+":{"ha":667,"x_min":43,"x_max":624,"o":"m 372 407 l 615 407 l 624 399 l 617 329 l 372 329 l 372 83 l 303 78 l 294 86 l 294 329 l 51 329 l 43 338 l 50 407 l 294 407 l 294 653 l 364 660 l 372 650 l 372 407 z "},",":{"ha":318,"x_min":67,"x_max":235,"o":"m 176 121 q 235 28 235 85 q 104 -158 235 -62 l 67 -124 l 67 -114 q 143 8 143 -54 q 100 74 143 46 l 100 85 q 176 121 139 111 z "},"-":{"ha":426,"x_min":40,"x_max":386,"o":"m 386 338 l 51 289 l 40 300 l 40 369 l 376 417 l 386 407 l 386 338 z "},".":{"ha":318,"x_min":96,"x_max":222,"o":"m 161 122 q 206 106 189 122 q 222 60 222 89 q 205 11 222 29 q 157 -7 188 -7 q 96 57 96 -7 q 113 104 96 86 q 161 122 131 122 z "},"/":{"ha":399,"x_min":31,"x_max":400,"o":"m 115 -157 l 39 -157 l 31 -146 l 315 942 l 392 942 l 400 929 l 115 -157 z "},":":{"ha":318,"x_min":90,"x_max":217,"o":"m 156 122 q 200 106 183 122 q 217 60 217 89 q 199 11 217 29 q 151 -7 182 -7 q 90 57 90 -7 q 108 104 90 86 q 156 122 125 122 m 156 496 q 200 479 183 496 q 217 433 217 463 q 199 385 217 403 q 151 367 182 367 q 90 431 90 367 q 108 478 90 460 q 156 496 125 496 z "},";":{"ha":318,"x_min":61,"x_max":229,"o":"m 171 121 q 229 28 229 85 q 99 -158 229 -62 l 61 -124 l 61 -114 q 138 8 138 -54 q 94 74 138 46 l 94 85 q 171 121 133 111 m 156 496 q 200 479 183 496 q 217 433 217 463 q 199 385 217 403 q 151 367 182 367 q 90 431 90 367 q 108 478 90 460 q 156 496 125 496 z "},"<":{"ha":667,"x_min":50,"x_max":614,"o":"m 50 413 l 50 322 l 582 111 l 594 118 l 611 182 l 136 365 l 136 374 l 608 569 l 614 579 l 589 643 l 60 425 l 50 413 z "},"=":{"ha":667,"x_min":43,"x_max":624,"o":"m 617 443 l 51 443 l 43 451 l 50 521 l 615 521 l 624 513 l 617 443 m 617 214 l 51 214 l 43 222 l 50 292 l 615 292 l 624 283 l 617 214 z "},">":{"ha":667,"x_min":53,"x_max":617,"o":"m 617 413 l 617 322 l 85 111 l 72 118 l 56 182 l 531 365 l 531 374 l 58 569 l 53 579 l 78 643 l 607 425 l 617 413 z "},"?":{"ha":460,"x_min":83,"x_max":465,"o":"m 118 918 q 375 851 285 907 q 465 700 465 794 q 349 514 465 586 l 233 439 l 231 433 l 239 300 l 161 290 l 151 300 l 140 460 l 147 474 l 281 553 q 365 683 365 603 q 92 839 365 822 l 83 850 l 104 911 l 118 918 m 204 122 q 249 106 232 122 q 265 60 265 89 q 248 11 265 29 q 200 -7 231 -7 q 139 57 139 -7 q 156 104 139 86 q 204 122 174 122 z "},"@":{"ha":1146,"x_min":50,"x_max":1103,"o":"m 1103 415 q 981 111 1103 219 q 632 -6 858 3 l 672 282 l 658 282 q 435 -11 551 99 l 414 -11 q 308 210 308 51 q 346 404 308 310 q 458 565 383 499 q 639 646 533 631 l 646 646 l 735 614 l 799 646 l 813 640 l 743 153 l 740 76 q 951 181 876 93 q 1026 411 1026 268 q 978 604 1026 521 q 842 733 931 688 q 633 779 753 779 q 369 715 483 779 q 190 537 254 651 q 126 275 126 422 q 192 16 126 125 q 378 -151 258 -93 q 660 -208 499 -208 l 663 -219 l 629 -275 q 325 -208 456 -274 q 122 -23 194 -143 q 50 260 50 97 q 123 567 50 432 q 328 777 196 701 q 635 853 461 853 q 881 799 775 853 q 1045 645 988 744 q 1103 415 1103 546 m 444 104 q 503 150 461 104 q 598 283 544 196 q 701 488 651 369 l 703 496 l 706 531 l 618 561 q 503 517 551 561 q 428 400 454 474 q 401 236 401 326 q 415 135 401 165 q 444 104 428 104 z "},"A":{"ha":803,"x_min":19,"x_max":772,"o":"m 658 0 l 638 89 l 588 242 l 388 246 l 207 242 l 153 94 l 131 0 l 19 0 l 346 890 l 475 890 l 772 0 l 658 0 m 413 775 l 403 775 l 242 336 l 397 333 l 557 336 l 413 775 z "},"B":{"ha":746,"x_min":129,"x_max":692,"o":"m 503 464 q 692 249 692 426 q 326 -6 692 -6 q 131 0 204 -6 l 129 0 l 136 268 l 129 890 l 376 892 q 569 836 501 892 q 636 675 636 781 q 601 546 636 600 q 503 464 567 492 m 522 663 q 483 767 522 735 q 354 800 443 800 l 242 800 l 239 501 l 392 497 q 522 663 522 528 m 343 88 q 518 131 457 88 q 579 254 579 174 q 408 410 579 390 l 238 408 l 236 278 l 240 92 q 343 88 294 88 z "},"C":{"ha":722,"x_min":53,"x_max":690,"o":"m 447 897 q 690 831 588 897 l 668 729 l 656 726 q 442 804 563 804 q 239 713 310 804 q 168 447 168 622 q 239 178 168 271 q 439 85 310 85 q 671 169 567 85 l 685 163 l 675 57 q 429 -10 554 -10 q 151 106 250 -10 q 53 438 53 222 q 156 778 53 658 q 447 897 258 897 z "},"D":{"ha":897,"x_min":129,"x_max":844,"o":"m 451 896 q 743 788 642 896 q 844 476 844 679 q 735 117 844 242 q 419 -8 625 -8 q 131 0 283 -8 l 129 0 l 136 268 l 129 890 l 131 890 l 451 896 m 438 85 q 655 177 579 85 q 731 453 731 269 q 443 803 731 803 q 242 797 356 803 l 236 278 l 240 93 q 438 85 338 85 z "},"E":{"ha":669,"x_min":129,"x_max":638,"o":"m 629 0 l 129 0 l 136 268 l 129 890 l 631 890 l 636 879 l 628 793 l 418 797 l 242 794 l 239 503 l 406 500 l 553 504 l 561 494 l 551 408 l 396 411 l 238 410 l 236 278 l 240 93 l 417 92 l 631 97 l 638 86 l 629 0 z "},"F":{"ha":603,"x_min":129,"x_max":611,"o":"m 239 485 l 389 482 l 533 486 l 542 475 l 532 390 l 378 394 l 238 393 l 236 278 l 242 0 l 129 0 l 136 268 l 129 890 l 603 890 l 611 879 l 601 790 l 397 797 l 242 794 l 239 485 z "},"G":{"ha":833,"x_min":53,"x_max":747,"o":"m 486 897 q 747 835 626 897 l 725 729 l 711 726 q 588 786 644 768 q 469 804 532 804 q 168 432 168 804 q 238 169 168 253 q 456 85 308 85 q 636 118 525 85 l 639 222 l 638 349 l 742 357 l 739 238 l 744 43 q 450 -10 575 -10 q 152 103 251 -10 q 53 428 53 215 q 165 777 53 657 q 486 897 278 897 z "},"H":{"ha":949,"x_min":129,"x_max":819,"o":"m 818 0 l 706 0 l 714 268 l 713 401 l 463 406 l 238 401 l 236 278 l 242 0 l 129 0 l 136 268 l 129 890 l 243 890 l 239 499 l 472 494 l 711 499 l 706 890 l 819 890 l 814 278 l 818 0 z "},"I":{"ha":372,"x_min":129,"x_max":243,"o":"m 242 0 l 129 0 l 136 268 l 129 890 l 243 890 l 236 278 l 242 0 z "},"J":{"ha":431,"x_min":8,"x_max":301,"o":"m 299 164 q 246 -10 299 58 q 63 -142 193 -79 l 19 -79 l 19 -65 q 156 36 115 -14 q 196 163 196 86 l 196 283 l 190 800 l 19 799 l 8 808 l 15 890 l 301 890 l 296 294 l 299 164 z "},"K":{"ha":758,"x_min":128,"x_max":758,"o":"m 240 0 l 128 0 l 135 268 l 128 890 l 242 890 l 235 278 l 240 0 m 374 472 q 758 24 564 226 l 757 10 q 651 -12 714 -3 l 639 -6 q 256 465 414 250 l 256 474 l 553 813 l 607 890 l 733 890 l 374 472 z "},"L":{"ha":578,"x_min":125,"x_max":574,"o":"m 564 0 l 125 0 l 132 268 l 125 890 l 239 890 l 232 278 l 236 93 l 565 93 l 574 83 l 564 0 z "},"M":{"ha":1096,"x_min":83,"x_max":1011,"o":"m 911 0 l 890 271 l 843 714 l 833 714 l 586 103 l 494 103 l 260 714 l 249 714 l 201 279 l 178 0 l 83 0 l 176 890 l 303 890 l 349 754 l 542 247 l 550 247 l 753 763 l 799 890 l 924 890 l 1011 0 l 911 0 z "},"N":{"ha":949,"x_min":129,"x_max":821,"o":"m 815 0 l 699 0 l 239 713 l 231 713 l 229 293 l 233 0 l 129 0 l 136 264 l 132 890 l 249 890 l 707 178 l 717 178 l 715 885 l 821 893 l 813 261 l 815 0 z "},"O":{"ha":882,"x_min":53,"x_max":831,"o":"m 453 899 q 733 786 635 899 q 831 463 831 674 q 726 113 831 236 q 431 -11 622 -11 q 151 106 250 -11 q 53 438 53 222 q 156 779 53 660 q 453 899 260 899 m 443 807 q 167 451 167 807 q 438 82 167 82 q 715 443 715 82 q 648 717 715 628 q 443 807 581 807 z "},"P":{"ha":722,"x_min":129,"x_max":674,"o":"m 401 892 q 603 824 532 892 q 674 631 674 757 q 585 397 674 482 q 342 313 497 313 l 236 313 l 236 278 l 242 0 l 129 0 l 136 268 l 129 890 l 401 892 m 383 403 q 560 621 560 431 q 376 800 560 793 l 242 796 l 238 406 l 383 403 z "},"Q":{"ha":888,"x_min":53,"x_max":1018,"o":"m 1018 -192 q 967 -262 993 -239 l 957 -267 q 467 -10 678 -194 l 433 -11 q 151 106 250 -11 q 53 438 53 222 q 156 779 53 660 q 453 899 260 899 q 733 785 635 899 q 831 458 831 672 q 763 164 831 279 q 568 8 694 49 q 1014 -178 768 -132 l 1018 -192 m 167 447 q 440 82 167 82 q 715 449 715 82 q 442 807 715 807 q 235 718 303 807 q 167 447 167 629 z "},"R":{"ha":771,"x_min":129,"x_max":722,"o":"m 492 360 q 722 26 583 208 l 721 13 q 618 -12 671 -7 l 603 -3 q 399 331 489 168 l 236 331 l 236 278 l 242 0 l 129 0 l 136 268 l 129 890 l 401 892 q 603 826 532 892 q 675 638 675 760 q 627 473 675 546 q 492 360 579 400 m 404 421 q 560 628 560 465 q 376 800 560 793 l 242 796 l 238 425 l 404 421 z "},"S":{"ha":656,"x_min":58,"x_max":596,"o":"m 371 897 q 569 856 467 897 l 551 749 l 532 743 q 357 807 449 807 q 267 786 306 807 q 209 732 229 765 q 189 663 189 699 q 212 597 189 625 q 269 547 235 568 q 364 497 304 526 q 485 433 439 463 q 563 357 531 403 q 596 246 596 311 q 558 118 596 176 q 453 25 521 60 q 297 -10 385 -10 q 58 53 169 -10 l 72 167 l 88 174 q 195 103 136 126 q 308 81 254 81 q 402 101 361 81 q 465 157 443 122 q 486 231 486 192 q 442 324 486 289 q 307 401 397 360 q 189 466 233 438 q 113 540 144 494 q 81 650 81 585 q 117 775 81 718 q 220 865 154 832 q 371 897 286 897 z "},"T":{"ha":681,"x_min":31,"x_max":651,"o":"m 643 793 l 488 801 l 397 801 l 393 278 l 397 0 l 285 0 l 293 268 l 286 801 l 196 801 l 38 793 l 31 804 l 39 890 l 643 890 l 651 879 l 643 793 z "},"U":{"ha":869,"x_min":106,"x_max":769,"o":"m 767 338 q 681 82 769 174 q 428 -10 592 -10 q 187 78 271 -10 q 106 325 103 165 l 107 446 l 106 890 l 215 890 l 211 339 q 436 88 208 88 q 664 325 667 88 l 658 890 l 769 890 l 768 438 l 767 338 z "},"V":{"ha":783,"x_min":21,"x_max":774,"o":"m 318 0 l 21 890 l 135 890 l 156 800 l 382 113 l 390 113 l 640 794 l 663 890 l 774 890 l 447 0 l 318 0 z "},"W":{"ha":1240,"x_min":29,"x_max":1229,"o":"m 794 0 l 621 517 l 611 517 l 428 0 l 313 0 l 29 890 l 140 890 l 156 804 l 372 124 l 382 124 l 574 665 l 499 890 l 613 890 l 633 794 l 853 124 l 861 124 l 1103 799 l 1124 890 l 1229 890 l 910 0 l 794 0 z "},"X":{"ha":818,"x_min":32,"x_max":778,"o":"m 778 0 l 643 0 l 604 72 l 399 376 l 186 65 l 150 0 l 32 0 l 333 450 l 43 890 l 178 890 l 214 819 l 406 535 l 599 821 l 635 890 l 756 890 l 474 464 l 778 0 z "},"Y":{"ha":733,"x_min":21,"x_max":715,"o":"m 410 0 l 297 0 l 306 260 l 304 319 l 21 890 l 140 890 l 158 840 l 353 440 l 364 440 l 576 838 l 597 890 l 715 890 l 407 319 l 406 260 l 410 0 z "},"Z":{"ha":733,"x_min":43,"x_max":683,"o":"m 176 90 l 546 90 l 678 100 l 683 92 l 674 -3 l 513 0 l 122 0 l 43 -4 l 43 78 l 543 799 l 200 799 l 67 789 l 60 797 l 68 892 l 607 890 l 675 892 l 675 808 l 176 90 z "},"[":{"ha":400,"x_min":136,"x_max":392,"o":"m 392 838 l 226 822 l 226 -104 l 392 -119 l 392 -172 l 385 -179 l 136 -165 l 142 360 l 136 885 l 385 899 l 392 890 l 392 838 z "},"\\":{"ha":399,"x_min":7,"x_max":376,"o":"m 292 -157 l 368 -157 l 376 -146 l 92 942 l 15 942 l 7 929 l 292 -157 z "},"]":{"ha":400,"x_min":8,"x_max":264,"o":"m 8 -119 l 174 -104 l 174 822 l 8 838 l 8 890 l 15 897 l 264 883 l 258 358 l 264 -167 l 15 -181 l 8 -172 l 8 -119 z "},"^":{"ha":589,"x_min":28,"x_max":561,"o":"m 553 175 l 489 160 l 306 600 l 297 600 l 103 163 l 92 156 l 28 181 l 247 676 l 258 683 l 350 683 l 561 186 l 553 175 z "},"_":{"ha":625,"x_min":-21,"x_max":646,"o":"m 639 -196 l -12 -196 l -21 -186 l -14 -122 l 638 -122 l 646 -131 l 639 -196 z "},"`":{"ha":540,"x_min":129,"x_max":411,"o":"m 129 908 l 132 897 q 368 721 269 790 l 381 722 l 411 767 q 183 968 275 878 l 171 967 l 129 908 z "},"a":{"ha":711,"x_min":35,"x_max":664,"o":"m 560 0 l 543 75 l 507 178 l 342 179 l 194 178 l 157 81 l 138 0 l 35 0 l 301 692 l 421 692 l 664 0 l 560 0 m 363 590 l 354 590 l 228 263 l 350 261 l 478 263 l 363 590 z "},"b":{"ha":668,"x_min":125,"x_max":604,"o":"m 450 360 q 604 196 604 329 q 299 -4 604 -4 q 125 0 208 -4 l 129 208 l 125 692 l 342 693 q 503 649 446 693 q 561 525 561 606 q 450 360 561 407 m 451 513 q 418 588 451 564 q 311 611 385 611 l 226 611 l 225 397 l 349 393 q 451 513 451 414 m 311 75 q 497 199 497 75 q 363 314 497 294 l 225 313 l 224 217 l 226 79 q 311 75 269 75 z "},"c":{"ha":640,"x_min":63,"x_max":594,"o":"m 394 699 q 594 650 510 699 l 575 554 l 563 550 q 383 613 489 613 q 172 350 172 613 q 226 149 172 218 q 383 79 281 79 q 575 143 489 79 l 588 139 l 578 43 q 379 -8 483 -8 q 144 83 226 -8 q 63 342 63 174 q 149 606 63 513 q 394 699 236 699 z "},"d":{"ha":786,"x_min":125,"x_max":722,"o":"m 396 697 q 638 613 554 697 q 722 369 722 528 q 631 90 722 188 q 368 -7 539 -7 q 125 0 236 -7 l 129 208 l 125 692 l 396 697 m 385 78 q 556 145 496 78 q 617 349 617 213 q 388 610 617 610 q 228 604 319 610 l 225 217 l 226 86 q 385 78 318 78 z "},"e":{"ha":604,"x_min":125,"x_max":556,"o":"m 556 81 l 546 0 l 125 0 l 129 208 l 125 692 l 549 692 l 556 683 l 547 603 l 372 608 l 228 607 l 226 397 l 364 396 l 485 400 l 492 390 l 483 308 l 356 313 l 226 311 l 225 217 l 226 85 l 363 83 l 547 89 l 556 81 z "},"f":{"ha":538,"x_min":118,"x_max":526,"o":"m 219 379 l 339 378 l 461 382 l 468 372 l 461 293 l 329 294 l 218 293 l 218 217 l 221 0 l 118 0 l 121 208 l 118 692 l 521 692 l 526 683 l 518 603 l 347 608 l 221 607 l 219 379 z "},"g":{"ha":731,"x_min":63,"x_max":643,"o":"m 425 699 q 643 651 533 699 l 608 551 l 596 551 q 501 598 544 585 q 408 611 458 611 q 231 544 290 611 q 172 336 172 478 q 226 140 172 200 q 399 79 281 79 q 543 108 464 79 l 543 178 l 542 276 l 638 283 l 638 33 q 394 -8 497 -8 q 147 80 231 -8 q 63 332 63 168 q 158 604 63 510 q 425 699 253 699 z "},"h":{"ha":828,"x_min":125,"x_max":704,"o":"m 703 0 l 600 0 l 604 208 l 603 303 l 226 301 l 225 217 l 228 0 l 125 0 l 129 208 l 125 692 l 229 692 l 226 394 l 414 393 l 603 394 l 600 692 l 704 692 l 700 217 l 703 0 z "},"i":{"ha":360,"x_min":125,"x_max":229,"o":"m 228 0 l 125 0 l 129 208 l 125 692 l 229 692 l 225 217 l 228 0 z "},"j":{"ha":401,"x_min":32,"x_max":274,"o":"m 269 229 l 269 129 q 231 -10 269 44 q 96 -111 193 -64 l 54 -57 l 54 -47 q 147 28 119 -11 q 174 128 174 68 l 174 217 l 171 613 l 39 611 l 32 619 l 39 692 l 274 692 l 269 229 z "},"k":{"ha":681,"x_min":125,"x_max":663,"o":"m 350 368 q 663 24 497 188 l 660 8 q 560 -12 617 -6 l 543 -6 q 236 361 365 194 l 236 369 l 475 631 l 521 692 l 644 693 l 350 368 m 228 0 l 125 0 l 129 208 l 125 692 l 229 692 l 225 217 l 228 0 z "},"l":{"ha":524,"x_min":122,"x_max":497,"o":"m 490 0 l 122 0 l 126 208 l 122 692 l 226 692 l 222 217 l 225 88 l 492 88 l 497 78 l 490 0 z "},"m":{"ha":949,"x_min":86,"x_max":861,"o":"m 768 0 l 753 211 l 715 531 l 707 531 l 508 78 l 426 78 l 239 531 l 231 531 l 194 219 l 175 0 l 86 0 l 163 692 l 283 692 l 318 588 l 469 215 l 478 215 l 636 593 l 672 692 l 790 692 l 861 0 l 768 0 z "},"n":{"ha":828,"x_min":125,"x_max":703,"o":"m 700 0 l 589 0 l 225 528 l 218 528 l 217 231 l 219 0 l 125 0 l 129 204 l 126 692 l 236 692 l 600 164 l 610 164 l 607 688 l 703 694 l 699 207 l 700 0 z "},"o":{"ha":774,"x_min":63,"x_max":711,"o":"m 397 700 q 630 611 549 700 q 711 360 711 522 q 624 87 711 183 q 376 -10 538 -10 q 144 81 226 -10 q 63 340 63 172 q 150 606 63 513 q 397 700 238 700 m 388 613 q 224 550 278 613 q 171 353 171 488 q 224 143 171 208 q 385 78 276 78 q 550 142 496 78 q 604 342 604 206 q 551 547 604 482 q 388 613 497 613 z "},"p":{"ha":647,"x_min":125,"x_max":589,"o":"m 361 693 q 530 640 471 693 q 589 488 589 588 q 515 305 589 371 q 310 239 440 239 l 225 239 l 225 217 l 228 0 l 125 0 l 129 208 l 125 692 l 361 693 m 343 319 q 481 479 481 343 q 333 611 481 604 l 228 610 l 226 322 l 343 319 z "},"q":{"ha":778,"x_min":63,"x_max":861,"o":"m 861 -143 q 814 -207 836 -187 l 806 -210 q 411 -8 590 -153 q 376 -10 400 -10 q 144 81 226 -10 q 63 340 63 172 q 150 606 63 513 q 397 700 238 700 q 630 611 549 700 q 711 360 711 522 q 658 133 711 222 q 506 10 606 43 q 857 -132 671 -96 l 861 -143 m 171 353 q 224 143 171 208 q 385 78 276 78 q 550 142 496 78 q 604 342 604 206 q 551 547 604 482 q 388 613 497 613 q 224 550 278 613 q 171 353 171 488 z "},"r":{"ha":689,"x_min":125,"x_max":631,"o":"m 443 279 q 631 25 528 150 l 629 11 q 533 -10 571 -7 l 515 1 q 356 253 410 161 l 225 251 l 225 217 l 228 0 l 125 0 l 129 208 l 125 692 l 361 693 q 530 642 471 693 q 589 493 589 590 q 551 367 589 422 q 443 279 513 311 m 357 333 q 481 485 481 368 q 444 576 481 546 q 335 610 408 607 l 228 608 l 226 338 l 357 333 z "},"s":{"ha":590,"x_min":68,"x_max":518,"o":"m 329 699 q 499 665 414 699 l 481 563 l 464 558 q 318 618 390 618 q 224 587 258 618 q 189 515 189 556 q 223 450 189 475 q 328 394 257 425 q 427 344 390 367 q 491 285 464 322 q 518 196 518 249 q 489 95 518 142 q 403 20 460 49 q 269 -8 347 -8 q 68 39 161 -8 l 81 149 l 94 154 q 185 94 133 115 q 282 72 238 72 q 378 103 340 72 q 415 179 415 135 q 381 246 415 221 q 275 304 347 271 q 177 353 215 331 q 113 412 139 375 q 86 501 86 449 q 116 601 86 557 q 201 672 146 646 q 329 699 256 699 z "},"t":{"ha":607,"x_min":44,"x_max":563,"o":"m 556 596 l 426 606 l 357 606 l 353 217 l 357 0 l 253 0 l 257 208 l 254 606 l 185 606 l 53 596 l 44 606 l 53 692 l 557 692 l 563 683 l 556 596 z "},"u":{"ha":763,"x_min":106,"x_max":664,"o":"m 660 240 q 588 57 661 122 q 379 -8 515 -8 q 174 56 244 -8 q 106 240 103 121 l 107 346 l 106 692 l 210 692 l 204 257 q 383 81 201 81 q 563 257 565 81 l 558 692 l 664 692 l 660 340 l 660 240 z "},"v":{"ha":694,"x_min":38,"x_max":667,"o":"m 279 0 l 38 692 l 144 692 l 161 615 l 340 103 l 347 103 l 546 611 l 563 692 l 667 692 l 403 0 l 279 0 z "},"w":{"ha":1067,"x_min":46,"x_max":1040,"o":"m 671 0 l 535 378 l 526 378 l 383 0 l 272 0 l 46 692 l 150 692 l 163 618 l 332 115 l 339 115 l 490 519 l 433 692 l 542 692 l 557 610 l 726 115 l 735 115 l 922 613 l 939 692 l 1040 692 l 782 0 l 671 0 z "},"x":{"ha":722,"x_min":46,"x_max":672,"o":"m 672 0 l 547 0 l 515 60 l 354 281 l 186 54 l 156 0 l 46 0 l 293 347 l 53 692 l 182 692 l 211 633 l 363 426 l 514 635 l 543 692 l 656 692 l 424 361 l 672 0 z "},"y":{"ha":657,"x_min":35,"x_max":622,"o":"m 369 0 l 265 0 l 269 199 l 269 240 l 35 692 l 147 692 l 163 651 l 317 354 l 324 354 l 493 647 l 513 692 l 622 692 l 367 242 l 365 199 l 369 0 z "},"z":{"ha":653,"x_min":56,"x_max":592,"o":"m 181 82 l 471 82 l 586 93 l 592 86 l 583 -3 l 440 0 l 126 0 l 56 -3 l 56 72 l 461 608 l 179 608 l 72 597 l 67 606 l 76 693 l 201 692 l 525 692 l 585 693 l 585 615 l 181 82 z "},"{":{"ha":400,"x_min":63,"x_max":385,"o":"m 307 910 q 379 900 338 910 l 385 890 l 374 831 q 322 838 342 838 q 236 736 236 838 q 251 618 236 692 q 265 508 265 538 q 172 365 265 406 l 172 360 q 265 218 265 319 q 251 108 265 186 q 236 -10 236 32 q 322 -112 236 -112 q 374 -106 342 -112 l 385 -165 l 379 -175 q 307 -183 344 -183 q 147 -28 147 -183 q 163 108 147 7 q 175 214 175 178 q 63 333 175 315 l 63 390 q 175 511 175 413 q 163 615 175 546 q 147 753 147 717 q 307 910 147 910 z "},"|":{"ha":436,"x_min":174,"x_max":261,"o":"m 260 400 l 260 -360 l 183 -364 l 174 -353 l 174 393 l 175 1101 l 254 1107 l 261 1100 l 260 400 z "},"}":{"ha":400,"x_min":15,"x_max":338,"o":"m 93 -185 q 21 -175 63 -185 l 15 -165 l 26 -106 q 78 -112 58 -112 q 164 -11 164 -112 q 149 107 164 33 q 135 217 135 188 q 228 360 135 319 l 228 365 q 135 507 135 406 q 149 617 135 539 q 164 735 164 693 q 78 838 164 838 q 26 831 58 838 l 15 890 l 21 900 q 93 908 56 908 q 253 753 253 908 q 238 617 253 718 q 225 511 225 547 q 338 392 225 410 l 338 335 q 225 214 225 313 q 238 110 225 179 q 253 -28 253 8 q 93 -185 253 -185 z "},"~":{"ha":667,"x_min":69,"x_max":599,"o":"m 207 357 q 179 347 193 357 q 133 307 165 336 q 113 286 133 307 l 100 286 l 69 324 l 69 336 l 171 438 l 185 443 q 321 408 219 439 q 463 375 440 375 q 492 387 476 375 q 527 417 507 399 q 557 446 547 436 l 568 446 l 599 408 l 599 396 l 497 293 l 483 290 q 335 326 453 294 q 207 357 226 357 z "}," ":{"ha":229,"x_min":0,"x_max":0,"o":""},"¡":{"ha":356,"x_min":113,"x_max":257,"o":"m 143 340 l 208 347 l 221 335 l 221 -256 l 210 -269 l 125 -274 l 113 -260 l 143 340 m 190 521 q 147 538 163 521 q 131 583 131 554 q 148 632 131 614 q 194 650 165 650 q 257 586 257 650 q 239 539 257 557 q 190 521 221 521 z "},"¢":{"ha":532,"x_min":54,"x_max":507,"o":"m 497 101 q 318 50 415 51 l 300 -165 l 247 -165 l 236 -156 l 253 57 q 107 160 160 78 q 54 369 54 243 q 121 606 54 517 q 303 703 188 694 l 318 906 l 372 906 l 383 894 l 368 701 q 503 654 443 692 l 486 583 l 474 582 q 364 626 424 617 l 324 125 l 332 125 q 496 174 415 125 l 507 168 l 497 101 m 140 378 q 172 224 140 286 q 260 139 203 163 l 297 626 q 182 549 224 615 q 140 378 140 483 z "},"£":{"ha":578,"x_min":33,"x_max":533,"o":"m 526 -3 l 388 0 l 40 0 l 33 8 l 40 65 q 139 214 139 86 l 139 404 l 40 404 l 35 413 l 42 465 l 139 465 l 139 599 q 197 765 139 707 q 365 824 256 824 q 515 800 429 824 l 508 715 l 501 708 q 358 753 426 753 q 231 613 231 753 l 231 465 l 407 465 l 413 458 l 407 404 l 229 404 l 229 224 q 174 83 229 129 l 174 79 l 401 79 l 528 89 l 533 79 l 526 -3 z "},"¤":{"ha":604,"x_min":39,"x_max":557,"o":"m 553 696 l 460 608 q 497 497 497 560 q 461 389 497 436 l 556 303 l 557 290 l 508 240 l 497 242 l 410 335 q 297 296 360 296 q 190 333 239 296 l 103 239 l 92 239 l 40 288 l 42 299 l 135 386 q 97 497 97 435 q 133 606 97 556 l 39 693 l 40 704 l 86 754 l 99 754 l 188 660 q 297 697 236 697 q 404 663 356 697 l 492 756 l 504 757 l 553 708 l 553 696 m 297 632 q 202 593 242 632 q 163 497 163 554 q 201 401 163 439 q 297 363 240 363 q 394 401 356 363 q 433 497 433 439 q 394 593 433 554 q 297 632 356 632 z "},"¥":{"ha":668,"x_min":29,"x_max":644,"o":"m 644 217 l 640 168 l 375 168 l 378 0 l 288 0 l 292 168 l 35 168 l 29 175 l 33 224 l 292 224 l 292 239 l 231 353 l 35 353 l 29 360 l 33 408 l 200 408 l 49 690 l 147 690 l 163 651 l 332 346 l 339 346 l 522 649 l 542 690 l 639 690 l 474 408 l 639 408 l 644 403 l 640 353 l 440 353 l 376 244 l 376 224 l 639 224 l 644 217 z "},"¦":{"ha":436,"x_min":174,"x_max":261,"o":"m 260 518 l 183 508 l 174 517 l 174 1101 l 254 1107 l 261 1100 l 260 518 m 260 -360 l 183 -364 l 174 -353 l 174 213 l 250 222 l 260 210 l 260 -360 z "},"§":{"ha":583,"x_min":49,"x_max":528,"o":"m 528 367 q 493 261 528 310 q 399 183 458 213 q 465 49 465 121 q 435 -45 465 -1 q 353 -115 406 -89 q 233 -140 300 -140 q 49 -96 133 -140 l 63 -1 l 75 7 q 244 -68 157 -68 q 336 -37 301 -68 q 371 32 371 -7 q 340 99 371 69 q 240 174 308 128 q 148 239 183 211 q 88 306 113 267 q 63 393 63 344 q 97 499 63 450 q 192 579 132 549 q 126 710 126 640 q 156 803 126 760 q 236 872 185 846 q 351 897 288 897 q 504 868 432 897 l 489 774 l 474 769 q 335 822 399 822 q 252 792 285 822 q 219 725 219 763 q 251 659 219 689 q 349 588 283 629 q 442 522 407 550 q 503 454 478 493 q 528 367 528 415 m 336 233 q 435 344 435 276 q 401 421 435 388 q 294 503 367 454 q 256 529 260 526 q 156 413 156 482 q 189 340 156 372 q 292 263 222 307 l 336 233 z "},"¨":{"ha":540,"x_min":100,"x_max":432,"o":"m 164 871 q 206 855 191 871 q 222 811 222 839 q 206 765 222 782 q 160 748 189 748 q 101 809 101 748 q 118 854 101 837 q 164 871 135 871 m 372 871 q 415 855 399 871 q 431 811 431 839 q 414 765 431 782 q 368 748 398 748 q 310 809 310 748 q 326 854 310 837 q 372 871 343 871 z "},"©":{"ha":951,"x_min":64,"x_max":885,"o":"m 475 831 q 690 778 597 831 q 834 629 783 725 q 885 407 885 533 q 834 185 885 281 q 690 36 783 89 q 475 -17 597 -17 q 260 36 353 -17 q 115 185 167 89 q 64 407 64 281 q 115 629 64 533 q 260 778 167 725 q 475 831 353 831 m 475 783 q 284 737 367 783 q 156 605 201 690 q 111 407 111 519 q 156 209 111 294 q 284 77 201 124 q 475 31 367 31 q 665 78 582 31 q 793 210 747 125 q 839 407 839 294 q 793 604 839 519 q 665 736 747 689 q 475 783 582 783 m 496 646 q 626 614 563 646 l 610 551 l 603 549 q 493 581 556 581 q 351 415 351 581 q 493 240 351 240 q 611 272 554 240 l 619 269 l 613 207 q 488 175 553 175 q 326 235 381 175 q 271 408 271 294 q 329 584 271 522 q 496 646 388 646 z "},"ª":{"ha":444,"x_min":47,"x_max":419,"o":"m 229 901 q 333 871 297 901 q 369 783 369 840 l 365 671 q 361 574 361 604 q 385 536 361 536 q 411 544 401 536 l 419 539 l 408 483 q 350 463 382 463 q 304 478 319 463 q 282 529 289 493 l 278 529 q 174 461 229 474 q 81 497 114 464 q 47 585 47 529 q 138 688 47 671 l 278 714 l 279 765 q 213 831 279 831 q 86 779 160 831 l 79 782 l 67 847 q 229 901 149 901 m 179 643 q 136 593 136 635 q 151 549 136 565 q 193 532 167 532 q 275 582 233 532 l 276 665 l 179 643 z "},"«":{"ha":553,"x_min":28,"x_max":515,"o":"m 28 322 l 229 564 l 283 533 l 285 519 l 113 313 l 285 106 l 283 93 l 229 63 l 28 300 l 28 322 m 258 322 l 460 564 l 514 533 l 515 519 l 343 313 l 515 106 l 514 93 l 460 63 l 258 300 l 258 322 z "},"¬":{"ha":667,"x_min":40,"x_max":589,"o":"m 589 83 l 519 78 l 511 86 l 511 329 l 47 329 l 40 338 l 46 407 l 581 407 l 589 397 l 589 83 z "},"­":{"ha":426,"x_min":40,"x_max":386,"o":"m 386 338 l 51 289 l 40 300 l 40 369 l 376 417 l 386 407 l 386 338 z "},"®":{"ha":610,"x_min":53,"x_max":557,"o":"m 306 975 q 488 906 419 975 q 557 724 557 838 q 488 540 557 610 q 306 471 419 471 q 122 540 192 471 q 53 724 53 610 q 122 906 53 838 q 306 975 192 975 m 307 507 q 463 567 404 507 q 522 724 522 626 q 463 880 522 821 q 307 939 404 939 q 149 880 208 939 q 90 724 90 821 q 150 567 90 626 q 307 507 210 507 m 406 788 q 351 706 406 733 q 424 608 376 665 l 422 603 q 374 594 404 597 l 368 599 q 308 693 335 647 l 261 693 l 261 683 l 264 599 l 214 599 l 215 679 l 214 867 l 315 867 q 406 788 406 867 m 313 732 q 354 783 354 746 q 300 829 354 826 l 264 828 l 263 735 l 313 732 z "},"¯":{"ha":540,"x_min":67,"x_max":475,"o":"m 468 808 l 75 808 l 67 817 l 74 881 l 467 881 l 475 874 l 468 808 z "},"°":{"ha":407,"x_min":28,"x_max":379,"o":"m 204 899 q 328 849 278 899 q 379 726 379 799 q 328 603 379 654 q 204 553 278 553 q 79 603 131 553 q 28 726 28 654 q 79 849 28 799 q 204 899 131 899 m 203 844 q 119 810 154 844 q 83 726 83 775 q 119 643 83 678 q 203 608 154 608 q 288 643 253 608 q 324 726 324 678 q 288 810 324 775 q 203 844 253 844 z "},"±":{"ha":667,"x_min":43,"x_max":624,"o":"m 372 407 l 615 407 l 624 399 l 617 329 l 372 329 l 372 83 l 303 78 l 294 86 l 294 329 l 51 329 l 43 338 l 50 407 l 294 407 l 294 653 l 364 660 l 372 650 l 372 407 m 617 -126 l 51 -126 l 43 -118 l 50 -49 l 615 -49 l 624 -57 l 617 -126 z "},"²":{"ha":485,"x_min":54,"x_max":450,"o":"m 246 979 q 352 947 310 979 q 394 860 394 914 q 367 772 394 819 q 276 646 340 725 l 183 528 l 186 525 l 357 525 l 446 529 l 450 521 l 439 444 l 328 449 l 97 449 l 60 447 l 54 451 l 54 510 l 190 668 q 271 774 247 738 q 294 839 294 810 q 276 883 294 865 q 224 900 257 900 q 153 881 189 900 q 88 829 117 863 l 75 829 l 60 903 q 246 979 150 979 z "},"³":{"ha":428,"x_min":42,"x_max":367,"o":"m 197 981 q 306 948 265 981 q 347 861 347 915 q 326 789 347 824 q 261 735 304 754 l 261 729 q 367 603 367 701 q 306 487 367 531 q 147 443 246 443 q 53 453 93 443 l 46 522 l 54 529 q 149 517 104 517 q 238 540 206 517 q 271 604 271 564 q 174 683 271 681 l 114 683 l 108 690 l 110 756 l 151 756 q 217 781 186 756 q 249 843 249 807 q 229 888 249 872 q 176 904 210 904 q 67 861 129 904 l 57 861 l 42 926 q 197 981 113 981 z "},"´":{"ha":540,"x_min":131,"x_max":413,"o":"m 413 908 l 410 897 q 174 721 272 790 l 161 722 l 131 767 q 358 968 267 878 l 371 967 l 413 908 z "},"µ":{"ha":710,"x_min":101,"x_max":679,"o":"m 667 19 q 585 -7 629 -7 q 490 83 508 -7 l 481 83 q 300 -8 396 10 q 204 15 244 -8 l 204 -257 l 101 -257 l 104 269 l 101 629 l 204 639 l 204 199 q 235 115 206 146 q 315 85 264 85 q 485 169 396 85 l 485 629 l 589 639 l 582 143 q 621 74 581 74 q 668 90 642 74 l 679 82 l 667 19 z "},"¶":{"ha":674,"x_min":53,"x_max":638,"o":"m 629 803 l 526 803 l 522 254 l 524 179 q 473 19 524 88 q 303 -107 422 -49 l 271 -57 l 271 -43 q 384 56 349 6 q 419 172 419 107 l 419 236 l 418 804 l 336 804 q 212 747 256 797 q 168 611 168 696 q 216 468 168 526 q 354 382 264 410 l 319 319 q 122 419 192 344 q 53 615 53 494 q 132 818 53 746 q 357 890 211 890 l 629 890 l 638 879 l 629 803 z "},"·":{"ha":318,"x_min":96,"x_max":222,"o":"m 161 404 q 206 388 189 404 q 222 342 222 371 q 205 293 222 311 q 157 275 188 275 q 96 339 96 275 q 113 386 96 368 q 161 404 131 404 z "},"¸":{"ha":540,"x_min":165,"x_max":378,"o":"m 325 -99 q 378 -176 378 -129 q 347 -242 378 -217 q 265 -268 315 -268 q 165 -225 206 -268 l 175 -169 l 182 -168 q 261 -211 221 -211 q 292 -201 281 -211 q 304 -174 304 -192 q 275 -139 304 -156 l 208 -99 l 243 26 l 307 26 l 278 -71 l 325 -99 z "},"¹":{"ha":358,"x_min":19,"x_max":235,"o":"m 232 636 l 235 449 l 136 449 l 139 624 l 139 872 l 28 843 l 19 847 l 19 925 l 222 982 l 235 969 l 232 636 z "},"º":{"ha":471,"x_min":43,"x_max":428,"o":"m 240 901 q 380 846 332 901 q 428 686 428 790 q 376 519 428 578 q 231 460 325 460 q 92 515 140 460 q 43 675 43 571 q 94 843 43 785 q 240 901 146 901 m 238 831 q 138 685 138 831 q 236 529 138 529 q 338 676 338 529 q 238 831 338 831 z "},"»":{"ha":543,"x_min":31,"x_max":518,"o":"m 518 306 l 317 64 l 263 94 l 261 108 l 433 315 l 261 522 l 263 535 l 317 565 l 518 328 l 518 306 m 288 306 l 86 64 l 32 94 l 31 108 l 203 315 l 31 522 l 32 535 l 86 565 l 288 328 l 288 306 z "},"¼":{"ha":975,"x_min":19,"x_max":928,"o":"m 124 -126 l 75 -99 l 68 -82 l 722 942 l 771 914 l 779 894 l 124 -126 m 28 760 l 19 764 l 19 842 l 222 899 l 235 886 l 232 553 l 235 365 l 136 365 l 139 540 l 139 789 l 28 760 m 842 140 l 847 8 l 842 0 l 764 -4 l 758 1 l 760 140 l 601 140 l 531 136 l 524 146 l 524 207 l 751 526 l 842 526 l 840 213 l 921 213 l 928 204 l 922 136 l 842 140 m 761 213 l 761 417 l 754 417 l 610 213 l 761 213 z "},"½":{"ha":994,"x_min":19,"x_max":960,"o":"m 779 894 l 124 -126 l 75 -99 l 68 -82 l 722 942 l 771 914 l 779 894 m 232 553 l 235 365 l 136 365 l 139 540 l 139 789 l 28 760 l 19 764 l 19 842 l 222 899 l 235 886 l 232 553 m 756 531 q 862 498 819 531 q 904 411 904 465 q 877 324 904 371 q 786 197 850 276 l 693 79 l 696 76 l 867 76 l 956 81 l 960 72 l 949 -4 l 838 0 l 607 0 l 569 -1 l 564 3 l 564 61 l 700 219 q 781 325 757 289 q 804 390 804 361 q 785 434 804 417 q 733 451 767 451 q 663 433 699 451 q 597 381 626 414 l 585 381 l 569 454 q 756 531 660 531 z "},"¾":{"ha":1026,"x_min":42,"x_max":979,"o":"m 175 -126 l 126 -99 l 119 -82 l 774 942 l 822 914 l 831 894 l 175 -126 m 367 519 q 306 403 367 447 q 147 360 246 360 q 53 369 93 360 l 46 439 l 54 446 q 149 433 104 433 q 238 457 206 433 q 271 521 271 481 q 174 600 271 597 l 114 600 l 108 607 l 110 672 l 151 672 q 217 698 186 672 q 249 760 249 724 q 229 805 249 789 q 176 821 210 821 q 67 778 129 821 l 57 778 l 42 843 q 197 897 113 897 q 306 865 265 897 q 347 778 347 832 q 326 706 347 740 q 261 651 304 671 l 261 646 q 367 519 367 618 m 893 140 l 899 8 l 893 0 l 815 -4 l 810 1 l 811 140 l 653 140 l 582 136 l 575 146 l 575 207 l 803 526 l 893 526 l 892 213 l 972 213 l 979 204 l 974 136 l 893 140 m 813 213 l 813 417 l 806 417 l 661 213 l 813 213 z "},"¿":{"ha":460,"x_min":0,"x_max":382,"o":"m 347 -275 q 90 -208 181 -264 q 0 -57 0 -151 q 117 129 0 57 l 232 204 l 235 210 l 226 343 l 304 353 l 314 343 l 325 183 l 318 169 l 185 90 q 100 -40 100 40 q 374 -196 100 -179 l 382 -207 l 361 -268 l 347 -275 m 261 521 q 217 538 233 521 q 200 583 200 554 q 217 632 200 614 q 265 650 235 650 q 326 586 326 650 q 309 539 326 557 q 261 521 292 521 z "},"À":{"ha":803,"x_min":19,"x_max":774,"o":"m 524 1001 q 253 1121 376 1064 l 250 1132 l 278 1197 l 290 1200 q 557 1057 414 1128 l 538 1007 l 524 1001 m 658 0 l 639 89 l 589 242 l 388 246 l 207 242 l 153 94 l 131 0 l 19 0 l 347 890 l 476 890 l 774 0 l 658 0 m 413 775 l 403 775 l 242 336 l 397 333 l 557 336 l 413 775 z "},"Á":{"ha":803,"x_min":19,"x_max":772,"o":"m 658 0 l 638 89 l 588 242 l 388 246 l 207 242 l 153 94 l 131 0 l 19 0 l 346 890 l 475 890 l 772 0 l 658 0 m 413 775 l 403 775 l 242 336 l 397 333 l 557 336 l 413 775 m 593 1131 l 590 1119 q 319 1000 467 1063 l 306 1006 l 286 1056 q 553 1199 429 1126 l 565 1196 l 593 1131 z "},"Â":{"ha":803,"x_min":19,"x_max":774,"o":"m 225 1065 q 386 1192 318 1129 l 418 1192 q 581 1065 481 1136 l 558 1018 l 546 1018 q 403 1110 468 1065 q 261 1018 349 1072 l 247 1018 l 225 1065 m 658 0 l 639 89 l 589 242 l 388 246 l 207 242 l 153 94 l 131 0 l 19 0 l 347 890 l 476 890 l 774 0 l 658 0 m 413 775 l 403 775 l 242 336 l 397 333 l 557 336 l 413 775 z "},"Ã":{"ha":803,"x_min":19,"x_max":772,"o":"m 658 0 l 638 89 l 588 242 l 388 246 l 207 242 l 153 94 l 131 0 l 19 0 l 346 890 l 475 890 l 772 0 l 658 0 m 413 775 l 403 775 l 242 336 l 397 333 l 557 336 l 413 775 m 621 1133 l 536 1038 l 522 1033 q 406 1061 492 1036 q 307 1085 326 1085 q 286 1076 297 1085 q 251 1043 275 1067 l 229 1019 l 217 1019 l 183 1056 l 183 1065 l 268 1161 l 282 1165 q 397 1138 315 1163 q 497 1115 483 1115 q 553 1156 515 1115 l 576 1179 l 588 1179 l 621 1144 l 621 1133 z "},"Ä":{"ha":803,"x_min":19,"x_max":774,"o":"m 293 1033 q 250 1050 265 1033 q 235 1094 235 1067 q 251 1140 235 1122 q 297 1157 268 1157 q 340 1142 325 1157 q 356 1099 356 1126 q 339 1051 356 1069 q 293 1033 322 1033 m 511 1033 q 468 1050 483 1033 q 453 1094 453 1067 q 469 1140 453 1122 q 515 1157 486 1157 q 558 1142 543 1157 q 574 1099 574 1126 q 557 1051 574 1069 q 511 1033 540 1033 m 658 0 l 639 89 l 589 242 l 388 246 l 207 242 l 153 94 l 131 0 l 19 0 l 347 890 l 476 890 l 774 0 l 658 0 m 413 775 l 403 775 l 242 336 l 397 333 l 557 336 l 413 775 z "},"Å":{"ha":803,"x_min":19,"x_max":772,"o":"m 658 0 l 638 89 l 588 242 l 388 246 l 207 242 l 153 94 l 131 0 l 19 0 l 346 890 l 475 890 l 772 0 l 658 0 m 413 775 l 403 775 l 242 336 l 397 333 l 557 336 l 413 775 m 403 1221 q 488 1190 457 1221 q 518 1108 518 1158 q 484 1023 518 1054 q 399 992 450 992 q 317 1022 349 992 q 285 1106 285 1051 q 317 1190 285 1158 q 403 1221 349 1221 m 400 1167 q 338 1107 338 1167 q 355 1060 338 1076 q 401 1044 372 1044 q 447 1060 429 1044 q 464 1104 464 1075 q 400 1167 464 1167 z "},"Æ":{"ha":1121,"x_min":-22,"x_max":1100,"o":"m 1090 0 l 607 0 l 600 89 l 560 360 l 229 285 l 128 94 l 93 0 l -22 0 l 447 890 l 965 890 l 974 879 l 963 793 l 738 799 l 603 799 l 651 469 l 950 532 l 960 524 l 965 443 l 664 383 l 707 90 l 864 90 l 1092 97 l 1100 86 l 1090 0 m 497 775 l 489 775 l 285 390 l 546 447 l 497 775 z "},"Ç":{"ha":722,"x_min":53,"x_max":690,"o":"m 439 85 q 671 169 567 85 l 685 163 l 675 57 q 458 -8 569 -3 l 440 -71 l 488 -99 q 540 -176 540 -129 q 509 -242 540 -217 q 428 -268 478 -268 q 328 -225 368 -268 l 338 -169 l 344 -168 q 424 -211 383 -211 q 455 -201 443 -211 q 467 -174 467 -192 q 438 -139 467 -156 l 371 -99 l 396 -8 q 142 118 232 3 q 53 438 53 233 q 156 778 53 658 q 447 897 258 897 q 690 831 588 897 l 668 729 l 656 726 q 442 804 563 804 q 239 713 310 804 q 168 447 168 622 q 239 178 168 271 q 439 85 310 85 z "},"È":{"ha":669,"x_min":129,"x_max":638,"o":"m 501 1001 q 231 1121 354 1064 l 228 1132 l 256 1197 l 268 1200 q 535 1057 392 1128 l 515 1007 l 501 1001 m 638 86 l 629 0 l 129 0 l 136 268 l 129 890 l 631 890 l 638 879 l 628 793 l 418 797 l 242 794 l 239 503 l 406 500 l 553 504 l 560 494 l 551 408 l 396 411 l 238 410 l 236 278 l 240 93 l 418 92 l 631 97 l 638 86 z "},"É":{"ha":669,"x_min":129,"x_max":638,"o":"m 629 0 l 129 0 l 136 268 l 129 890 l 631 890 l 636 879 l 628 793 l 418 797 l 242 794 l 239 503 l 406 500 l 553 504 l 561 494 l 551 408 l 396 411 l 238 410 l 236 278 l 240 93 l 417 92 l 631 97 l 638 86 l 629 0 m 572 1131 l 569 1119 q 299 1000 446 1063 l 285 1006 l 265 1056 q 532 1199 408 1126 l 544 1196 l 572 1131 z "},"Ê":{"ha":669,"x_min":129,"x_max":638,"o":"m 203 1065 q 364 1192 296 1129 l 396 1192 q 558 1065 458 1136 l 536 1018 l 524 1018 q 381 1110 446 1065 q 239 1018 326 1072 l 225 1018 l 203 1065 m 638 86 l 629 0 l 129 0 l 136 268 l 129 890 l 631 890 l 638 879 l 628 793 l 418 797 l 242 794 l 239 503 l 406 500 l 553 504 l 560 494 l 551 408 l 396 411 l 238 410 l 236 278 l 240 93 l 418 92 l 631 97 l 638 86 z "},"Ë":{"ha":669,"x_min":129,"x_max":638,"o":"m 271 1033 q 228 1050 243 1033 q 213 1094 213 1067 q 229 1140 213 1122 q 275 1157 246 1157 q 318 1142 303 1157 q 333 1099 333 1126 q 317 1051 333 1069 q 271 1033 300 1033 m 489 1033 q 446 1050 461 1033 q 431 1094 431 1067 q 447 1140 431 1122 q 493 1157 464 1157 q 536 1142 521 1157 q 551 1099 551 1126 q 535 1051 551 1069 q 489 1033 518 1033 m 638 86 l 629 0 l 129 0 l 136 268 l 129 890 l 631 890 l 638 879 l 628 793 l 418 797 l 242 794 l 239 503 l 406 500 l 553 504 l 560 494 l 551 408 l 396 411 l 238 410 l 236 278 l 240 93 l 418 92 l 631 97 l 638 86 z "},"Ì":{"ha":372,"x_min":33,"x_max":340,"o":"m 74 1200 q 340 1057 197 1128 l 321 1007 l 307 1001 q 36 1121 160 1064 l 33 1132 l 61 1197 l 74 1200 m 242 0 l 129 0 l 136 268 l 129 890 l 243 890 l 236 278 l 242 0 z "},"Í":{"ha":372,"x_min":69,"x_max":376,"o":"m 242 0 l 129 0 l 136 268 l 129 890 l 243 890 l 236 278 l 242 0 m 376 1131 l 374 1119 q 103 1000 250 1063 l 89 1006 l 69 1056 q 336 1199 213 1126 l 349 1196 l 376 1131 z "},"Î":{"ha":372,"x_min":8,"x_max":364,"o":"m 8 1065 q 169 1192 101 1129 l 201 1192 q 364 1065 264 1136 l 342 1018 l 329 1018 q 186 1110 251 1065 q 44 1018 132 1072 l 31 1018 l 8 1065 m 242 0 l 129 0 l 136 268 l 129 890 l 243 890 l 236 278 l 242 0 z "},"Ï":{"ha":372,"x_min":38,"x_max":336,"o":"m 100 1157 q 143 1142 128 1157 q 158 1099 158 1126 q 142 1051 158 1069 q 96 1033 125 1033 q 53 1050 68 1033 q 38 1094 38 1067 q 54 1140 38 1122 q 100 1157 71 1157 m 278 1157 q 321 1142 306 1157 q 336 1099 336 1126 q 319 1051 336 1069 q 274 1033 303 1033 q 231 1050 246 1033 q 215 1094 215 1067 q 232 1140 215 1122 q 278 1157 249 1157 m 242 0 l 129 0 l 136 268 l 129 890 l 243 890 l 236 278 l 242 0 z "},"Ð":{"ha":928,"x_min":17,"x_max":875,"o":"m 481 896 q 773 788 671 896 q 875 476 875 679 q 765 117 875 242 q 449 -8 654 -8 q 160 0 313 -8 l 158 0 l 167 268 l 165 411 l 22 411 l 17 421 l 21 490 l 164 490 l 158 890 l 160 890 l 481 896 m 467 85 q 685 177 610 85 q 761 453 761 269 q 474 803 761 803 q 271 797 382 803 l 268 490 l 469 490 l 475 481 l 471 411 l 268 411 l 267 278 l 269 93 q 467 85 369 85 z "},"Ñ":{"ha":949,"x_min":129,"x_max":821,"o":"m 815 0 l 699 0 l 239 713 l 231 713 l 229 293 l 233 0 l 129 0 l 136 264 l 132 890 l 249 890 l 707 178 l 717 178 l 715 885 l 821 893 l 813 261 l 815 0 m 689 1133 l 604 1038 l 590 1033 q 474 1061 560 1036 q 375 1085 394 1085 q 354 1076 365 1085 q 319 1043 343 1067 l 297 1019 l 285 1019 l 251 1056 l 251 1065 l 336 1161 l 350 1165 q 465 1138 383 1163 q 565 1115 551 1115 q 621 1156 583 1115 l 644 1179 l 656 1179 l 689 1144 l 689 1133 z "},"Ò":{"ha":882,"x_min":53,"x_max":831,"o":"m 329 1200 q 596 1057 453 1128 l 576 1007 l 563 1001 q 292 1121 415 1064 l 289 1132 l 317 1197 l 329 1200 m 453 899 q 733 786 635 899 q 831 463 831 674 q 726 113 831 236 q 431 -11 622 -11 q 151 106 250 -11 q 53 438 53 222 q 156 779 53 660 q 453 899 260 899 m 443 807 q 167 451 167 807 q 438 82 167 82 q 715 443 715 82 q 648 717 715 628 q 443 807 581 807 z "},"Ó":{"ha":882,"x_min":53,"x_max":831,"o":"m 453 899 q 733 786 635 899 q 831 463 831 674 q 726 113 831 236 q 431 -11 622 -11 q 151 106 250 -11 q 53 438 53 222 q 156 779 53 660 q 453 899 260 899 m 443 807 q 167 451 167 807 q 438 82 167 82 q 715 443 715 82 q 648 717 715 628 q 443 807 581 807 m 633 1131 l 631 1119 q 360 1000 507 1063 l 346 1006 l 326 1056 q 593 1199 469 1126 l 606 1196 l 633 1131 z "},"Ô":{"ha":882,"x_min":53,"x_max":831,"o":"m 264 1065 q 425 1192 357 1129 l 457 1192 q 619 1065 519 1136 l 597 1018 l 585 1018 q 442 1110 507 1065 q 300 1018 388 1072 l 286 1018 l 264 1065 m 453 899 q 733 786 635 899 q 831 463 831 674 q 726 113 831 236 q 431 -11 622 -11 q 151 106 250 -11 q 53 438 53 222 q 156 779 53 660 q 453 899 260 899 m 443 807 q 167 451 167 807 q 438 82 167 82 q 715 443 715 82 q 648 717 715 628 q 443 807 581 807 z "},"Õ":{"ha":882,"x_min":53,"x_max":831,"o":"m 453 899 q 733 786 635 899 q 831 463 831 674 q 726 113 831 236 q 431 -11 622 -11 q 151 106 250 -11 q 53 438 53 222 q 156 779 53 660 q 453 899 260 899 m 443 807 q 167 451 167 807 q 438 82 167 82 q 715 443 715 82 q 648 717 715 628 q 443 807 581 807 m 661 1133 l 576 1038 l 563 1033 q 446 1061 532 1036 q 347 1085 367 1085 q 326 1076 338 1085 q 292 1043 315 1067 l 269 1019 l 257 1019 l 224 1056 l 224 1065 l 308 1161 l 322 1165 q 438 1138 356 1163 q 538 1115 524 1115 q 593 1156 556 1115 l 617 1179 l 628 1179 l 661 1144 l 661 1133 z "},"Ö":{"ha":882,"x_min":53,"x_max":831,"o":"m 338 1157 q 381 1142 365 1157 q 396 1099 396 1126 q 379 1051 396 1069 q 333 1033 363 1033 q 290 1050 306 1033 q 275 1094 275 1067 q 292 1140 275 1122 q 338 1157 308 1157 m 556 1157 q 599 1142 583 1157 q 614 1099 614 1126 q 597 1051 614 1069 q 551 1033 581 1033 q 508 1050 524 1033 q 493 1094 493 1067 q 510 1140 493 1122 q 556 1157 526 1157 m 453 899 q 733 786 635 899 q 831 463 831 674 q 726 113 831 236 q 431 -11 622 -11 q 151 106 250 -11 q 53 438 53 222 q 156 779 53 660 q 453 899 260 899 m 443 807 q 167 451 167 807 q 438 82 167 82 q 715 443 715 82 q 648 717 715 628 q 443 807 581 807 z "},"×":{"ha":667,"x_min":107,"x_max":560,"o":"m 560 539 l 389 368 l 560 197 l 560 185 l 507 139 l 333 313 l 158 139 l 107 185 l 107 196 l 279 368 l 107 539 l 107 553 l 158 597 l 333 424 l 507 597 l 560 553 l 560 539 z "},"Ø":{"ha":882,"x_min":53,"x_max":831,"o":"m 669 842 q 831 463 831 736 q 726 113 831 236 q 431 -11 622 -11 q 282 14 346 -11 l 208 -142 l 140 -118 l 135 -107 l 210 53 q 53 438 53 163 q 156 779 53 660 q 453 899 260 899 q 594 878 532 899 l 654 1006 l 721 981 l 728 967 l 669 842 m 167 451 q 254 150 167 240 l 553 789 q 443 807 507 807 q 167 451 167 807 m 438 82 q 715 443 715 82 q 624 744 715 657 l 322 103 q 438 82 372 82 z "},"Ù":{"ha":869,"x_min":106,"x_max":769,"o":"m 328 1200 q 594 1057 451 1128 l 575 1007 l 561 1001 q 290 1121 414 1064 l 288 1132 l 315 1197 l 328 1200 m 765 338 q 680 81 768 172 q 428 -10 592 -10 q 186 77 269 -10 q 106 325 103 164 l 107 446 l 106 890 l 215 890 l 210 339 q 436 88 207 88 q 664 325 664 88 l 658 890 l 769 890 l 767 438 l 765 338 z "},"Ú":{"ha":869,"x_min":106,"x_max":769,"o":"m 767 338 q 681 82 769 174 q 428 -10 592 -10 q 187 78 271 -10 q 106 325 103 165 l 107 446 l 106 890 l 215 890 l 211 339 q 436 88 208 88 q 664 325 667 88 l 658 890 l 769 890 l 768 438 l 767 338 m 629 1131 l 626 1119 q 356 1000 503 1063 l 342 1006 l 322 1056 q 589 1199 465 1126 l 601 1196 l 629 1131 z "},"Û":{"ha":869,"x_min":106,"x_max":769,"o":"m 263 1065 q 424 1192 356 1129 l 456 1192 q 618 1065 518 1136 l 596 1018 l 583 1018 q 440 1110 506 1065 q 299 1018 386 1072 l 285 1018 l 263 1065 m 765 338 q 680 81 768 172 q 428 -10 592 -10 q 186 77 269 -10 q 106 325 103 164 l 107 446 l 106 890 l 215 890 l 210 339 q 436 88 207 88 q 664 325 664 88 l 658 890 l 769 890 l 767 438 l 765 338 z "},"Ü":{"ha":869,"x_min":106,"x_max":769,"o":"m 335 1157 q 378 1142 363 1157 q 393 1099 393 1126 q 376 1051 393 1069 q 331 1033 360 1033 q 288 1050 303 1033 q 272 1094 272 1067 q 289 1140 272 1122 q 335 1157 306 1157 m 553 1157 q 596 1142 581 1157 q 611 1099 611 1126 q 594 1051 611 1069 q 549 1033 578 1033 q 506 1050 521 1033 q 490 1094 490 1067 q 507 1140 490 1122 q 553 1157 524 1157 m 765 338 q 680 81 768 172 q 428 -10 592 -10 q 186 77 269 -10 q 106 325 103 164 l 107 446 l 106 890 l 215 890 l 210 339 q 436 88 207 88 q 664 325 664 88 l 658 890 l 769 890 l 767 438 l 765 338 z "},"Ý":{"ha":733,"x_min":21,"x_max":715,"o":"m 410 0 l 297 0 l 306 260 l 304 319 l 21 890 l 140 890 l 158 840 l 353 440 l 364 440 l 576 838 l 597 890 l 715 890 l 407 319 l 406 260 l 410 0 m 549 1131 l 546 1119 q 275 1000 422 1063 l 261 1006 l 242 1056 q 508 1199 385 1126 l 521 1196 l 549 1131 z "},"Þ":{"ha":729,"x_min":131,"x_max":678,"o":"m 404 738 q 607 670 536 738 q 678 475 678 603 q 591 243 678 325 q 344 161 504 161 l 239 160 l 242 0 l 131 0 l 135 268 l 131 890 l 243 890 l 242 736 l 404 738 m 385 250 q 563 467 563 282 q 379 647 563 639 l 240 643 l 238 278 l 238 253 l 385 250 z "},"ß":{"ha":775,"x_min":103,"x_max":721,"o":"m 394 699 q 665 632 513 699 l 671 614 l 489 401 q 666 313 611 361 q 721 185 721 264 q 655 43 721 94 q 489 -8 589 -8 q 293 39 381 -8 l 304 143 l 315 149 q 399 96 353 115 q 483 76 446 76 q 575 108 540 76 q 610 186 610 139 q 551 277 610 242 q 363 344 492 313 l 358 364 l 536 574 q 386 614 457 614 q 252 572 300 614 q 204 454 204 531 l 201 217 l 206 0 l 103 0 l 106 204 l 104 454 q 182 632 104 565 q 394 699 260 699 z "},"à":{"ha":711,"x_min":35,"x_max":665,"o":"m 460 776 q 224 953 361 846 l 221 964 l 263 1022 l 275 1024 q 503 822 367 933 l 472 778 l 460 776 m 560 0 l 543 75 l 507 178 l 342 179 l 194 178 l 157 81 l 138 0 l 35 0 l 301 692 l 421 692 l 665 0 l 560 0 m 363 590 l 354 590 l 228 263 l 350 261 l 478 263 l 363 590 z "},"á":{"ha":711,"x_min":35,"x_max":664,"o":"m 560 0 l 543 75 l 507 178 l 342 179 l 194 178 l 157 81 l 138 0 l 35 0 l 301 692 l 421 692 l 664 0 l 560 0 m 363 590 l 354 590 l 228 263 l 350 261 l 478 263 l 363 590 m 542 964 l 539 953 q 303 776 401 846 l 290 778 l 260 822 q 488 1024 396 933 l 500 1022 l 542 964 z "},"â":{"ha":711,"x_min":35,"x_max":665,"o":"m 178 826 q 347 1013 258 907 l 381 1013 q 549 826 467 906 l 518 782 l 506 782 q 364 926 419 864 q 222 782 311 868 l 208 782 l 178 826 m 560 0 l 543 75 l 507 178 l 342 179 l 194 178 l 157 81 l 138 0 l 35 0 l 301 692 l 421 692 l 665 0 l 560 0 m 363 590 l 354 590 l 228 263 l 350 261 l 478 263 l 363 590 z "},"ã":{"ha":711,"x_min":35,"x_max":664,"o":"m 560 0 l 543 75 l 507 178 l 342 179 l 194 178 l 157 81 l 138 0 l 35 0 l 301 692 l 421 692 l 664 0 l 560 0 m 363 590 l 354 590 l 228 263 l 350 261 l 478 263 l 363 590 m 581 936 l 496 840 l 482 836 q 365 864 451 839 q 267 888 286 888 q 246 878 257 888 q 211 846 235 869 l 189 822 l 176 822 l 143 858 l 143 868 l 228 964 l 242 968 q 357 940 275 965 q 457 918 443 918 q 513 958 475 918 l 536 982 l 547 982 l 581 947 l 581 936 z "},"ä":{"ha":711,"x_min":35,"x_max":665,"o":"m 253 836 q 210 853 225 836 q 194 897 194 869 q 211 942 194 925 q 257 960 228 960 q 300 944 285 960 q 315 901 315 929 q 299 854 315 872 q 253 836 282 836 m 471 836 q 428 853 443 836 q 413 897 413 869 q 429 942 413 925 q 475 960 446 960 q 518 944 503 960 q 533 901 533 929 q 517 854 533 872 q 471 836 500 836 m 560 0 l 543 75 l 507 178 l 342 179 l 194 178 l 157 81 l 138 0 l 35 0 l 301 692 l 421 692 l 665 0 l 560 0 m 363 590 l 354 590 l 228 263 l 350 261 l 478 263 l 363 590 z "},"å":{"ha":711,"x_min":35,"x_max":664,"o":"m 560 0 l 543 75 l 507 178 l 342 179 l 194 178 l 157 81 l 138 0 l 35 0 l 301 692 l 421 692 l 664 0 l 560 0 m 363 590 l 354 590 l 228 263 l 350 261 l 478 263 l 363 590 m 363 1024 q 447 992 417 1024 q 478 911 478 961 q 444 826 478 857 q 358 794 410 794 q 276 824 308 794 q 244 908 244 854 q 276 992 244 961 q 363 1024 308 1024 m 360 969 q 297 910 297 969 q 315 863 297 879 q 361 847 332 847 q 406 863 389 847 q 424 907 424 878 q 360 969 424 969 z "},"æ":{"ha":972,"x_min":3,"x_max":936,"o":"m 928 0 l 521 0 l 515 74 l 486 263 l 201 199 l 133 79 l 106 0 l 3 0 l 388 692 l 826 692 l 833 683 l 824 603 l 639 610 l 529 610 l 568 365 l 813 418 l 821 413 l 826 329 l 581 282 l 611 85 l 739 85 l 929 90 l 936 83 l 928 0 m 433 590 l 425 590 l 258 297 l 472 344 l 433 590 z "},"ç":{"ha":640,"x_min":63,"x_max":594,"o":"m 383 79 q 575 143 486 79 l 588 139 l 578 43 q 403 -8 493 -3 l 383 -71 l 431 -99 q 483 -176 483 -129 q 452 -242 483 -217 q 371 -268 421 -268 q 271 -225 311 -268 l 281 -169 l 288 -168 q 367 -211 326 -211 q 398 -201 386 -211 q 410 -174 410 -192 q 381 -139 410 -156 l 314 -99 l 339 -7 q 134 94 206 4 q 63 342 63 185 q 149 606 63 513 q 394 699 236 699 q 594 650 510 699 l 575 554 l 563 550 q 383 613 489 613 q 226 547 281 613 q 171 350 171 481 q 226 149 171 218 q 383 79 281 79 z "},"è":{"ha":604,"x_min":125,"x_max":556,"o":"m 433 776 q 197 953 335 846 l 194 964 l 236 1022 l 249 1024 q 476 822 340 933 l 446 778 l 433 776 m 556 81 l 546 0 l 125 0 l 129 208 l 125 692 l 549 692 l 556 683 l 547 603 l 372 608 l 229 607 l 228 397 l 365 396 l 486 400 l 492 390 l 485 308 l 356 313 l 226 311 l 225 217 l 228 85 l 361 83 l 547 89 l 556 81 z "},"é":{"ha":604,"x_min":125,"x_max":556,"o":"m 556 81 l 546 0 l 125 0 l 129 208 l 125 692 l 549 692 l 556 683 l 547 603 l 372 608 l 228 607 l 226 397 l 364 396 l 485 400 l 492 390 l 483 308 l 356 313 l 226 311 l 225 217 l 226 85 l 363 83 l 547 89 l 556 81 m 517 964 l 514 953 q 278 776 376 846 l 265 778 l 235 822 q 463 1024 371 933 l 475 1022 l 517 964 z "},"ê":{"ha":604,"x_min":125,"x_max":556,"o":"m 151 826 q 321 1013 231 906 l 354 1013 q 522 826 440 906 l 492 782 l 479 782 q 338 926 393 864 q 196 782 285 868 l 182 782 l 151 826 m 556 81 l 546 0 l 125 0 l 129 208 l 125 692 l 549 692 l 556 683 l 547 603 l 372 608 l 229 607 l 228 397 l 365 396 l 486 400 l 492 390 l 485 308 l 356 313 l 226 311 l 225 217 l 228 85 l 361 83 l 547 89 l 556 81 z "},"ë":{"ha":604,"x_min":125,"x_max":556,"o":"m 226 836 q 183 853 199 836 q 168 897 168 869 q 185 942 168 925 q 231 960 201 960 q 274 944 258 960 q 289 901 289 929 q 272 854 289 872 q 226 836 256 836 m 444 836 q 401 853 417 836 q 386 897 386 869 q 403 942 386 925 q 449 960 419 960 q 492 944 476 960 q 507 901 507 929 q 490 854 507 872 q 444 836 474 836 m 556 81 l 546 0 l 125 0 l 129 208 l 125 692 l 549 692 l 556 683 l 547 603 l 372 608 l 229 607 l 228 397 l 365 396 l 486 400 l 492 390 l 485 308 l 356 313 l 226 311 l 225 217 l 228 85 l 361 83 l 547 89 l 556 81 z "},"ì":{"ha":360,"x_min":40,"x_max":322,"o":"m 94 1024 q 322 822 186 933 l 292 778 l 279 776 q 43 953 181 846 l 40 964 l 82 1022 l 94 1024 m 229 0 l 125 0 l 129 208 l 125 692 l 231 692 l 225 217 l 229 0 z "},"í":{"ha":360,"x_min":79,"x_max":361,"o":"m 228 0 l 125 0 l 129 208 l 125 692 l 229 692 l 225 217 l 228 0 m 361 964 l 358 953 q 122 776 221 846 l 110 778 l 79 822 q 307 1024 215 933 l 319 1022 l 361 964 z "},"î":{"ha":360,"x_min":-3,"x_max":368,"o":"m -3 826 q 167 1013 78 907 l 200 1013 q 368 826 286 906 l 338 782 l 325 782 q 183 926 239 864 q 42 782 131 868 l 28 782 l -3 826 m 229 0 l 125 0 l 129 208 l 125 692 l 231 692 l 225 217 l 229 0 z "},"ï":{"ha":360,"x_min":33,"x_max":332,"o":"m 96 960 q 139 944 124 960 q 154 901 154 929 q 138 854 154 872 q 92 836 121 836 q 49 853 64 836 q 33 897 33 869 q 50 942 33 925 q 96 960 67 960 m 274 960 q 317 944 301 960 q 332 901 332 929 q 315 854 332 872 q 269 836 299 836 q 226 853 242 836 q 211 897 211 869 q 228 942 211 925 q 274 960 244 960 m 229 0 l 125 0 l 129 208 l 125 692 l 231 692 l 225 217 l 229 0 z "},"ð":{"ha":811,"x_min":24,"x_max":746,"o":"m 418 697 q 661 612 576 697 q 746 369 746 526 q 653 91 746 189 q 390 -7 561 -7 q 147 0 258 -7 l 151 208 l 150 304 l 31 304 l 24 314 l 28 379 l 150 379 l 147 692 l 418 697 m 407 78 q 639 349 639 78 q 411 610 639 610 q 251 604 343 610 l 249 379 l 426 379 l 432 369 l 428 304 l 249 304 l 247 217 l 250 86 q 407 78 342 78 z "},"ñ":{"ha":828,"x_min":125,"x_max":703,"o":"m 700 0 l 589 0 l 225 528 l 218 528 l 217 231 l 219 0 l 125 0 l 129 204 l 126 692 l 236 692 l 600 164 l 610 164 l 607 688 l 703 694 l 699 207 l 700 0 m 631 936 l 546 840 l 532 836 q 415 864 501 839 q 317 888 336 888 q 296 878 307 888 q 261 846 285 869 l 239 822 l 226 822 l 193 858 l 193 868 l 278 964 l 292 968 q 407 940 325 965 q 507 918 493 918 q 563 958 525 918 l 586 982 l 597 982 l 631 947 l 631 936 z "},"ò":{"ha":774,"x_min":63,"x_max":711,"o":"m 301 1024 q 529 822 393 933 l 499 778 l 486 776 q 250 953 388 846 l 247 964 l 289 1022 l 301 1024 m 397 700 q 630 611 549 700 q 711 360 711 522 q 624 87 711 183 q 376 -10 538 -10 q 144 81 226 -10 q 63 340 63 172 q 149 606 63 513 q 397 700 236 700 m 388 613 q 224 550 278 613 q 171 353 171 488 q 224 143 171 208 q 385 78 276 78 q 550 142 496 78 q 604 342 604 206 q 551 547 604 482 q 388 613 497 613 z "},"ó":{"ha":774,"x_min":63,"x_max":711,"o":"m 397 700 q 630 611 549 700 q 711 360 711 522 q 624 87 711 183 q 376 -10 538 -10 q 144 81 226 -10 q 63 340 63 172 q 150 606 63 513 q 397 700 238 700 m 388 613 q 224 550 278 613 q 171 353 171 488 q 224 143 171 208 q 385 78 276 78 q 550 142 496 78 q 604 342 604 206 q 551 547 604 482 q 388 613 497 613 m 568 964 l 565 953 q 329 776 428 846 l 317 778 l 286 822 q 514 1024 422 933 l 526 1022 l 568 964 z "},"ô":{"ha":774,"x_min":63,"x_max":711,"o":"m 204 826 q 374 1013 285 907 l 407 1013 q 575 826 493 906 l 544 782 l 532 782 q 390 926 446 864 q 249 782 338 868 l 235 782 l 204 826 m 397 700 q 630 611 549 700 q 711 360 711 522 q 624 87 711 183 q 376 -10 538 -10 q 144 81 226 -10 q 63 340 63 172 q 149 606 63 513 q 397 700 236 700 m 388 613 q 224 550 278 613 q 171 353 171 488 q 224 143 171 208 q 385 78 276 78 q 550 142 496 78 q 604 342 604 206 q 551 547 604 482 q 388 613 497 613 z "},"õ":{"ha":774,"x_min":63,"x_max":711,"o":"m 397 700 q 630 611 549 700 q 711 360 711 522 q 624 87 711 183 q 376 -10 538 -10 q 144 81 226 -10 q 63 340 63 172 q 150 606 63 513 q 397 700 238 700 m 388 613 q 224 550 278 613 q 171 353 171 488 q 224 143 171 208 q 385 78 276 78 q 550 142 496 78 q 604 342 604 206 q 551 547 604 482 q 388 613 497 613 m 607 936 l 522 840 l 508 836 q 392 864 478 839 q 293 888 313 888 q 272 878 283 888 q 238 846 261 869 l 215 822 l 203 822 l 169 858 l 169 868 l 254 964 l 268 968 q 383 940 301 965 q 483 918 469 918 q 539 958 501 918 l 563 982 l 574 982 l 607 947 l 607 936 z "},"ö":{"ha":774,"x_min":63,"x_max":711,"o":"m 283 960 q 326 944 311 960 q 342 901 342 929 q 325 854 342 872 q 279 836 308 836 q 236 853 251 836 q 221 897 221 869 q 238 942 221 925 q 283 960 254 960 m 501 960 q 544 944 529 960 q 560 901 560 929 q 543 854 560 872 q 497 836 526 836 q 454 853 469 836 q 439 897 439 869 q 456 942 439 925 q 501 960 472 960 m 397 700 q 630 611 549 700 q 711 360 711 522 q 624 87 711 183 q 376 -10 538 -10 q 144 81 226 -10 q 63 340 63 172 q 149 606 63 513 q 397 700 236 700 m 388 613 q 224 550 278 613 q 171 353 171 488 q 224 143 171 208 q 385 78 276 78 q 550 142 496 78 q 604 342 604 206 q 551 547 604 482 q 388 613 497 613 z "},"÷":{"ha":667,"x_min":57,"x_max":638,"o":"m 631 329 l 65 329 l 57 338 l 64 407 l 629 407 l 638 399 l 631 329 m 349 183 q 390 167 375 183 q 406 124 406 152 q 390 78 406 95 q 345 62 373 62 q 287 122 287 62 q 304 166 287 149 q 349 183 320 183 m 349 640 q 390 624 375 640 q 406 581 406 609 q 390 535 406 552 q 345 518 373 518 q 287 579 287 518 q 304 623 287 606 q 349 640 320 640 z "},"ø":{"ha":774,"x_min":63,"x_max":711,"o":"m 582 651 q 711 360 711 569 q 624 87 711 183 q 376 -10 538 -10 q 261 7 311 -10 l 188 -139 l 126 -110 l 122 -99 l 192 40 q 63 340 63 129 q 149 606 63 513 q 397 700 236 700 q 514 683 463 700 l 567 789 l 624 761 l 631 749 l 582 651 m 171 353 q 236 129 171 194 l 472 600 q 388 613 435 613 q 224 549 278 613 q 171 353 171 486 m 385 78 q 550 142 496 78 q 604 342 604 206 q 538 563 604 497 l 301 89 q 385 78 342 78 z "},"ù":{"ha":763,"x_min":104,"x_max":663,"o":"m 299 1024 q 526 822 390 933 l 496 778 l 483 776 q 247 953 385 846 l 244 964 l 286 1022 l 299 1024 m 658 240 q 588 57 661 122 q 378 -8 514 -8 q 173 56 243 -8 q 106 240 103 121 l 107 346 l 104 692 l 210 692 l 203 257 q 382 81 200 81 q 561 257 564 81 l 558 692 l 663 692 l 658 340 l 658 240 z "},"ú":{"ha":763,"x_min":106,"x_max":664,"o":"m 660 240 q 588 57 661 122 q 379 -8 515 -8 q 174 56 244 -8 q 106 240 103 121 l 107 346 l 106 692 l 210 692 l 204 257 q 383 81 201 81 q 563 257 565 81 l 558 692 l 664 692 l 660 340 l 660 240 m 564 964 l 561 953 q 325 776 424 846 l 313 778 l 282 822 q 510 1024 418 933 l 522 1022 l 564 964 z "},"û":{"ha":763,"x_min":104,"x_max":663,"o":"m 201 826 q 371 1013 281 906 l 404 1013 q 572 826 490 906 l 542 782 l 529 782 q 388 926 443 864 q 246 782 335 868 l 232 782 l 201 826 m 658 240 q 588 57 661 122 q 378 -8 514 -8 q 173 56 243 -8 q 106 240 103 121 l 107 346 l 104 692 l 210 692 l 203 257 q 382 81 200 81 q 561 257 564 81 l 558 692 l 663 692 l 658 340 l 658 240 z "},"ü":{"ha":763,"x_min":104,"x_max":663,"o":"m 281 960 q 324 944 308 960 q 339 901 339 929 q 322 854 339 872 q 276 836 306 836 q 233 853 249 836 q 218 897 218 869 q 235 942 218 925 q 281 960 251 960 m 499 960 q 542 944 526 960 q 557 901 557 929 q 540 854 557 872 q 494 836 524 836 q 451 853 467 836 q 436 897 436 869 q 453 942 436 925 q 499 960 469 960 m 658 240 q 588 57 661 122 q 378 -8 514 -8 q 173 56 243 -8 q 106 240 103 121 l 107 346 l 104 692 l 210 692 l 203 257 q 382 81 200 81 q 561 257 564 81 l 558 692 l 663 692 l 658 340 l 658 240 z "},"ý":{"ha":657,"x_min":35,"x_max":622,"o":"m 369 0 l 265 0 l 269 199 l 269 240 l 35 692 l 147 692 l 163 651 l 317 354 l 324 354 l 493 647 l 513 692 l 622 692 l 367 242 l 365 199 l 369 0 m 514 964 l 511 953 q 275 776 374 846 l 263 778 l 232 822 q 460 1024 368 933 l 472 1022 l 514 964 z "},"þ":{"ha":654,"x_min":125,"x_max":593,"o":"m 365 578 q 535 524 476 578 q 593 369 593 471 q 520 188 593 251 q 313 124 447 124 l 228 122 l 229 0 l 125 0 l 129 208 l 125 692 l 231 692 l 229 576 l 365 578 m 346 204 q 483 361 483 231 q 336 496 483 489 l 229 494 l 226 217 l 226 208 l 346 204 z "},"ÿ":{"ha":657,"x_min":35,"x_max":621,"o":"m 225 836 q 182 853 197 836 q 167 897 167 869 q 183 942 167 925 q 229 960 200 960 q 272 944 257 960 q 288 901 288 929 q 271 854 288 872 q 225 836 254 836 m 443 836 q 400 853 415 836 q 385 897 385 869 q 401 942 385 925 q 447 960 418 960 q 490 944 475 960 q 506 901 506 929 q 489 854 506 872 q 443 836 472 836 m 369 0 l 265 0 l 269 199 l 269 239 l 35 692 l 147 692 l 161 651 l 315 354 l 324 354 l 493 647 l 513 692 l 621 692 l 367 242 l 365 199 l 369 0 z "},"Ā":{"ha":803,"x_min":19,"x_max":772,"o":"m 658 0 l 638 89 l 588 242 l 388 246 l 207 242 l 153 94 l 131 0 l 19 0 l 346 890 l 475 890 l 772 0 l 658 0 m 413 775 l 403 775 l 242 336 l 397 333 l 557 336 l 413 775 m 600 1061 l 207 1061 l 199 1069 l 206 1133 l 599 1133 l 607 1126 l 600 1061 z "},"ā":{"ha":711,"x_min":35,"x_max":664,"o":"m 560 0 l 543 75 l 507 178 l 342 179 l 194 178 l 157 81 l 138 0 l 35 0 l 301 692 l 421 692 l 664 0 l 560 0 m 363 590 l 354 590 l 228 263 l 350 261 l 478 263 l 363 590 m 560 864 l 167 864 l 158 872 l 165 936 l 558 936 l 567 929 l 560 864 z "},"Ă":{"ha":803,"x_min":19,"x_max":772,"o":"m 658 0 l 638 89 l 588 242 l 388 246 l 207 242 l 153 94 l 131 0 l 19 0 l 346 890 l 475 890 l 772 0 l 658 0 m 413 775 l 403 775 l 242 336 l 397 333 l 557 336 l 413 775 m 579 1131 q 511 1038 557 1071 q 400 1006 465 1006 q 292 1038 336 1006 q 228 1131 247 1069 l 258 1169 l 275 1169 q 404 1085 306 1085 q 531 1169 497 1085 l 547 1169 l 579 1131 z "},"ă":{"ha":711,"x_min":35,"x_max":664,"o":"m 560 0 l 543 75 l 507 178 l 342 179 l 194 178 l 157 81 l 138 0 l 35 0 l 301 692 l 421 692 l 664 0 l 560 0 m 363 590 l 354 590 l 228 263 l 350 261 l 478 263 l 363 590 m 540 947 q 361 788 503 788 q 189 947 221 788 l 219 988 l 236 988 q 364 867 263 867 q 492 988 465 867 l 508 988 l 540 947 z "},"Ą":{"ha":803,"x_min":19,"x_max":849,"o":"m 849 -200 q 710 -274 782 -274 q 632 -244 661 -274 q 603 -165 603 -215 q 619 -97 603 -133 q 678 0 635 -61 l 658 0 l 639 89 l 589 242 l 388 246 l 207 242 l 153 94 l 131 0 l 19 0 l 347 890 l 476 890 l 774 0 l 746 0 q 676 -150 676 -103 q 724 -199 676 -199 q 826 -147 775 -199 l 833 -147 l 849 -200 m 413 775 l 403 775 l 242 336 l 397 333 l 557 336 l 413 775 z "},"ą":{"ha":711,"x_min":35,"x_max":724,"o":"m 724 -199 q 604 -272 665 -272 q 531 -245 560 -272 q 501 -171 501 -218 q 518 -103 501 -142 q 576 0 535 -65 l 560 0 l 543 75 l 507 178 l 342 179 l 194 178 l 157 81 l 138 0 l 35 0 l 301 692 l 421 692 l 665 0 l 647 0 q 576 -150 576 -99 q 618 -196 576 -196 q 701 -137 663 -196 l 708 -137 l 724 -199 m 363 590 l 354 590 l 228 263 l 350 261 l 478 263 l 363 590 z "},"Ć":{"ha":722,"x_min":53,"x_max":690,"o":"m 447 897 q 690 831 588 897 l 668 729 l 656 726 q 442 804 563 804 q 239 713 310 804 q 168 447 168 622 q 239 178 168 271 q 439 85 310 85 q 671 169 567 85 l 685 163 l 675 57 q 429 -10 554 -10 q 151 106 250 -10 q 53 438 53 222 q 156 778 53 658 q 447 897 258 897 m 626 1131 l 624 1119 q 353 1000 500 1063 l 339 1006 l 319 1056 q 586 1199 463 1126 l 599 1196 l 626 1131 z "},"ć":{"ha":640,"x_min":63,"x_max":594,"o":"m 394 699 q 594 650 510 699 l 575 554 l 563 550 q 383 613 489 613 q 172 350 172 613 q 226 149 172 218 q 383 79 281 79 q 575 143 489 79 l 588 139 l 578 43 q 379 -8 483 -8 q 144 83 226 -8 q 63 342 63 174 q 149 606 63 513 q 394 699 236 699 m 547 964 l 544 953 q 308 776 407 846 l 296 778 l 265 822 q 493 1024 401 933 l 506 1022 l 547 964 z "},"Ĉ":{"ha":722,"x_min":53,"x_max":690,"o":"m 258 1065 q 419 1192 351 1129 l 451 1192 q 614 1065 514 1136 l 592 1018 l 579 1018 q 436 1110 501 1065 q 294 1018 382 1072 l 281 1018 l 258 1065 m 447 897 q 690 831 588 897 l 668 729 l 656 726 q 442 804 563 804 q 239 713 310 804 q 168 447 168 622 q 239 178 168 271 q 439 85 310 85 q 671 169 567 85 l 685 163 l 675 57 q 429 -10 554 -10 q 151 106 250 -10 q 53 438 53 222 q 156 778 53 658 q 447 897 258 897 z "},"ĉ":{"ha":640,"x_min":63,"x_max":594,"o":"m 182 826 q 351 1013 263 907 l 385 1013 q 553 826 471 906 l 522 782 l 510 782 q 368 926 424 864 q 226 782 315 868 l 213 782 l 182 826 m 394 699 q 594 650 510 699 l 575 554 l 563 550 q 383 613 489 613 q 226 547 281 613 q 171 350 171 481 q 226 149 171 218 q 383 79 281 79 q 575 143 486 79 l 588 139 l 578 43 q 379 -8 483 -8 q 144 83 226 -8 q 63 342 63 174 q 149 606 63 513 q 394 699 236 699 z "},"Ċ":{"ha":722,"x_min":53,"x_max":690,"o":"m 447 897 q 690 831 588 897 l 668 729 l 656 726 q 442 804 563 804 q 239 713 310 804 q 168 447 168 622 q 239 178 168 271 q 439 85 310 85 q 671 169 567 85 l 685 163 l 675 57 q 429 -10 554 -10 q 151 106 250 -10 q 53 438 53 222 q 156 778 53 658 q 447 897 258 897 m 439 1174 q 483 1157 467 1174 q 500 1111 500 1140 q 483 1063 500 1081 q 435 1044 465 1044 q 374 1108 374 1044 q 391 1156 374 1138 q 439 1174 408 1174 z "},"ċ":{"ha":640,"x_min":63,"x_max":594,"o":"m 369 976 q 414 960 397 976 q 431 915 431 943 q 413 865 431 883 q 365 847 396 847 q 304 911 304 847 q 322 958 304 940 q 369 976 339 976 m 394 699 q 594 650 510 699 l 575 554 l 563 550 q 383 613 489 613 q 226 547 281 613 q 171 350 171 481 q 226 149 171 218 q 383 79 281 79 q 575 143 486 79 l 588 139 l 578 43 q 379 -8 483 -8 q 144 83 226 -8 q 63 342 63 174 q 149 606 63 513 q 394 699 236 699 z "},"Č":{"ha":722,"x_min":53,"x_max":690,"o":"m 447 897 q 690 831 588 897 l 668 729 l 656 726 q 442 804 563 804 q 239 713 310 804 q 168 447 168 622 q 239 178 168 271 q 439 85 310 85 q 671 169 567 85 l 685 163 l 675 57 q 429 -10 554 -10 q 151 106 250 -10 q 53 438 53 222 q 156 778 53 658 q 447 897 258 897 m 615 1131 q 454 1004 522 1067 l 422 1004 q 260 1131 360 1060 l 282 1178 l 294 1178 q 438 1086 372 1131 q 579 1178 492 1124 l 593 1178 l 615 1131 z "},"č":{"ha":640,"x_min":63,"x_max":594,"o":"m 394 699 q 594 650 510 699 l 575 554 l 563 550 q 383 613 489 613 q 172 350 172 613 q 226 149 172 218 q 383 79 281 79 q 575 143 489 79 l 588 139 l 578 43 q 379 -8 483 -8 q 144 83 226 -8 q 63 342 63 174 q 149 606 63 513 q 394 699 236 699 m 553 967 q 383 781 474 888 l 350 781 q 182 967 264 888 l 213 1011 l 225 1011 q 367 867 311 929 q 508 1011 419 925 l 522 1011 l 553 967 z "},"Ď":{"ha":897,"x_min":129,"x_max":844,"o":"m 451 896 q 743 788 642 896 q 844 476 844 679 q 735 117 844 242 q 419 -8 625 -8 q 131 0 283 -8 l 129 0 l 136 268 l 129 890 l 131 890 l 451 896 m 438 85 q 655 177 579 85 q 731 453 731 269 q 443 803 731 803 q 242 797 356 803 l 236 278 l 240 93 q 438 85 338 85 m 615 1131 q 454 1004 522 1067 l 422 1004 q 260 1131 360 1060 l 282 1178 l 294 1178 q 438 1086 372 1131 q 579 1178 492 1124 l 593 1178 l 615 1131 z "},"ď":{"ha":786,"x_min":125,"x_max":722,"o":"m 396 697 q 638 613 554 697 q 722 369 722 528 q 631 90 722 188 q 368 -7 539 -7 q 125 0 236 -7 l 129 208 l 125 692 l 396 697 m 385 78 q 556 145 496 78 q 617 349 617 213 q 388 610 617 610 q 228 604 319 610 l 225 217 l 226 86 q 385 78 318 78 m 557 967 q 388 781 478 888 l 354 781 q 186 967 268 888 l 217 1011 l 229 1011 q 371 867 315 929 q 513 1011 424 925 l 526 1011 l 557 967 z "},"Đ":{"ha":897,"x_min":129,"x_max":844,"o":"m 451 896 q 743 788 642 896 q 844 476 844 679 q 735 117 844 242 q 419 -8 625 -8 q 131 0 283 -8 l 129 0 l 136 268 l 129 890 l 131 890 l 451 896 m 438 85 q 655 177 579 85 q 731 453 731 269 q 443 803 731 803 q 242 797 356 803 l 236 278 l 240 93 q 438 85 338 85 m 633 1061 l 240 1061 l 232 1069 l 239 1133 l 632 1133 l 640 1126 l 633 1061 z "},"đ":{"ha":786,"x_min":125,"x_max":722,"o":"m 396 697 q 638 613 554 697 q 722 369 722 528 q 631 90 722 188 q 368 -7 539 -7 q 125 0 236 -7 l 129 208 l 125 692 l 396 697 m 385 78 q 556 145 496 78 q 617 349 617 213 q 388 610 617 610 q 228 604 319 610 l 225 217 l 226 86 q 385 78 318 78 m 568 864 l 175 864 l 167 872 l 174 936 l 567 936 l 575 929 l 568 864 z "},"Ē":{"ha":669,"x_min":129,"x_max":638,"o":"m 629 0 l 129 0 l 136 268 l 129 890 l 631 890 l 636 879 l 628 793 l 418 797 l 242 794 l 239 503 l 406 500 l 553 504 l 561 494 l 551 408 l 396 411 l 238 410 l 236 278 l 240 93 l 417 92 l 631 97 l 638 86 l 629 0 m 578 1061 l 185 1061 l 176 1069 l 183 1133 l 576 1133 l 585 1126 l 578 1061 z "},"ē":{"ha":604,"x_min":125,"x_max":556,"o":"m 556 81 l 546 0 l 125 0 l 129 208 l 125 692 l 549 692 l 556 683 l 547 603 l 372 608 l 228 607 l 226 397 l 364 396 l 485 400 l 492 390 l 483 308 l 356 313 l 226 311 l 225 217 l 226 85 l 363 83 l 547 89 l 556 81 m 533 864 l 140 864 l 132 872 l 139 936 l 532 936 l 540 929 l 533 864 z "},"Ĕ":{"ha":669,"x_min":129,"x_max":638,"o":"m 629 0 l 129 0 l 136 268 l 129 890 l 631 890 l 636 879 l 628 793 l 418 797 l 242 794 l 239 503 l 406 500 l 553 504 l 561 494 l 551 408 l 396 411 l 238 410 l 236 278 l 240 93 l 417 92 l 631 97 l 638 86 l 629 0 m 557 1131 q 489 1038 535 1071 q 378 1006 443 1006 q 269 1038 314 1006 q 206 1131 225 1069 l 236 1169 l 253 1169 q 382 1085 283 1085 q 508 1169 475 1085 l 525 1169 l 557 1131 z "},"ĕ":{"ha":604,"x_min":125,"x_max":556,"o":"m 556 81 l 546 0 l 125 0 l 129 208 l 125 692 l 549 692 l 556 683 l 547 603 l 372 608 l 228 607 l 226 397 l 364 396 l 485 400 l 492 390 l 483 308 l 356 313 l 226 311 l 225 217 l 226 85 l 363 83 l 547 89 l 556 81 m 514 947 q 335 788 476 788 q 163 947 194 788 l 193 988 l 210 988 q 338 867 236 867 q 465 988 439 867 l 482 988 l 514 947 z "},"Ė":{"ha":669,"x_min":129,"x_max":638,"o":"m 379 1044 q 318 1108 318 1044 q 335 1156 318 1138 q 383 1174 353 1174 q 428 1157 411 1174 q 444 1113 444 1140 q 427 1063 444 1081 q 379 1044 410 1044 m 638 86 l 629 0 l 129 0 l 136 268 l 129 890 l 631 890 l 638 879 l 628 793 l 418 797 l 242 794 l 239 503 l 406 500 l 553 504 l 560 494 l 551 408 l 396 411 l 238 410 l 236 278 l 240 93 l 418 92 l 631 97 l 638 86 z "},"ė":{"ha":604,"x_min":125,"x_max":556,"o":"m 335 847 q 274 911 274 847 q 291 958 274 940 q 339 976 308 976 q 383 960 367 976 q 400 915 400 943 q 383 865 400 883 q 335 847 365 847 m 556 81 l 546 0 l 125 0 l 129 208 l 125 692 l 549 692 l 556 683 l 547 603 l 372 608 l 229 607 l 228 397 l 365 396 l 486 400 l 492 390 l 485 308 l 356 313 l 226 311 l 225 217 l 228 85 l 361 83 l 547 89 l 556 81 z "},"Ę":{"ha":669,"x_min":129,"x_max":647,"o":"m 647 -201 q 511 -274 578 -274 q 431 -243 461 -274 q 401 -162 401 -212 q 436 -61 401 -110 l 478 0 l 129 0 l 136 268 l 129 890 l 631 890 l 638 879 l 628 793 l 418 797 l 242 794 l 239 503 l 406 500 l 553 504 l 560 494 l 551 408 l 396 411 l 238 410 l 236 278 l 240 93 l 418 92 l 631 97 l 638 86 l 629 0 l 547 0 l 499 -74 q 474 -143 474 -114 q 488 -183 474 -168 q 529 -199 503 -199 q 625 -146 576 -199 l 632 -146 l 647 -201 z "},"ę":{"ha":604,"x_min":125,"x_max":558,"o":"m 558 -204 q 422 -276 489 -276 q 342 -246 372 -276 q 313 -165 313 -215 q 347 -64 313 -112 l 392 0 l 125 0 l 129 208 l 125 692 l 549 692 l 556 683 l 547 603 l 372 608 l 229 607 l 228 397 l 365 396 l 486 400 l 492 390 l 485 308 l 356 313 l 226 311 l 225 217 l 228 85 l 361 83 l 547 89 l 556 81 l 546 0 l 460 0 l 410 -76 q 385 -146 385 -115 q 399 -186 385 -171 q 440 -201 414 -201 q 536 -149 488 -201 l 543 -149 l 558 -204 z "},"Ě":{"ha":669,"x_min":129,"x_max":638,"o":"m 629 0 l 129 0 l 136 268 l 129 890 l 631 890 l 636 879 l 628 793 l 418 797 l 242 794 l 239 503 l 406 500 l 553 504 l 561 494 l 551 408 l 396 411 l 238 410 l 236 278 l 240 93 l 417 92 l 631 97 l 638 86 l 629 0 m 560 1131 q 399 1004 467 1067 l 367 1004 q 204 1131 304 1060 l 226 1178 l 239 1178 q 382 1086 317 1131 q 524 1178 436 1124 l 538 1178 l 560 1131 z "},"ě":{"ha":604,"x_min":125,"x_max":556,"o":"m 556 81 l 546 0 l 125 0 l 129 208 l 125 692 l 549 692 l 556 683 l 547 603 l 372 608 l 228 607 l 226 397 l 364 396 l 485 400 l 492 390 l 483 308 l 356 313 l 226 311 l 225 217 l 226 85 l 363 83 l 547 89 l 556 81 m 522 967 q 353 781 443 888 l 319 781 q 151 967 233 888 l 182 1011 l 194 1011 q 336 867 281 929 q 478 1011 389 925 l 492 1011 l 522 967 z "},"Ĝ":{"ha":833,"x_min":53,"x_max":749,"o":"m 275 1065 q 436 1192 368 1129 l 468 1192 q 631 1065 531 1136 l 608 1018 l 596 1018 q 453 1110 518 1065 q 311 1018 399 1072 l 297 1018 l 275 1065 m 486 897 q 749 835 625 897 l 725 729 l 711 726 q 588 786 644 768 q 469 804 532 804 q 168 432 168 804 q 238 169 168 253 q 456 85 308 85 q 636 118 525 85 l 640 222 l 638 349 l 742 357 l 739 238 l 744 43 q 450 -10 575 -10 q 152 103 251 -10 q 53 428 53 215 q 165 777 53 657 q 486 897 278 897 z "},"ĝ":{"ha":731,"x_min":63,"x_max":642,"o":"m 203 826 q 372 1013 283 906 l 406 1013 q 574 826 492 906 l 543 782 l 531 782 q 389 926 444 864 q 247 782 336 868 l 233 782 l 203 826 m 424 699 q 642 651 533 699 l 607 551 l 596 551 q 501 598 544 585 q 407 611 458 611 q 230 544 289 611 q 171 336 171 478 q 226 140 171 201 q 397 79 281 79 q 543 108 464 79 l 543 178 l 542 276 l 638 283 l 636 193 l 636 33 q 394 -8 497 -8 q 147 80 231 -8 q 63 332 63 168 q 158 604 63 510 q 424 699 253 699 z "},"Ğ":{"ha":833,"x_min":53,"x_max":747,"o":"m 486 897 q 747 835 626 897 l 725 729 l 711 726 q 588 786 644 768 q 469 804 532 804 q 168 432 168 804 q 238 169 168 253 q 456 85 308 85 q 636 118 525 85 l 639 222 l 638 349 l 742 357 l 739 238 l 744 43 q 450 -10 575 -10 q 152 103 251 -10 q 53 428 53 215 q 165 777 53 657 q 486 897 278 897 m 629 1131 q 561 1038 607 1071 q 450 1006 515 1006 q 342 1038 386 1006 q 278 1131 297 1069 l 308 1169 l 325 1169 q 454 1085 356 1085 q 581 1169 547 1085 l 597 1169 l 629 1131 z "},"ğ":{"ha":731,"x_min":63,"x_max":643,"o":"m 425 699 q 643 651 533 699 l 608 551 l 596 551 q 501 598 544 585 q 408 611 458 611 q 231 544 290 611 q 172 336 172 478 q 226 140 172 200 q 399 79 281 79 q 543 108 464 79 l 543 178 l 542 276 l 638 283 l 638 33 q 394 -8 497 -8 q 147 80 231 -8 q 63 332 63 168 q 158 604 63 510 q 425 699 253 699 m 565 947 q 386 788 528 788 q 214 947 246 788 l 244 988 l 261 988 q 389 867 288 867 q 517 988 490 867 l 533 988 l 565 947 z "},"Ġ":{"ha":833,"x_min":53,"x_max":747,"o":"m 486 897 q 747 835 626 897 l 725 729 l 711 726 q 588 786 644 768 q 469 804 532 804 q 168 432 168 804 q 238 169 168 253 q 456 85 308 85 q 636 118 525 85 l 639 222 l 638 349 l 742 357 l 739 238 l 744 43 q 450 -10 575 -10 q 152 103 251 -10 q 53 428 53 215 q 165 777 53 657 q 486 897 278 897 m 456 1174 q 500 1157 483 1174 q 517 1111 517 1140 q 499 1063 517 1081 q 451 1044 482 1044 q 390 1108 390 1044 q 408 1156 390 1138 q 456 1174 425 1174 z "},"ġ":{"ha":731,"x_min":63,"x_max":642,"o":"m 390 976 q 435 960 418 976 q 451 915 451 943 q 434 865 451 883 q 386 847 417 847 q 325 911 325 847 q 342 958 325 940 q 390 976 360 976 m 424 699 q 642 651 533 699 l 607 551 l 596 551 q 501 598 544 585 q 407 611 458 611 q 230 544 289 611 q 171 336 171 478 q 226 140 171 201 q 397 79 281 79 q 543 108 464 79 l 543 178 l 542 276 l 638 283 l 636 193 l 636 33 q 394 -8 497 -8 q 147 80 231 -8 q 63 332 63 168 q 158 604 63 510 q 424 699 253 699 z "},"Ģ":{"ha":833,"x_min":53,"x_max":749,"o":"m 486 897 q 749 835 625 897 l 725 729 l 711 726 q 588 786 644 768 q 469 804 532 804 q 168 432 168 804 q 238 169 168 253 q 456 85 308 85 q 636 118 525 85 l 640 222 l 638 349 l 742 357 l 739 238 l 744 43 q 450 -10 575 -10 q 152 103 251 -10 q 53 428 53 215 q 165 777 53 657 q 486 897 278 897 m 453 -76 q 507 -164 507 -114 q 385 -337 507 -249 l 349 -306 l 349 -297 q 421 -183 421 -240 q 381 -121 421 -150 l 381 -111 q 453 -76 414 -89 z "},"ģ":{"ha":731,"x_min":63,"x_max":642,"o":"m 424 699 q 642 651 533 699 l 607 551 l 596 551 q 501 598 544 585 q 407 611 458 611 q 230 544 289 611 q 171 336 171 478 q 226 140 171 201 q 397 79 281 79 q 543 108 464 79 l 543 178 l 542 276 l 638 283 l 636 193 l 636 33 q 394 -8 497 -8 q 147 80 231 -8 q 63 332 63 168 q 158 604 63 510 q 424 699 253 699 m 397 -76 q 451 -164 451 -114 q 329 -337 451 -249 l 293 -306 l 293 -297 q 365 -183 365 -240 q 325 -121 365 -150 l 325 -111 q 397 -76 358 -89 z "},"Ĥ":{"ha":949,"x_min":129,"x_max":819,"o":"m 292 1065 q 453 1192 385 1129 l 485 1192 q 647 1065 547 1136 l 625 1018 l 613 1018 q 469 1110 535 1065 q 328 1018 415 1072 l 314 1018 l 292 1065 m 818 0 l 706 0 l 713 268 l 711 401 l 464 406 l 238 401 l 236 278 l 242 0 l 129 0 l 136 268 l 129 890 l 243 890 l 239 499 l 474 494 l 710 499 l 706 890 l 819 890 l 813 278 l 818 0 z "},"ĥ":{"ha":828,"x_min":125,"x_max":706,"o":"m 231 826 q 400 1013 311 907 l 433 1013 q 601 826 519 906 l 571 782 l 558 782 q 417 926 472 864 q 275 782 364 868 l 261 782 l 231 826 m 704 0 l 600 0 l 604 208 l 603 303 l 226 301 l 225 217 l 229 0 l 125 0 l 129 208 l 125 692 l 231 692 l 226 394 l 414 393 l 603 394 l 600 692 l 706 692 l 700 217 l 704 0 z "},"Ħ":{"ha":993,"x_min":56,"x_max":938,"o":"m 833 278 l 838 0 l 725 0 l 733 268 l 732 401 l 483 406 l 257 401 l 256 278 l 261 0 l 149 0 l 156 268 l 151 664 l 63 664 l 56 669 l 61 742 l 150 742 l 149 890 l 263 890 l 261 742 l 726 742 l 725 890 l 839 890 l 838 742 l 931 742 l 938 733 l 932 664 l 838 664 l 833 278 m 260 664 l 258 499 l 492 494 l 731 499 l 728 664 l 260 664 z "},"ħ":{"ha":863,"x_min":61,"x_max":801,"o":"m 713 217 l 717 0 l 613 0 l 617 208 l 615 303 l 239 301 l 238 217 l 242 0 l 138 0 l 142 208 l 139 506 l 67 506 l 61 514 l 68 572 l 139 572 l 138 692 l 243 692 l 242 572 l 614 572 l 613 692 l 718 692 l 717 572 l 794 572 l 801 567 l 794 506 l 715 506 l 713 217 m 240 506 l 239 394 l 428 393 l 615 394 l 614 506 l 240 506 z "},"Ĩ":{"ha":372,"x_min":-7,"x_max":381,"o":"m 242 0 l 129 0 l 136 268 l 129 890 l 243 890 l 236 278 l 242 0 m 381 1129 l 303 1033 l 292 1029 q 188 1058 260 1035 q 107 1081 118 1081 q 86 1072 96 1081 q 57 1039 76 1063 l 38 1017 l 26 1017 l -7 1053 l -7 1063 l 69 1157 l 82 1163 q 183 1135 104 1158 q 265 1113 253 1113 q 314 1150 281 1113 l 336 1175 l 346 1175 l 381 1140 l 381 1129 z "},"ĩ":{"ha":360,"x_min":-11,"x_max":376,"o":"m 228 0 l 125 0 l 129 208 l 125 692 l 229 692 l 225 217 l 228 0 m 376 932 l 299 836 l 288 832 q 183 861 256 838 q 103 883 114 883 q 82 874 92 883 q 53 842 72 865 l 33 819 l 22 819 l -11 856 l -11 865 l 65 960 l 78 965 q 179 938 100 961 q 261 915 249 915 q 310 953 276 915 l 332 978 l 342 978 l 376 943 l 376 932 z "},"Ī":{"ha":372,"x_min":29,"x_max":343,"o":"m 242 0 l 129 0 l 136 268 l 129 890 l 243 890 l 236 278 l 242 0 m 338 1061 l 36 1061 l 29 1069 l 35 1133 l 336 1133 l 343 1126 l 338 1061 z "},"ī":{"ha":360,"x_min":25,"x_max":339,"o":"m 228 0 l 125 0 l 129 208 l 125 692 l 229 692 l 225 217 l 228 0 m 333 864 l 32 864 l 25 872 l 31 936 l 332 936 l 339 929 l 333 864 z "},"Ĭ":{"ha":372,"x_min":11,"x_max":363,"o":"m 242 0 l 129 0 l 136 268 l 129 890 l 243 890 l 236 278 l 242 0 m 363 1131 q 294 1038 340 1071 q 183 1006 249 1006 q 75 1038 119 1006 q 11 1131 31 1069 l 42 1169 l 58 1169 q 188 1085 89 1085 q 314 1169 281 1085 l 331 1169 l 363 1131 z "},"ĭ":{"ha":360,"x_min":8,"x_max":360,"o":"m 228 0 l 125 0 l 129 208 l 125 692 l 229 692 l 225 217 l 228 0 m 360 947 q 181 788 322 788 q 8 947 40 788 l 39 988 l 56 988 q 183 867 82 867 q 311 988 285 867 l 328 988 l 360 947 z "},"Į":{"ha":372,"x_min":50,"x_max":250,"o":"m 250 -231 q 153 -274 204 -274 q 78 -245 107 -274 q 50 -168 50 -217 q 67 -98 50 -135 q 128 0 83 -61 l 129 0 l 136 268 l 129 890 l 243 890 l 236 278 l 242 0 l 197 0 q 124 -151 124 -106 q 168 -199 124 -199 q 228 -165 199 -199 l 236 -165 l 250 -231 z "},"į":{"ha":360,"x_min":47,"x_max":247,"o":"m 247 -231 q 150 -274 201 -274 q 76 -245 104 -274 q 47 -168 47 -217 q 64 -98 47 -135 q 125 0 81 -61 l 129 208 l 125 692 l 231 692 l 225 217 l 229 0 l 194 0 q 121 -151 121 -106 q 165 -199 121 -199 q 225 -165 196 -199 l 233 -165 l 247 -231 z "},"İ":{"ha":372,"x_min":122,"x_max":249,"o":"m 188 1174 q 232 1157 215 1174 q 249 1113 249 1140 q 231 1063 249 1081 q 183 1044 214 1044 q 122 1108 122 1044 q 140 1156 122 1138 q 188 1174 157 1174 m 242 0 l 129 0 l 136 268 l 129 890 l 243 890 l 236 278 l 242 0 z "},"ı":{"ha":360,"x_min":125,"x_max":229,"o":"m 228 0 l 125 0 l 129 208 l 125 692 l 229 692 l 225 217 l 228 0 z "},"Ĳ":{"ha":803,"x_min":129,"x_max":674,"o":"m 242 0 l 129 0 l 136 268 l 129 890 l 243 890 l 236 278 l 242 0 m 671 164 q 618 -10 671 58 q 435 -142 565 -79 l 392 -79 l 392 -65 q 528 36 488 -14 q 568 163 568 86 l 568 283 l 563 800 l 392 799 l 381 808 l 388 890 l 674 890 l 668 294 l 671 164 z "},"ĳ":{"ha":761,"x_min":125,"x_max":633,"o":"m 228 0 l 125 0 l 129 208 l 125 692 l 229 692 l 225 217 l 228 0 m 629 229 l 629 129 q 591 -10 629 44 q 456 -111 553 -64 l 414 -57 l 414 -47 q 506 28 479 -11 q 533 128 533 68 l 533 217 l 531 613 l 399 611 l 392 619 l 399 692 l 633 692 l 629 229 z "},"Ĵ":{"ha":431,"x_min":7,"x_max":363,"o":"m 299 164 q 246 -10 299 58 q 63 -142 193 -79 l 19 -79 l 19 -65 q 156 36 115 -14 q 196 163 196 86 l 196 283 l 190 800 l 19 799 l 8 808 l 15 890 l 301 890 l 296 294 l 299 164 m 7 1065 q 168 1192 100 1129 l 200 1192 q 363 1065 263 1136 l 340 1018 l 328 1018 q 185 1110 250 1065 q 43 1018 131 1072 l 29 1018 l 7 1065 z "},"ĵ":{"ha":401,"x_min":-29,"x_max":342,"o":"m 269 229 l 269 129 q 231 -10 269 44 q 96 -111 193 -64 l 54 -57 l 54 -47 q 147 28 119 -11 q 174 128 174 68 l 174 217 l 171 613 l 39 611 l 32 619 l 39 692 l 274 692 l 269 229 m -29 826 q 140 1013 50 906 l 174 1013 q 342 826 260 906 l 311 782 l 299 782 q 157 926 213 864 q 15 782 104 868 l 1 782 l -29 826 z "},"Ķ":{"ha":758,"x_min":128,"x_max":760,"o":"m 240 0 l 128 0 l 135 268 l 128 890 l 242 890 l 235 278 l 240 0 m 374 472 q 760 24 558 233 l 758 10 q 653 -12 711 -4 l 639 -6 q 256 465 401 267 l 256 474 l 553 813 l 608 890 l 735 890 l 374 472 m 425 -76 q 479 -164 479 -114 q 357 -337 479 -249 l 321 -306 l 321 -297 q 393 -183 393 -240 q 353 -121 393 -150 l 353 -111 q 425 -76 386 -89 z "},"ķ":{"ha":681,"x_min":125,"x_max":663,"o":"m 350 368 q 663 24 497 188 l 660 8 q 560 -12 617 -6 l 543 -6 q 236 361 353 207 l 236 369 l 475 631 l 521 692 l 644 693 l 350 368 m 229 0 l 125 0 l 129 208 l 125 692 l 231 692 l 225 217 l 229 0 m 357 -76 q 411 -164 411 -114 q 289 -337 411 -249 l 253 -306 l 253 -297 q 325 -183 325 -240 q 285 -121 325 -150 l 285 -111 q 357 -76 318 -89 z "},"ĸ":{"ha":681,"x_min":125,"x_max":663,"o":"m 350 368 q 663 24 497 188 l 660 8 q 560 -12 617 -6 l 543 -6 q 236 361 365 194 l 236 369 l 475 631 l 521 692 l 644 693 l 350 368 m 228 0 l 125 0 l 129 208 l 125 692 l 229 692 l 225 217 l 228 0 z "},"Ĺ":{"ha":578,"x_min":125,"x_max":574,"o":"m 564 0 l 125 0 l 132 268 l 125 890 l 239 890 l 232 278 l 236 93 l 565 93 l 574 83 l 564 0 m 475 1131 l 472 1119 q 201 1000 349 1063 l 188 1006 l 168 1056 q 435 1199 311 1126 l 447 1196 l 475 1131 z "},"ĺ":{"ha":524,"x_min":122,"x_max":497,"o":"m 490 0 l 122 0 l 126 208 l 122 692 l 226 692 l 222 217 l 225 88 l 492 88 l 497 78 l 490 0 m 414 964 l 411 953 q 175 776 274 846 l 163 778 l 132 822 q 360 1024 268 933 l 372 1022 l 414 964 z "},"Ļ":{"ha":578,"x_min":125,"x_max":574,"o":"m 564 0 l 125 0 l 132 268 l 125 890 l 239 890 l 232 278 l 236 93 l 565 93 l 574 83 l 564 0 m 353 -76 q 407 -164 407 -114 q 285 -337 407 -249 l 249 -306 l 249 -297 q 321 -183 321 -240 q 281 -121 321 -150 l 281 -111 q 353 -76 314 -89 z "},"ļ":{"ha":524,"x_min":122,"x_max":497,"o":"m 489 0 l 122 0 l 126 208 l 122 692 l 228 692 l 222 217 l 225 88 l 490 88 l 497 78 l 489 0 m 293 -76 q 347 -164 347 -114 q 225 -337 347 -249 l 189 -306 l 189 -297 q 261 -183 261 -240 q 221 -121 261 -150 l 221 -111 q 293 -76 254 -89 z "},"Ľ":{"ha":589,"x_min":125,"x_max":574,"o":"m 564 0 l 125 0 l 132 268 l 125 890 l 239 890 l 232 278 l 236 93 l 565 93 l 574 83 l 564 0 m 433 561 l 440 804 l 519 810 l 528 800 l 496 561 l 443 553 l 433 561 z "},"ľ":{"ha":538,"x_min":122,"x_max":497,"o":"m 489 0 l 122 0 l 126 208 l 122 692 l 228 692 l 222 217 l 225 88 l 490 88 l 497 78 l 489 0 m 389 414 l 394 657 l 475 663 l 482 653 l 450 414 l 397 406 l 389 414 z "},"Ŀ":{"ha":578,"x_min":125,"x_max":574,"o":"m 564 0 l 125 0 l 132 268 l 125 890 l 239 890 l 232 278 l 236 93 l 565 93 l 574 83 l 564 0 m 471 590 q 515 574 499 590 q 532 528 532 557 q 515 479 532 497 q 467 461 497 461 q 406 525 406 461 q 423 572 406 554 q 471 590 440 590 z "},"ŀ":{"ha":538,"x_min":122,"x_max":497,"o":"m 489 0 l 122 0 l 126 208 l 122 692 l 228 692 l 222 217 l 225 88 l 490 88 l 497 78 l 489 0 m 396 336 q 335 400 335 336 q 352 447 335 429 q 400 465 369 465 q 444 449 428 465 q 461 404 461 432 q 444 354 461 372 q 396 336 426 336 z "},"Ł":{"ha":596,"x_min":14,"x_max":593,"o":"m 583 0 l 144 0 l 151 268 l 150 401 l 49 347 l 35 354 l 14 421 l 149 492 l 144 890 l 257 890 l 254 547 l 435 642 l 447 636 l 468 571 l 253 456 l 251 278 l 256 93 l 585 93 l 593 83 l 583 0 z "},"ł":{"ha":550,"x_min":29,"x_max":521,"o":"m 513 0 l 144 0 l 149 208 l 147 304 l 58 263 l 46 269 l 29 331 l 147 386 l 144 692 l 250 692 l 247 432 l 386 497 l 396 493 l 414 431 l 246 351 l 244 217 l 247 88 l 514 88 l 521 78 l 513 0 z "},"Ń":{"ha":949,"x_min":129,"x_max":821,"o":"m 815 0 l 699 0 l 239 713 l 231 713 l 229 293 l 233 0 l 129 0 l 136 264 l 132 890 l 249 890 l 707 178 l 717 178 l 715 885 l 821 893 l 813 261 l 815 0 m 663 1131 l 660 1119 q 389 1000 536 1063 l 375 1006 l 356 1056 q 622 1199 499 1126 l 635 1196 l 663 1131 z "},"ń":{"ha":828,"x_min":125,"x_max":703,"o":"m 700 0 l 589 0 l 225 528 l 218 528 l 217 231 l 219 0 l 125 0 l 129 204 l 126 692 l 236 692 l 600 164 l 610 164 l 607 688 l 703 694 l 699 207 l 700 0 m 592 964 l 589 953 q 353 776 451 846 l 340 778 l 310 822 q 538 1024 446 933 l 550 1022 l 592 964 z "},"Ņ":{"ha":949,"x_min":129,"x_max":821,"o":"m 815 0 l 699 0 l 240 713 l 231 713 l 229 293 l 235 0 l 129 0 l 136 264 l 132 890 l 249 890 l 708 178 l 717 178 l 715 885 l 821 893 l 813 261 l 815 0 m 496 -76 q 550 -164 550 -114 q 428 -337 550 -249 l 392 -306 l 392 -297 q 464 -183 464 -240 q 424 -121 464 -150 l 424 -111 q 496 -76 457 -89 z "},"ņ":{"ha":828,"x_min":125,"x_max":704,"o":"m 701 0 l 590 0 l 225 528 l 218 528 l 217 231 l 219 0 l 125 0 l 129 204 l 126 692 l 236 692 l 600 164 l 610 164 l 607 688 l 704 694 l 699 207 l 701 0 m 436 -76 q 490 -164 490 -114 q 368 -337 490 -249 l 332 -306 l 332 -297 q 404 -183 404 -240 q 364 -121 404 -150 l 364 -111 q 436 -76 397 -89 z "},"Ň":{"ha":949,"x_min":129,"x_max":821,"o":"m 815 0 l 699 0 l 239 713 l 231 713 l 229 293 l 233 0 l 129 0 l 136 264 l 132 890 l 249 890 l 707 178 l 717 178 l 715 885 l 821 893 l 813 261 l 815 0 m 650 1131 q 489 1004 557 1067 l 457 1004 q 294 1131 394 1060 l 317 1178 l 329 1178 q 472 1086 407 1131 q 614 1178 526 1124 l 628 1178 l 650 1131 z "},"ň":{"ha":828,"x_min":125,"x_max":703,"o":"m 700 0 l 589 0 l 225 528 l 218 528 l 217 231 l 219 0 l 125 0 l 129 204 l 126 692 l 236 692 l 600 164 l 610 164 l 607 688 l 703 694 l 699 207 l 700 0 m 597 967 q 428 781 518 888 l 394 781 q 226 967 308 888 l 257 1011 l 269 1011 q 411 867 356 929 q 553 1011 464 925 l 567 1011 l 597 967 z "},"Ŋ":{"ha":949,"x_min":129,"x_max":821,"o":"m 814 78 q 761 -93 814 -25 q 578 -222 708 -161 l 535 -161 l 535 -147 q 643 -75 604 -110 q 699 1 682 -40 l 239 713 l 231 713 l 229 293 l 233 0 l 129 0 l 136 264 l 132 890 l 249 890 l 707 179 l 717 179 l 715 885 l 821 893 l 813 261 l 814 78 z "},"ŋ":{"ha":828,"x_min":125,"x_max":703,"o":"m 700 53 q 666 -77 700 -26 q 547 -174 632 -128 l 511 -129 l 511 -117 q 599 -1 588 -65 l 225 528 l 217 528 l 217 231 l 219 0 l 125 0 l 131 204 l 126 692 l 236 692 l 600 175 l 610 175 l 607 688 l 703 694 l 699 207 l 700 53 z "},"Ō":{"ha":882,"x_min":53,"x_max":831,"o":"m 453 899 q 733 786 635 899 q 831 463 831 674 q 726 113 831 236 q 431 -11 622 -11 q 151 106 250 -11 q 53 438 53 222 q 156 779 53 660 q 453 899 260 899 m 443 807 q 167 451 167 807 q 438 82 167 82 q 715 443 715 82 q 648 717 715 628 q 443 807 581 807 m 640 1061 l 247 1061 l 239 1069 l 246 1133 l 639 1133 l 647 1126 l 640 1061 z "},"ō":{"ha":774,"x_min":63,"x_max":711,"o":"m 397 700 q 630 611 549 700 q 711 360 711 522 q 624 87 711 183 q 376 -10 538 -10 q 144 81 226 -10 q 63 340 63 172 q 150 606 63 513 q 397 700 238 700 m 388 613 q 224 550 278 613 q 171 353 171 488 q 224 143 171 208 q 385 78 276 78 q 550 142 496 78 q 604 342 604 206 q 551 547 604 482 q 388 613 497 613 m 586 864 l 193 864 l 185 872 l 192 936 l 585 936 l 593 929 l 586 864 z "},"Ŏ":{"ha":882,"x_min":53,"x_max":831,"o":"m 453 899 q 733 786 635 899 q 831 463 831 674 q 726 113 831 236 q 431 -11 622 -11 q 151 106 250 -11 q 53 438 53 222 q 156 779 53 660 q 453 899 260 899 m 443 807 q 167 451 167 807 q 438 82 167 82 q 715 443 715 82 q 648 717 715 628 q 443 807 581 807 m 619 1131 q 551 1038 597 1071 q 440 1006 506 1006 q 332 1038 376 1006 q 268 1131 288 1069 l 299 1169 l 315 1169 q 444 1085 346 1085 q 571 1169 538 1085 l 588 1169 l 619 1131 z "},"ŏ":{"ha":774,"x_min":63,"x_max":711,"o":"m 397 700 q 630 611 549 700 q 711 360 711 522 q 624 87 711 183 q 376 -10 538 -10 q 144 81 226 -10 q 63 340 63 172 q 150 606 63 513 q 397 700 238 700 m 388 613 q 224 550 278 613 q 171 353 171 488 q 224 143 171 208 q 385 78 276 78 q 550 142 496 78 q 604 342 604 206 q 551 547 604 482 q 388 613 497 613 m 567 947 q 388 788 529 788 q 215 947 247 788 l 246 988 l 263 988 q 390 867 289 867 q 518 988 492 867 l 535 988 l 567 947 z "},"Ő":{"ha":882,"x_min":53,"x_max":831,"o":"m 453 899 q 733 786 635 899 q 831 463 831 674 q 726 113 831 236 q 431 -11 622 -11 q 151 106 250 -11 q 53 438 53 222 q 156 779 53 660 q 453 899 260 899 m 443 807 q 167 451 167 807 q 438 82 167 82 q 715 443 715 82 q 648 717 715 628 q 443 807 581 807 m 297 1057 q 424 1199 396 1165 l 435 1199 l 485 1164 l 485 1151 q 321 999 435 1101 l 308 997 l 272 1031 l 297 1057 m 471 1031 q 622 1199 571 1139 l 632 1199 l 683 1164 l 683 1151 l 564 1039 l 519 999 l 507 997 l 471 1031 z "},"ő":{"ha":774,"x_min":63,"x_max":711,"o":"m 397 700 q 630 611 549 700 q 711 360 711 522 q 624 87 711 183 q 376 -10 538 -10 q 144 81 226 -10 q 63 340 63 172 q 150 606 63 513 q 397 700 238 700 m 388 613 q 224 550 278 613 q 171 353 171 488 q 224 143 171 208 q 385 78 276 78 q 550 142 496 78 q 604 342 604 206 q 551 547 604 482 q 388 613 497 613 m 217 810 q 404 1024 282 879 l 414 1025 l 465 988 l 465 976 q 265 778 378 885 l 253 776 l 217 810 m 413 810 q 600 1024 489 890 l 611 1025 l 663 988 l 661 976 q 461 778 574 885 l 450 776 l 413 810 z "},"Œ":{"ha":1182,"x_min":53,"x_max":1150,"o":"m 493 907 q 617 899 539 907 q 728 890 692 890 l 1142 890 l 1149 879 l 1140 793 l 940 797 l 753 797 l 751 503 l 910 500 l 1067 504 l 1074 494 l 1064 408 l 901 411 l 749 410 l 749 271 l 750 93 l 924 92 l 1142 97 l 1150 86 l 1140 0 l 728 0 q 597 -8 697 1 q 472 -17 514 -17 q 163 103 272 -17 q 53 439 53 222 q 168 784 53 661 q 493 907 283 907 m 485 814 q 247 721 328 814 q 167 446 167 628 q 483 75 167 75 q 614 89 563 75 q 649 138 649 100 l 643 744 q 624 796 643 790 q 567 808 608 803 q 485 814 526 814 z "},"œ":{"ha":1022,"x_min":63,"x_max":976,"o":"m 428 704 q 533 697 478 704 q 625 692 594 692 l 971 692 l 976 683 l 969 603 l 801 608 l 650 608 l 650 397 l 778 396 l 907 400 l 914 390 l 906 308 l 771 313 l 647 311 l 647 83 l 789 83 l 969 89 l 976 81 l 967 0 l 625 0 q 521 -6 593 0 q 410 -12 458 -12 q 153 80 243 -12 q 63 340 63 172 q 159 608 63 513 q 428 704 256 704 m 419 614 q 233 549 294 614 q 171 347 171 483 q 232 142 171 208 q 419 75 293 75 q 525 89 492 75 q 545 101 540 93 q 550 128 550 110 l 546 557 q 532 599 546 593 q 419 614 486 614 z "},"Ŕ":{"ha":771,"x_min":129,"x_max":722,"o":"m 492 360 q 722 26 583 208 l 721 13 q 618 -12 671 -7 l 603 -3 q 399 331 489 168 l 236 331 l 236 278 l 242 0 l 129 0 l 136 268 l 129 890 l 401 892 q 603 826 532 892 q 675 638 675 760 q 627 473 675 546 q 492 360 579 400 m 404 421 q 560 628 560 465 q 376 800 560 793 l 242 796 l 238 425 l 404 421 m 565 1161 l 563 1150 q 326 974 425 1043 l 314 975 l 283 1019 q 511 1221 419 1131 l 524 1219 l 565 1161 z "},"ŕ":{"ha":689,"x_min":125,"x_max":631,"o":"m 443 279 q 631 25 528 150 l 629 11 q 533 -10 571 -7 l 515 1 q 356 253 410 161 l 225 251 l 225 217 l 228 0 l 125 0 l 129 208 l 125 692 l 361 693 q 530 642 471 693 q 589 493 589 590 q 551 367 589 422 q 443 279 513 311 m 357 333 q 481 485 481 368 q 444 576 481 546 q 335 610 408 607 l 228 608 l 226 338 l 357 333 m 501 964 l 499 953 q 263 776 361 846 l 250 778 l 219 822 q 447 1024 356 933 l 460 1022 l 501 964 z "},"Ŗ":{"ha":771,"x_min":129,"x_max":722,"o":"m 492 358 q 722 26 603 181 l 721 13 q 618 -12 671 -7 l 603 -3 q 399 331 489 168 l 236 331 l 236 278 l 242 0 l 129 0 l 136 268 l 129 890 l 403 892 q 604 826 533 892 q 675 638 675 760 q 627 472 675 544 q 492 358 579 399 m 406 421 q 560 628 560 465 q 376 800 560 793 l 242 796 l 238 425 l 406 421 m 413 -76 q 467 -164 467 -114 q 344 -337 467 -249 l 308 -306 l 308 -297 q 381 -183 381 -240 q 340 -121 381 -150 l 340 -111 q 413 -76 374 -89 z "},"ŗ":{"ha":689,"x_min":125,"x_max":631,"o":"m 442 279 q 631 25 515 167 l 629 11 q 532 -10 572 -7 l 515 1 q 356 253 428 131 l 225 251 l 225 217 l 229 0 l 125 0 l 129 208 l 125 692 l 361 693 q 531 641 471 693 q 590 493 590 589 q 551 367 590 422 q 442 279 513 311 m 357 333 q 481 485 481 368 q 444 576 481 546 q 335 610 408 607 l 229 608 l 226 338 l 357 333 m 347 -76 q 401 -164 401 -114 q 279 -337 401 -249 l 243 -306 l 243 -297 q 315 -183 315 -240 q 275 -121 315 -150 l 275 -111 q 347 -76 308 -89 z "},"Ř":{"ha":771,"x_min":129,"x_max":722,"o":"m 492 360 q 722 26 583 208 l 721 13 q 618 -12 671 -7 l 603 -3 q 399 331 489 168 l 236 331 l 236 278 l 242 0 l 129 0 l 136 268 l 129 890 l 401 892 q 603 826 532 892 q 675 638 675 760 q 627 473 675 546 q 492 360 579 400 m 404 421 q 560 628 560 465 q 376 800 560 793 l 242 796 l 238 425 l 404 421 m 572 1164 q 403 978 493 1085 l 369 978 q 201 1164 283 1085 l 232 1208 l 244 1208 q 386 1064 331 1126 q 528 1208 439 1122 l 542 1208 l 572 1164 z "},"ř":{"ha":689,"x_min":125,"x_max":631,"o":"m 443 279 q 631 25 528 150 l 629 11 q 533 -10 571 -7 l 515 1 q 356 253 410 161 l 225 251 l 225 217 l 228 0 l 125 0 l 129 208 l 125 692 l 361 693 q 530 642 471 693 q 589 493 589 590 q 551 367 589 422 q 443 279 513 311 m 357 333 q 481 485 481 368 q 444 576 481 546 q 335 610 408 607 l 228 608 l 226 338 l 357 333 m 507 967 q 338 781 428 888 l 304 781 q 136 967 218 888 l 167 1011 l 179 1011 q 321 867 265 929 q 463 1011 374 925 l 476 1011 l 507 967 z "},"Ś":{"ha":656,"x_min":58,"x_max":596,"o":"m 371 897 q 569 856 467 897 l 551 749 l 532 743 q 357 807 449 807 q 267 786 306 807 q 209 732 229 765 q 189 663 189 699 q 212 597 189 625 q 269 547 235 568 q 364 497 304 526 q 485 433 439 463 q 563 357 531 403 q 596 246 596 311 q 558 118 596 176 q 453 25 521 60 q 297 -10 385 -10 q 58 53 169 -10 l 72 167 l 88 174 q 195 103 136 126 q 308 81 254 81 q 402 101 361 81 q 465 157 443 122 q 486 231 486 192 q 442 324 486 289 q 307 401 397 360 q 189 466 233 438 q 113 540 144 494 q 81 650 81 585 q 117 775 81 718 q 220 865 154 832 q 371 897 286 897 m 524 1161 l 521 1150 q 285 974 383 1043 l 272 975 l 242 1019 q 469 1221 378 1131 l 482 1219 l 524 1161 z "},"ś":{"ha":590,"x_min":68,"x_max":518,"o":"m 329 699 q 499 665 414 699 l 481 563 l 464 558 q 318 618 390 618 q 224 587 258 618 q 189 515 189 556 q 223 450 189 475 q 328 394 257 425 q 427 344 390 367 q 491 285 464 322 q 518 196 518 249 q 489 95 518 142 q 403 20 460 49 q 269 -8 347 -8 q 68 39 161 -8 l 81 149 l 94 154 q 185 94 133 115 q 282 72 238 72 q 378 103 340 72 q 415 179 415 135 q 381 246 415 221 q 275 304 347 271 q 177 353 215 331 q 113 412 139 375 q 86 501 86 449 q 116 601 86 557 q 201 672 146 646 q 329 699 256 699 m 476 964 l 474 953 q 238 776 336 846 l 225 778 l 194 822 q 422 1024 331 933 l 435 1022 l 476 964 z "},"Ŝ":{"ha":656,"x_min":58,"x_max":596,"o":"m 158 1024 q 328 1210 239 1103 l 361 1210 q 529 1024 447 1103 l 499 979 l 486 979 q 344 1124 400 1061 q 203 979 292 1065 l 189 979 l 158 1024 m 371 897 q 569 856 467 897 l 551 749 l 532 743 q 357 807 449 807 q 267 786 306 807 q 209 732 229 765 q 189 663 189 699 q 212 597 189 625 q 269 547 235 568 q 364 497 304 526 q 485 433 439 463 q 563 357 531 403 q 596 246 596 311 q 558 118 596 176 q 453 25 521 60 q 297 -10 385 -10 q 58 53 169 -10 l 72 167 l 88 174 q 195 103 136 126 q 308 81 254 81 q 402 101 361 81 q 465 157 443 122 q 486 231 486 192 q 442 324 486 289 q 307 401 397 360 q 189 466 233 438 q 113 540 144 494 q 81 650 81 585 q 117 775 81 718 q 220 865 154 832 q 371 897 286 897 z "},"ŝ":{"ha":590,"x_min":68,"x_max":518,"o":"m 111 826 q 281 1013 190 906 l 314 1013 q 482 826 400 906 l 451 782 l 439 782 q 297 926 353 864 q 156 782 244 868 l 142 782 l 111 826 m 329 699 q 497 665 414 699 l 481 563 l 464 558 q 318 618 390 618 q 224 587 258 618 q 189 515 189 556 q 223 450 189 475 q 328 394 257 425 q 427 344 390 367 q 491 285 464 322 q 518 196 518 249 q 489 95 518 142 q 403 20 460 49 q 269 -8 347 -8 q 68 39 161 -8 l 81 149 l 94 154 q 184 94 132 115 q 282 72 236 72 q 378 103 340 72 q 415 179 415 135 q 381 246 415 221 q 275 304 347 271 q 177 353 215 331 q 113 412 139 375 q 86 501 86 449 q 116 601 86 557 q 201 672 146 646 q 329 699 256 699 z "},"Ş":{"ha":656,"x_min":58,"x_max":596,"o":"m 596 246 q 528 81 596 151 q 351 -6 461 10 l 332 -71 l 379 -99 q 432 -176 432 -129 q 401 -242 432 -217 q 319 -268 369 -268 q 219 -225 260 -268 l 229 -169 l 236 -168 q 315 -211 275 -211 q 347 -201 335 -211 q 358 -174 358 -192 q 329 -139 358 -156 l 263 -99 l 288 -10 q 58 53 164 -7 l 72 167 l 88 174 q 195 103 136 126 q 308 81 254 81 q 402 101 361 81 q 465 157 443 122 q 486 231 486 192 q 442 324 486 289 q 307 401 397 360 q 189 466 233 438 q 113 540 144 494 q 81 650 81 585 q 117 775 81 718 q 220 865 154 832 q 371 897 286 897 q 569 856 467 897 l 551 749 l 532 743 q 357 807 449 807 q 267 786 306 807 q 209 732 229 765 q 189 663 189 699 q 212 597 189 625 q 269 547 235 568 q 364 497 304 526 q 485 433 439 463 q 563 357 531 403 q 596 246 596 311 z "},"ş":{"ha":590,"x_min":68,"x_max":518,"o":"m 518 196 q 461 61 518 119 q 306 -7 404 3 l 286 -71 l 333 -99 q 386 -176 386 -129 q 355 -242 386 -217 q 274 -268 324 -268 q 174 -225 214 -268 l 183 -169 l 190 -168 q 269 -211 229 -211 q 301 -201 289 -211 q 313 -174 313 -192 q 283 -139 313 -156 l 217 -99 l 242 -7 q 68 39 146 -3 l 81 149 l 94 154 q 184 94 132 115 q 282 72 236 72 q 378 103 340 72 q 415 179 415 135 q 381 246 415 221 q 275 304 347 271 q 177 353 215 331 q 113 412 139 375 q 86 501 86 449 q 116 601 86 557 q 201 672 146 646 q 329 699 256 699 q 497 665 414 699 l 481 563 l 464 558 q 318 618 390 618 q 224 587 258 618 q 189 515 189 556 q 223 450 189 475 q 328 394 257 425 q 427 344 390 367 q 491 285 464 322 q 518 196 518 249 z "},"Š":{"ha":656,"x_min":58,"x_max":596,"o":"m 371 897 q 569 856 467 897 l 551 749 l 532 743 q 357 807 449 807 q 267 786 306 807 q 209 732 229 765 q 189 663 189 699 q 212 597 189 625 q 269 547 235 568 q 364 497 304 526 q 485 433 439 463 q 563 357 531 403 q 596 246 596 311 q 558 118 596 176 q 453 25 521 60 q 297 -10 385 -10 q 58 53 169 -10 l 72 167 l 88 174 q 195 103 136 126 q 308 81 254 81 q 402 101 361 81 q 465 157 443 122 q 486 231 486 192 q 442 324 486 289 q 307 401 397 360 q 189 466 233 438 q 113 540 144 494 q 81 650 81 585 q 117 775 81 718 q 220 865 154 832 q 371 897 286 897 m 529 1164 q 360 978 450 1085 l 326 978 q 158 1164 240 1085 l 189 1208 l 201 1208 q 343 1064 288 1126 q 485 1208 396 1122 l 499 1208 l 529 1164 z "},"š":{"ha":590,"x_min":68,"x_max":518,"o":"m 329 699 q 499 665 414 699 l 481 563 l 464 558 q 318 618 390 618 q 224 587 258 618 q 189 515 189 556 q 223 450 189 475 q 328 394 257 425 q 427 344 390 367 q 491 285 464 322 q 518 196 518 249 q 489 95 518 142 q 403 20 460 49 q 269 -8 347 -8 q 68 39 161 -8 l 81 149 l 94 154 q 185 94 133 115 q 282 72 238 72 q 378 103 340 72 q 415 179 415 135 q 381 246 415 221 q 275 304 347 271 q 177 353 215 331 q 113 412 139 375 q 86 501 86 449 q 116 601 86 557 q 201 672 146 646 q 329 699 256 699 m 482 967 q 313 781 403 888 l 279 781 q 111 967 193 888 l 142 1011 l 154 1011 q 296 867 240 929 q 438 1011 349 925 l 451 1011 l 482 967 z "},"Ţ":{"ha":681,"x_min":31,"x_max":651,"o":"m 643 793 l 488 801 l 397 801 l 392 278 l 397 0 l 368 0 l 347 -71 l 394 -99 q 447 -176 447 -129 q 416 -242 447 -217 q 335 -268 385 -268 q 235 -225 275 -268 l 244 -169 l 251 -168 q 331 -211 290 -211 q 362 -201 350 -211 q 374 -174 374 -192 q 344 -139 374 -156 l 278 -99 l 306 0 l 285 0 l 292 268 l 286 801 l 197 801 l 39 793 l 31 804 l 40 890 l 644 890 l 651 879 l 643 793 z "},"ţ":{"ha":607,"x_min":42,"x_max":560,"o":"m 554 596 l 425 606 l 354 606 l 350 217 l 354 0 l 332 0 l 313 -72 l 358 -99 q 410 -176 410 -132 q 379 -241 410 -215 q 303 -267 349 -267 q 204 -222 246 -267 l 215 -171 l 222 -169 q 297 -212 258 -212 q 329 -202 317 -212 q 342 -175 342 -192 q 314 -136 342 -154 l 249 -96 l 274 0 l 250 0 l 254 208 l 251 606 l 182 606 l 50 596 l 42 606 l 50 692 l 556 692 l 560 683 l 554 596 z "},"Ť":{"ha":681,"x_min":31,"x_max":651,"o":"m 643 793 l 488 801 l 397 801 l 393 278 l 397 0 l 285 0 l 293 268 l 286 801 l 196 801 l 38 793 l 31 804 l 39 890 l 643 890 l 651 879 l 643 793 m 531 1164 q 361 978 451 1085 l 328 978 q 160 1164 242 1085 l 190 1208 l 203 1208 q 344 1064 289 1126 q 486 1208 397 1122 l 500 1208 l 531 1164 z "},"ť":{"ha":607,"x_min":44,"x_max":563,"o":"m 556 596 l 426 606 l 357 606 l 353 217 l 357 0 l 253 0 l 257 208 l 254 606 l 185 606 l 53 596 l 44 606 l 53 692 l 557 692 l 563 683 l 556 596 m 482 967 q 313 781 403 888 l 279 781 q 111 967 193 888 l 142 1011 l 154 1011 q 296 867 240 929 q 438 1011 349 925 l 451 1011 l 482 967 z "},"Ŧ":{"ha":681,"x_min":31,"x_max":651,"o":"m 394 479 l 539 479 l 549 472 l 543 410 l 393 410 l 392 278 l 397 0 l 285 0 l 292 268 l 290 410 l 158 410 l 150 418 l 156 479 l 289 479 l 286 801 l 197 801 l 39 793 l 31 804 l 40 890 l 644 890 l 651 879 l 643 793 l 488 801 l 397 801 l 394 479 z "},"ŧ":{"ha":607,"x_min":44,"x_max":563,"o":"m 354 354 l 485 354 l 494 347 l 489 285 l 353 285 l 353 217 l 357 0 l 253 0 l 257 208 l 257 285 l 129 285 l 121 293 l 126 354 l 256 354 l 254 606 l 185 606 l 53 596 l 44 606 l 53 692 l 557 692 l 563 683 l 556 596 l 426 606 l 357 606 l 354 354 z "},"Ũ":{"ha":869,"x_min":106,"x_max":769,"o":"m 767 338 q 681 82 769 174 q 428 -10 592 -10 q 187 78 271 -10 q 106 325 103 165 l 107 446 l 106 890 l 215 890 l 211 339 q 436 88 208 88 q 664 325 667 88 l 658 890 l 769 890 l 768 438 l 767 338 m 656 1133 l 571 1038 l 557 1033 q 440 1061 526 1036 q 342 1085 361 1085 q 321 1076 332 1085 q 286 1043 310 1067 l 264 1019 l 251 1019 l 218 1056 l 218 1065 l 303 1161 l 317 1165 q 432 1138 350 1163 q 532 1115 518 1115 q 588 1156 550 1115 l 611 1179 l 622 1179 l 656 1144 l 656 1133 z "},"ũ":{"ha":763,"x_min":106,"x_max":664,"o":"m 660 240 q 588 57 661 122 q 379 -8 515 -8 q 174 56 244 -8 q 106 240 103 121 l 107 346 l 106 692 l 210 692 l 204 257 q 383 81 201 81 q 563 257 565 81 l 558 692 l 664 692 l 660 340 l 660 240 m 603 936 l 518 840 l 504 836 q 388 864 474 839 q 289 888 308 888 q 268 878 279 888 q 233 846 257 869 l 211 822 l 199 822 l 165 858 l 165 868 l 250 964 l 264 968 q 379 940 297 965 q 479 918 465 918 q 535 958 497 918 l 558 982 l 569 982 l 603 947 l 603 936 z "},"Ū":{"ha":869,"x_min":106,"x_max":769,"o":"m 767 338 q 681 82 769 174 q 428 -10 592 -10 q 187 78 271 -10 q 106 325 103 165 l 107 446 l 106 890 l 215 890 l 211 339 q 436 88 208 88 q 664 325 667 88 l 658 890 l 769 890 l 768 438 l 767 338 m 635 1061 l 242 1061 l 233 1069 l 240 1133 l 633 1133 l 642 1126 l 635 1061 z "},"ū":{"ha":763,"x_min":106,"x_max":664,"o":"m 660 240 q 588 57 661 122 q 379 -8 515 -8 q 174 56 244 -8 q 106 240 103 121 l 107 346 l 106 692 l 210 692 l 204 257 q 383 81 201 81 q 563 257 565 81 l 558 692 l 664 692 l 660 340 l 660 240 m 582 864 l 189 864 l 181 872 l 188 936 l 581 936 l 589 929 l 582 864 z "},"Ŭ":{"ha":869,"x_min":106,"x_max":769,"o":"m 767 338 q 681 82 769 174 q 428 -10 592 -10 q 187 78 271 -10 q 106 325 103 165 l 107 446 l 106 890 l 215 890 l 211 339 q 436 88 208 88 q 664 325 667 88 l 658 890 l 769 890 l 768 438 l 767 338 m 615 1144 q 436 985 578 985 q 264 1144 296 985 l 294 1185 l 311 1185 q 439 1064 338 1064 q 567 1185 540 1064 l 583 1185 l 615 1144 z "},"ŭ":{"ha":763,"x_min":106,"x_max":664,"o":"m 660 240 q 588 57 661 122 q 379 -8 515 -8 q 174 56 244 -8 q 106 240 103 121 l 107 346 l 106 692 l 210 692 l 204 257 q 383 81 201 81 q 563 257 565 81 l 558 692 l 664 692 l 660 340 l 660 240 m 563 947 q 383 788 525 788 q 211 947 243 788 l 242 988 l 258 988 q 386 867 285 867 q 514 988 488 867 l 531 988 l 563 947 z "},"Ů":{"ha":869,"x_min":106,"x_max":769,"o":"m 767 338 q 681 82 769 174 q 428 -10 592 -10 q 187 78 271 -10 q 106 325 103 165 l 107 446 l 106 890 l 215 890 l 211 339 q 436 88 208 88 q 664 325 667 88 l 658 890 l 769 890 l 768 438 l 767 338 m 438 1221 q 522 1190 492 1221 q 553 1108 553 1158 q 519 1023 553 1054 q 433 992 485 992 q 351 1022 383 992 q 319 1106 319 1051 q 351 1190 319 1158 q 438 1221 383 1221 m 435 1167 q 372 1107 372 1167 q 390 1060 372 1076 q 436 1044 407 1044 q 481 1060 464 1044 q 499 1104 499 1075 q 435 1167 499 1167 z "},"ů":{"ha":763,"x_min":106,"x_max":664,"o":"m 660 240 q 588 57 661 122 q 379 -8 515 -8 q 174 56 244 -8 q 106 240 103 121 l 107 346 l 106 692 l 210 692 l 204 257 q 383 81 201 81 q 563 257 565 81 l 558 692 l 664 692 l 660 340 l 660 240 m 385 1024 q 469 992 439 1024 q 500 911 500 961 q 466 826 500 857 q 381 794 432 794 q 299 824 331 794 q 267 908 267 854 q 299 992 267 961 q 385 1024 331 1024 m 382 969 q 319 910 319 969 q 337 863 319 879 q 383 847 354 847 q 428 863 411 847 q 446 907 446 878 q 382 969 446 969 z "},"Ű":{"ha":869,"x_min":106,"x_max":769,"o":"m 767 338 q 681 82 769 174 q 428 -10 592 -10 q 187 78 271 -10 q 106 325 103 165 l 107 446 l 106 890 l 215 890 l 211 339 q 436 88 208 88 q 664 325 667 88 l 658 890 l 769 890 l 768 438 l 767 338 m 293 1057 q 419 1199 392 1165 l 431 1199 l 481 1164 l 481 1151 q 317 999 431 1101 l 304 997 l 268 1031 l 293 1057 m 467 1031 q 618 1199 567 1139 l 628 1199 l 679 1164 l 679 1151 l 560 1039 l 515 999 l 503 997 l 467 1031 z "},"ű":{"ha":763,"x_min":106,"x_max":664,"o":"m 660 240 q 588 57 661 122 q 379 -8 515 -8 q 174 56 244 -8 q 106 240 103 121 l 107 346 l 106 692 l 210 692 l 204 257 q 383 81 201 81 q 563 257 565 81 l 558 692 l 664 692 l 660 340 l 660 240 m 213 810 q 400 1024 278 879 l 410 1025 l 461 988 l 461 976 q 261 778 374 885 l 249 776 l 213 810 m 408 810 q 596 1024 485 890 l 607 1025 l 658 988 l 657 976 q 457 778 569 885 l 446 776 l 408 810 z "},"Ų":{"ha":869,"x_min":106,"x_max":769,"o":"m 765 338 q 646 53 769 142 l 563 -83 q 539 -153 539 -119 q 590 -200 539 -200 q 692 -147 643 -200 l 697 -147 l 714 -200 q 576 -274 647 -274 q 498 -243 528 -274 q 468 -162 468 -212 q 499 -71 468 -117 l 549 6 q 428 -10 492 -10 q 186 77 269 -10 q 106 325 103 164 l 107 446 l 106 890 l 215 890 l 210 339 q 436 88 207 88 q 664 325 664 88 l 658 890 l 769 890 l 767 438 l 765 338 z "},"ų":{"ha":763,"x_min":104,"x_max":663,"o":"m 467 -83 q 443 -153 443 -119 q 494 -200 443 -200 q 596 -147 547 -200 l 601 -147 l 618 -200 q 481 -274 551 -274 q 402 -243 432 -274 q 372 -164 372 -212 q 403 -71 372 -117 l 446 -4 q 378 -8 415 -8 q 173 56 243 -8 q 106 240 103 121 l 107 346 l 104 692 l 210 692 l 203 257 q 382 81 200 81 q 561 257 564 81 l 558 692 l 663 692 l 658 340 l 658 240 q 627 105 660 161 q 531 21 594 49 l 467 -83 z "},"Ŵ":{"ha":1240,"x_min":29,"x_max":1228,"o":"m 432 1065 q 593 1192 525 1129 l 625 1192 q 788 1065 688 1136 l 765 1018 l 753 1018 q 610 1110 675 1065 q 468 1018 556 1072 l 454 1018 l 432 1065 m 794 0 l 621 517 l 611 517 l 428 0 l 313 0 l 29 890 l 139 890 l 156 804 l 372 124 l 382 124 l 574 665 l 497 890 l 611 890 l 633 794 l 853 124 l 861 124 l 1103 799 l 1124 890 l 1228 890 l 910 0 l 794 0 z "},"ŵ":{"ha":1067,"x_min":46,"x_max":1040,"o":"m 319 826 q 489 1013 400 907 l 522 1013 q 690 826 608 906 l 660 782 l 647 782 q 506 926 561 864 q 364 782 453 868 l 350 782 l 319 826 m 671 0 l 535 378 l 528 378 l 383 0 l 272 0 l 46 692 l 151 692 l 164 618 l 332 115 l 340 115 l 492 519 l 435 692 l 542 692 l 557 610 l 726 115 l 736 115 l 922 613 l 940 692 l 1040 692 l 782 0 l 671 0 z "},"Ŷ":{"ha":733,"x_min":21,"x_max":715,"o":"m 181 1065 q 342 1192 274 1129 l 374 1192 q 536 1065 436 1136 l 514 1018 l 501 1018 q 358 1110 424 1065 q 217 1018 304 1072 l 203 1018 l 181 1065 m 410 0 l 297 0 l 304 260 l 303 321 l 21 890 l 140 890 l 158 840 l 353 440 l 364 440 l 576 838 l 597 890 l 715 890 l 406 317 l 404 260 l 410 0 z "},"ŷ":{"ha":657,"x_min":35,"x_max":621,"o":"m 149 826 q 318 1013 229 907 l 351 1013 q 519 826 438 906 l 489 782 l 476 782 q 335 926 390 864 q 193 782 282 868 l 179 782 l 149 826 m 369 0 l 265 0 l 269 199 l 269 239 l 35 692 l 147 692 l 161 651 l 315 354 l 324 354 l 493 647 l 513 692 l 621 692 l 367 242 l 365 199 l 369 0 z "},"Ÿ":{"ha":733,"x_min":21,"x_max":715,"o":"m 249 1033 q 206 1050 221 1033 q 190 1094 190 1067 q 207 1140 190 1122 q 253 1157 224 1157 q 296 1142 281 1157 q 311 1099 311 1126 q 294 1051 311 1069 q 249 1033 278 1033 m 467 1033 q 424 1050 439 1033 q 408 1094 408 1067 q 425 1140 408 1122 q 471 1157 442 1157 q 514 1142 499 1157 q 529 1099 529 1126 q 513 1051 529 1069 q 467 1033 496 1033 m 410 0 l 297 0 l 304 260 l 303 321 l 21 890 l 140 890 l 158 840 l 353 440 l 364 440 l 576 838 l 597 890 l 715 890 l 406 317 l 404 260 l 410 0 z "},"Ź":{"ha":733,"x_min":43,"x_max":683,"o":"m 176 90 l 546 90 l 678 100 l 683 92 l 674 -3 l 513 0 l 122 0 l 43 -4 l 43 78 l 543 799 l 200 799 l 67 789 l 60 797 l 68 892 l 607 890 l 675 892 l 675 808 l 176 90 m 565 1131 l 563 1119 q 292 1000 439 1063 l 278 1006 l 258 1056 q 525 1199 401 1126 l 538 1196 l 565 1131 z "},"ź":{"ha":653,"x_min":56,"x_max":592,"o":"m 181 82 l 471 82 l 586 93 l 592 86 l 583 -3 l 440 0 l 126 0 l 56 -3 l 56 72 l 461 608 l 179 608 l 72 597 l 67 606 l 76 693 l 201 692 l 525 692 l 585 693 l 585 615 l 181 82 m 488 964 l 485 953 q 249 776 347 846 l 236 778 l 206 822 q 433 1024 342 933 l 446 1022 l 488 964 z "},"Ż":{"ha":733,"x_min":43,"x_max":683,"o":"m 376 1174 q 421 1157 404 1174 q 438 1113 438 1140 q 420 1063 438 1081 q 372 1044 403 1044 q 311 1108 311 1044 q 328 1156 311 1138 q 376 1174 346 1174 m 176 90 l 546 90 l 678 100 l 683 92 l 674 -3 l 513 0 l 122 0 l 43 -4 l 43 78 l 543 799 l 200 799 l 67 789 l 60 797 l 68 892 l 607 890 l 675 892 l 675 808 l 176 90 z "},"ż":{"ha":653,"x_min":56,"x_max":592,"o":"m 310 976 q 354 960 338 976 q 371 915 371 943 q 353 865 371 883 q 306 847 336 847 q 244 911 244 847 q 262 958 244 940 q 310 976 279 976 m 181 82 l 471 82 l 586 93 l 592 86 l 582 -3 l 439 0 l 125 0 l 56 -3 l 56 72 l 460 608 l 179 608 l 72 597 l 67 606 l 75 693 l 201 692 l 524 692 l 583 693 l 583 615 l 181 82 z "},"Ž":{"ha":733,"x_min":43,"x_max":683,"o":"m 176 90 l 546 90 l 678 100 l 683 92 l 674 -3 l 513 0 l 122 0 l 43 -4 l 43 78 l 543 799 l 200 799 l 67 789 l 60 797 l 68 892 l 607 890 l 675 892 l 675 808 l 176 90 m 553 1131 q 392 1004 460 1067 l 360 1004 q 197 1131 297 1060 l 219 1178 l 232 1178 q 375 1086 310 1131 q 517 1178 429 1124 l 531 1178 l 553 1131 z "},"ž":{"ha":653,"x_min":56,"x_max":592,"o":"m 181 82 l 471 82 l 586 93 l 592 86 l 583 -3 l 440 0 l 126 0 l 56 -3 l 56 72 l 461 608 l 179 608 l 72 597 l 67 606 l 76 693 l 201 692 l 525 692 l 585 693 l 585 615 l 181 82 m 493 967 q 324 781 414 888 l 290 781 q 122 967 204 888 l 153 1011 l 165 1011 q 307 867 251 929 q 449 1011 360 925 l 463 1011 l 493 967 z "},"ƒ":{"ha":385,"x_min":-22,"x_max":517,"o":"m 417 856 q 517 843 458 856 l 500 771 l 492 767 q 404 785 449 785 q 267 654 285 785 l 249 519 l 403 519 l 407 511 l 401 458 l 242 458 l 214 257 l 189 65 q 142 -87 178 -29 q 22 -208 107 -144 l -22 -165 l -21 -156 q 67 -56 42 -101 q 103 63 93 -11 l 126 250 l 151 458 l 61 458 l 54 464 l 61 519 l 160 519 l 175 642 q 251 800 188 744 q 417 856 314 856 z "},"Ơ":{"ha":889,"x_min":53,"x_max":876,"o":"m 800 1063 q 852 1027 828 1063 q 876 943 876 992 q 831 839 876 878 q 714 796 786 800 q 831 457 831 683 q 726 113 831 236 q 432 -11 622 -11 q 151 106 250 -11 q 53 438 53 222 q 156 779 53 660 q 447 899 260 899 q 608 869 518 899 q 689 851 663 851 q 759 874 731 851 q 788 935 788 896 q 743 1029 788 988 l 746 1040 q 800 1063 775 1063 m 443 807 q 167 451 167 807 q 438 82 167 82 q 715 443 715 82 q 648 717 715 628 q 443 807 581 807 z "},"ơ":{"ha":779,"x_min":63,"x_max":753,"o":"m 636 808 q 685 828 663 828 q 731 799 710 828 q 753 729 753 771 q 719 646 753 679 q 628 604 685 613 q 711 356 711 517 q 624 87 711 183 q 379 -10 536 -10 q 145 82 228 -10 q 63 340 63 174 q 149 606 63 513 q 396 700 236 700 q 531 681 453 700 q 597 668 574 668 q 650 683 629 668 q 671 725 671 697 q 633 800 671 763 l 636 808 m 386 71 q 550 138 496 71 q 604 344 604 204 q 551 549 604 483 q 386 614 497 614 q 224 549 276 614 q 171 346 171 483 q 224 138 171 206 q 386 71 278 71 z "},"Ư":{"ha":883,"x_min":106,"x_max":889,"o":"m 889 968 q 856 885 889 921 q 769 836 824 850 l 767 438 l 765 338 q 680 81 768 172 q 428 -10 592 -10 q 186 77 269 -10 q 106 325 103 164 l 107 446 l 106 890 l 215 890 l 210 339 q 436 88 207 88 q 664 325 664 88 l 658 890 l 711 890 q 801 961 801 890 q 756 1044 801 1004 l 760 1056 q 814 1078 792 1078 q 865 1045 840 1078 q 889 968 889 1013 z "},"ư":{"ha":775,"x_min":101,"x_max":761,"o":"m 656 240 q 584 57 657 122 q 375 -8 511 -8 q 170 56 240 -8 q 103 240 100 121 l 104 346 l 101 692 l 206 692 l 200 257 q 379 81 197 81 q 558 257 561 81 l 554 692 l 607 692 q 679 746 679 692 q 643 811 679 781 l 646 821 q 697 840 672 840 q 741 815 721 840 q 761 756 761 790 q 734 686 761 717 q 660 643 707 656 l 656 340 l 656 240 z "},"Ǎ":{"ha":803,"x_min":19,"x_max":772,"o":"m 658 0 l 638 89 l 588 242 l 388 246 l 207 242 l 153 94 l 131 0 l 19 0 l 346 890 l 475 890 l 772 0 l 658 0 m 413 775 l 403 775 l 242 336 l 397 333 l 557 336 l 413 775 m 582 1131 q 421 1004 489 1067 l 389 1004 q 226 1131 326 1060 l 249 1178 l 261 1178 q 404 1086 339 1131 q 546 1178 458 1124 l 560 1178 l 582 1131 z "},"ǎ":{"ha":711,"x_min":35,"x_max":664,"o":"m 560 0 l 543 75 l 507 178 l 342 179 l 194 178 l 157 81 l 138 0 l 35 0 l 301 692 l 421 692 l 664 0 l 560 0 m 363 590 l 354 590 l 228 263 l 350 261 l 478 263 l 363 590 m 549 967 q 379 781 469 888 l 346 781 q 178 967 260 888 l 208 1011 l 221 1011 q 363 867 307 929 q 504 1011 415 925 l 518 1011 l 549 967 z "},"Ǐ":{"ha":372,"x_min":10,"x_max":365,"o":"m 242 0 l 129 0 l 136 268 l 129 890 l 243 890 l 236 278 l 242 0 m 365 1131 q 204 1004 272 1067 l 172 1004 q 10 1131 110 1060 l 32 1178 l 44 1178 q 188 1086 122 1131 q 329 1178 242 1124 l 343 1178 l 365 1131 z "},"ǐ":{"ha":360,"x_min":-3,"x_max":368,"o":"m 228 0 l 125 0 l 129 208 l 125 692 l 229 692 l 225 217 l 228 0 m 368 967 q 199 781 289 888 l 165 781 q -3 967 79 888 l 28 1011 l 40 1011 q 182 867 126 929 q 324 1011 235 925 l 338 1011 l 368 967 z "},"Ǒ":{"ha":882,"x_min":53,"x_max":831,"o":"m 453 899 q 733 786 635 899 q 831 463 831 674 q 726 113 831 236 q 431 -11 622 -11 q 151 106 250 -11 q 53 438 53 222 q 156 779 53 660 q 453 899 260 899 m 443 807 q 167 451 167 807 q 438 82 167 82 q 715 443 715 82 q 648 717 715 628 q 443 807 581 807 m 621 1131 q 460 1004 528 1067 l 428 1004 q 265 1131 365 1060 l 288 1178 l 300 1178 q 443 1086 378 1131 q 585 1178 497 1124 l 599 1178 l 621 1131 z "},"ǒ":{"ha":774,"x_min":63,"x_max":711,"o":"m 397 700 q 630 611 549 700 q 711 360 711 522 q 624 87 711 183 q 376 -10 538 -10 q 144 81 226 -10 q 63 340 63 172 q 150 606 63 513 q 397 700 238 700 m 388 613 q 224 550 278 613 q 171 353 171 488 q 224 143 171 208 q 385 78 276 78 q 550 142 496 78 q 604 342 604 206 q 551 547 604 482 q 388 613 497 613 m 575 967 q 406 781 496 888 l 372 781 q 204 967 286 888 l 235 1011 l 247 1011 q 389 867 333 929 q 531 1011 442 925 l 544 1011 l 575 967 z "},"Ǔ":{"ha":869,"x_min":106,"x_max":769,"o":"m 767 338 q 681 82 769 174 q 428 -10 592 -10 q 187 78 271 -10 q 106 325 103 165 l 107 446 l 106 890 l 215 890 l 211 339 q 436 88 208 88 q 664 325 667 88 l 658 890 l 769 890 l 768 438 l 767 338 m 624 1164 q 454 978 544 1085 l 421 978 q 253 1164 335 1085 l 283 1208 l 296 1208 q 438 1064 382 1126 q 579 1208 490 1122 l 593 1208 l 624 1164 z "},"ǔ":{"ha":763,"x_min":106,"x_max":664,"o":"m 660 240 q 588 57 661 122 q 379 -8 515 -8 q 174 56 244 -8 q 106 240 103 121 l 107 346 l 106 692 l 210 692 l 204 257 q 383 81 201 81 q 563 257 565 81 l 558 692 l 664 692 l 660 340 l 660 240 m 571 967 q 401 781 492 888 l 368 781 q 200 967 282 888 l 231 1011 l 243 1011 q 385 867 329 929 q 526 1011 438 925 l 540 1011 l 571 967 z "},"Ǖ":{"ha":869,"x_min":106,"x_max":769,"o":"m 767 338 q 681 82 769 174 q 428 -10 592 -10 q 187 78 271 -10 q 106 325 103 165 l 107 446 l 106 890 l 215 890 l 211 339 q 436 88 208 88 q 664 325 667 88 l 658 890 l 769 890 l 768 438 l 767 338 m 618 1218 l 260 1218 l 250 1226 l 257 1292 l 617 1292 l 625 1283 l 618 1218 m 329 1126 q 369 1111 354 1126 q 385 1069 385 1096 q 369 1026 385 1042 q 325 1010 353 1010 q 269 1067 269 1010 q 285 1110 269 1094 q 329 1126 301 1126 m 547 1126 q 588 1111 574 1126 q 603 1069 603 1096 q 587 1026 603 1042 q 543 1010 571 1010 q 503 1025 518 1010 q 488 1067 488 1040 q 503 1110 488 1094 q 547 1126 519 1126 z "},"ǖ":{"ha":763,"x_min":106,"x_max":664,"o":"m 660 240 q 588 57 661 122 q 379 -8 515 -8 q 174 56 244 -8 q 106 240 103 121 l 107 346 l 106 692 l 210 692 l 204 257 q 383 81 201 81 q 563 257 565 81 l 558 692 l 664 692 l 660 340 l 660 240 m 565 1021 l 207 1021 l 197 1029 l 204 1094 l 564 1094 l 572 1086 l 565 1021 m 276 929 q 317 914 301 929 q 332 872 332 899 q 316 828 332 844 q 272 813 300 813 q 217 869 217 813 q 233 913 217 897 q 276 929 249 929 m 494 929 q 535 914 521 929 q 550 872 550 899 q 534 828 550 844 q 490 813 518 813 q 450 828 465 813 q 435 869 435 843 q 451 913 435 897 q 494 929 467 929 z "},"Ǘ":{"ha":869,"x_min":106,"x_max":769,"o":"m 767 338 q 681 82 769 174 q 428 -10 592 -10 q 187 78 271 -10 q 106 325 103 165 l 107 446 l 106 890 l 215 890 l 211 339 q 436 88 208 88 q 664 325 667 88 l 658 890 l 769 890 l 768 438 l 767 338 m 594 1279 l 588 1267 q 300 1199 481 1239 l 288 1206 l 278 1258 q 565 1353 425 1301 l 576 1349 l 594 1279 m 329 1126 q 369 1111 354 1126 q 385 1069 385 1096 q 369 1026 385 1042 q 325 1010 353 1010 q 269 1067 269 1010 q 285 1110 269 1094 q 329 1126 301 1126 m 547 1126 q 588 1111 574 1126 q 603 1069 603 1096 q 587 1026 603 1042 q 543 1010 571 1010 q 503 1025 518 1010 q 488 1067 488 1040 q 503 1110 488 1094 q 547 1126 519 1126 z "},"ǘ":{"ha":763,"x_min":106,"x_max":664,"o":"m 660 240 q 588 57 661 122 q 379 -8 515 -8 q 174 56 244 -8 q 106 240 103 121 l 107 346 l 106 692 l 210 692 l 204 257 q 383 81 201 81 q 563 257 565 81 l 558 692 l 664 692 l 660 340 l 660 240 m 542 1082 l 535 1069 q 247 1001 428 1042 l 235 1008 l 225 1061 q 513 1156 372 1104 l 524 1151 l 542 1082 m 276 929 q 317 914 301 929 q 332 872 332 899 q 316 828 332 844 q 272 813 300 813 q 217 869 217 813 q 233 913 217 897 q 276 929 249 929 m 494 929 q 535 914 521 929 q 550 872 550 899 q 534 828 550 844 q 490 813 518 813 q 450 828 465 813 q 435 869 435 843 q 451 913 435 897 q 494 929 467 929 z "},"Ǚ":{"ha":869,"x_min":106,"x_max":769,"o":"m 767 338 q 681 82 769 174 q 428 -10 592 -10 q 187 78 271 -10 q 106 325 103 165 l 107 446 l 106 890 l 215 890 l 211 339 q 436 88 208 88 q 664 325 667 88 l 658 890 l 769 890 l 768 438 l 767 338 m 615 1283 q 454 1158 536 1229 l 422 1158 q 260 1283 343 1225 l 282 1331 l 294 1331 q 353 1294 326 1311 q 403 1263 381 1276 l 438 1239 l 485 1269 q 579 1331 468 1258 l 593 1331 l 615 1283 m 329 1126 q 369 1111 354 1126 q 385 1069 385 1096 q 369 1026 385 1042 q 325 1010 353 1010 q 269 1067 269 1010 q 285 1110 269 1094 q 329 1126 301 1126 m 547 1126 q 588 1111 574 1126 q 603 1069 603 1096 q 587 1026 603 1042 q 543 1010 571 1010 q 503 1025 518 1010 q 488 1067 488 1040 q 503 1110 488 1094 q 547 1126 519 1126 z "},"ǚ":{"ha":763,"x_min":106,"x_max":664,"o":"m 660 240 q 588 57 661 122 q 379 -8 515 -8 q 174 56 244 -8 q 106 240 103 121 l 107 346 l 106 692 l 210 692 l 204 257 q 383 81 201 81 q 563 257 565 81 l 558 692 l 664 692 l 660 340 l 660 240 m 563 1086 q 401 961 483 1032 l 369 961 q 207 1086 290 1028 l 229 1133 l 242 1133 q 301 1097 274 1114 q 350 1065 328 1079 l 385 1042 l 432 1072 q 526 1133 415 1061 l 540 1133 l 563 1086 m 276 929 q 317 914 301 929 q 332 872 332 899 q 316 828 332 844 q 272 813 300 813 q 217 869 217 813 q 233 913 217 897 q 276 929 249 929 m 494 929 q 535 914 521 929 q 550 872 550 899 q 534 828 550 844 q 490 813 518 813 q 450 828 465 813 q 435 869 435 843 q 451 913 435 897 q 494 929 467 929 z "},"Ǜ":{"ha":869,"x_min":106,"x_max":769,"o":"m 767 338 q 681 82 769 174 q 428 -10 592 -10 q 187 78 271 -10 q 106 325 103 165 l 107 446 l 106 890 l 215 890 l 211 339 q 436 88 208 88 q 664 325 667 88 l 658 890 l 769 890 l 768 438 l 767 338 m 307 1353 q 594 1258 429 1307 l 582 1206 l 571 1199 q 285 1267 399 1236 l 278 1279 l 294 1349 l 307 1353 m 329 1126 q 369 1111 354 1126 q 385 1069 385 1096 q 369 1026 385 1042 q 325 1010 353 1010 q 269 1067 269 1010 q 285 1110 269 1094 q 329 1126 301 1126 m 547 1126 q 588 1111 574 1126 q 603 1069 603 1096 q 587 1026 603 1042 q 543 1010 571 1010 q 503 1025 518 1010 q 488 1067 488 1040 q 503 1110 488 1094 q 547 1126 519 1126 z "},"ǜ":{"ha":763,"x_min":106,"x_max":664,"o":"m 660 240 q 588 57 661 122 q 379 -8 515 -8 q 174 56 244 -8 q 106 240 103 121 l 107 346 l 106 692 l 210 692 l 204 257 q 383 81 201 81 q 563 257 565 81 l 558 692 l 664 692 l 660 340 l 660 240 m 254 1156 q 542 1061 376 1110 l 529 1008 l 518 1001 q 232 1069 346 1039 l 225 1082 l 242 1151 l 254 1156 m 276 929 q 317 914 301 929 q 332 872 332 899 q 316 828 332 844 q 272 813 300 813 q 217 869 217 813 q 233 913 217 897 q 276 929 249 929 m 494 929 q 535 914 521 929 q 550 872 550 899 q 534 828 550 844 q 490 813 518 813 q 450 828 465 813 q 435 869 435 843 q 451 913 435 897 q 494 929 467 929 z "},"Ǫ":{"ha":882,"x_min":53,"x_max":831,"o":"m 542 -74 q 517 -143 517 -114 q 531 -183 517 -168 q 572 -199 546 -199 q 668 -146 619 -199 l 675 -146 l 690 -201 q 554 -274 621 -274 q 474 -243 504 -274 q 444 -162 444 -212 q 479 -61 444 -110 l 519 -4 q 431 -11 474 -11 q 151 106 250 -11 q 53 438 53 222 q 156 779 53 660 q 453 899 260 899 q 733 786 635 899 q 831 463 831 674 q 772 182 831 294 q 604 22 714 69 l 542 -74 m 167 451 q 438 82 167 82 q 715 443 715 82 q 648 717 715 628 q 443 807 581 807 q 167 451 167 807 z "},"ǫ":{"ha":774,"x_min":63,"x_max":711,"o":"m 617 -200 q 479 -274 550 -274 q 401 -243 431 -274 q 371 -162 371 -212 q 401 -71 371 -117 l 444 -4 q 376 -10 417 -10 q 144 81 226 -10 q 63 340 63 172 q 149 606 63 513 q 397 700 236 700 q 630 611 549 700 q 711 360 711 522 q 664 144 711 231 q 528 18 617 57 l 465 -83 q 442 -153 442 -119 q 493 -200 442 -200 q 594 -147 546 -200 l 600 -147 l 617 -200 m 171 353 q 224 143 171 208 q 385 78 276 78 q 550 142 496 78 q 604 342 604 206 q 551 547 604 482 q 388 613 497 613 q 224 550 278 613 q 171 353 171 488 z "},"Ǻ":{"ha":803,"x_min":19,"x_max":774,"o":"m 283 1146 q 571 1243 458 1200 l 582 1239 l 600 1171 l 594 1160 q 307 1086 469 1124 l 296 1093 l 283 1146 m 658 0 l 639 88 l 589 239 l 388 243 l 207 239 l 153 93 l 131 0 l 19 0 l 340 854 q 294 950 294 886 q 326 1034 294 1003 q 413 1065 358 1065 q 497 1034 467 1065 q 528 953 528 1003 q 479 856 528 888 l 774 0 l 658 0 m 410 1011 q 347 951 347 1011 q 365 905 347 921 q 411 889 382 889 q 456 904 439 889 q 474 949 474 919 q 410 1011 474 1011 m 413 768 l 403 768 l 242 333 l 397 331 l 557 333 l 413 768 z "},"ǻ":{"ha":711,"x_min":35,"x_max":665,"o":"m 233 1106 q 521 1203 408 1160 l 532 1199 l 550 1131 l 544 1119 q 257 1046 419 1083 l 246 1053 l 233 1106 m 244 908 q 276 992 244 961 q 363 1024 308 1024 q 447 992 417 1024 q 478 911 478 961 q 444 826 478 857 q 358 794 410 794 q 276 824 308 794 q 244 908 244 854 m 424 907 q 360 969 424 969 q 297 910 297 969 q 315 863 297 879 q 361 847 332 847 q 406 863 389 847 q 424 907 424 878 m 560 0 l 543 75 l 507 178 l 342 179 l 194 178 l 157 81 l 138 0 l 35 0 l 301 692 l 421 692 l 665 0 l 560 0 m 363 590 l 354 590 l 228 263 l 350 261 l 478 263 l 363 590 z "},"Ǽ":{"ha":1121,"x_min":-22,"x_max":1100,"o":"m 1090 0 l 607 0 l 600 89 l 560 360 l 229 285 l 128 94 l 93 0 l -22 0 l 447 890 l 965 890 l 974 879 l 963 793 l 738 799 l 603 799 l 651 469 l 950 532 l 960 524 l 965 443 l 664 383 l 707 90 l 864 90 l 1092 97 l 1100 86 l 1090 0 m 497 775 l 489 775 l 285 390 l 546 447 l 497 775 m 882 1131 l 879 1119 q 608 1000 756 1063 l 594 1006 l 575 1056 q 842 1199 718 1126 l 854 1196 l 882 1131 z "},"ǽ":{"ha":972,"x_min":3,"x_max":936,"o":"m 928 0 l 521 0 l 515 74 l 486 263 l 201 199 l 133 79 l 106 0 l 3 0 l 388 692 l 826 692 l 833 683 l 824 603 l 639 610 l 529 610 l 568 365 l 813 418 l 821 413 l 826 329 l 581 282 l 611 85 l 739 85 l 929 90 l 936 83 l 928 0 m 433 590 l 425 590 l 258 297 l 472 344 l 433 590 m 751 964 l 749 953 q 513 776 611 846 l 500 778 l 469 822 q 697 1024 606 933 l 710 1022 l 751 964 z "},"Ǿ":{"ha":882,"x_min":53,"x_max":831,"o":"m 669 842 q 831 463 831 736 q 726 113 831 236 q 431 -11 622 -11 q 282 14 346 -11 l 208 -142 l 140 -118 l 135 -107 l 210 53 q 53 438 53 163 q 156 779 53 660 q 453 899 260 899 q 594 878 532 899 l 654 1006 l 721 981 l 728 967 l 669 842 m 167 451 q 254 150 167 240 l 553 789 q 443 807 507 807 q 167 451 167 807 m 438 82 q 715 443 715 82 q 624 744 715 657 l 322 103 q 438 82 372 82 m 631 1133 l 628 1122 q 357 1003 504 1065 l 343 1008 l 324 1058 q 590 1201 467 1129 l 603 1199 l 631 1133 z "},"ǿ":{"ha":774,"x_min":63,"x_max":711,"o":"m 582 651 q 711 360 711 569 q 624 87 711 183 q 376 -10 538 -10 q 261 7 311 -10 l 188 -139 l 126 -110 l 122 -99 l 192 40 q 63 340 63 129 q 149 606 63 513 q 397 700 236 700 q 514 683 463 700 l 567 789 l 624 761 l 631 749 l 582 651 m 171 353 q 236 129 171 194 l 472 600 q 388 613 435 613 q 224 549 278 613 q 171 353 171 486 m 385 78 q 550 142 496 78 q 604 342 604 206 q 538 563 604 497 l 301 89 q 385 78 342 78 m 542 965 l 539 954 q 303 778 401 847 l 290 779 l 260 824 q 488 1025 396 935 l 500 1024 l 542 965 z "},"Ș":{"ha":656,"x_min":58,"x_max":596,"o":"m 371 897 q 569 856 467 897 l 551 749 l 532 743 q 357 807 449 807 q 267 786 306 807 q 209 732 229 765 q 189 663 189 699 q 212 597 189 625 q 269 547 235 568 q 364 497 304 526 q 485 433 439 463 q 563 357 531 403 q 596 246 596 311 q 558 118 596 176 q 453 25 521 60 q 297 -10 385 -10 q 58 53 169 -10 l 72 167 l 88 174 q 195 103 136 126 q 308 81 254 81 q 402 101 361 81 q 465 157 443 122 q 486 231 486 192 q 442 324 486 289 q 307 401 397 360 q 189 466 233 438 q 113 540 144 494 q 81 650 81 585 q 117 775 81 718 q 220 865 154 832 q 371 897 286 897 m 343 -76 q 397 -164 397 -114 q 275 -337 397 -249 l 239 -306 l 239 -297 q 311 -183 311 -240 q 271 -121 311 -150 l 271 -111 q 343 -76 304 -89 z "},"ș":{"ha":590,"x_min":68,"x_max":518,"o":"m 329 699 q 497 665 414 699 l 481 563 l 464 558 q 318 618 390 618 q 224 587 258 618 q 189 515 189 556 q 223 450 189 475 q 328 394 257 425 q 427 344 390 367 q 491 285 464 322 q 518 196 518 249 q 489 95 518 142 q 403 20 460 49 q 269 -8 347 -8 q 68 39 161 -8 l 81 149 l 94 154 q 184 94 132 115 q 282 72 236 72 q 378 103 340 72 q 415 179 415 135 q 381 246 415 221 q 275 304 347 271 q 177 353 215 331 q 113 412 139 375 q 86 501 86 449 q 116 601 86 557 q 201 672 146 646 q 329 699 256 699 m 299 -76 q 353 -164 353 -114 q 231 -337 353 -249 l 194 -306 l 194 -297 q 267 -183 267 -240 q 226 -121 267 -150 l 226 -111 q 299 -76 260 -89 z "},"Ț":{"ha":681,"x_min":31,"x_max":651,"o":"m 643 793 l 488 801 l 397 801 l 392 278 l 397 0 l 285 0 l 292 268 l 286 801 l 197 801 l 39 793 l 31 804 l 40 890 l 644 890 l 651 879 l 643 793 m 360 -76 q 414 -164 414 -114 q 292 -337 414 -249 l 256 -306 l 256 -297 q 328 -183 328 -240 q 288 -121 328 -150 l 288 -111 q 360 -76 321 -89 z "},"ț":{"ha":607,"x_min":44,"x_max":563,"o":"m 556 596 l 426 606 l 357 606 l 353 217 l 357 0 l 253 0 l 257 208 l 254 606 l 185 606 l 53 596 l 44 606 l 53 692 l 557 692 l 563 683 l 556 596 m 325 -76 q 379 -164 379 -114 q 257 -337 379 -249 l 221 -306 l 221 -297 q 293 -183 293 -240 q 253 -121 293 -150 l 253 -111 q 325 -76 286 -89 z "},"ȷ":{"ha":401,"x_min":32,"x_max":274,"o":"m 269 229 l 269 129 q 231 -10 269 44 q 96 -111 193 -64 l 54 -57 l 54 -47 q 147 28 119 -11 q 174 128 174 68 l 174 217 l 171 613 l 39 611 l 32 619 l 39 692 l 274 692 l 269 229 z "},"ˆ":{"ha":540,"x_min":85,"x_max":456,"o":"m 85 769 q 254 956 164 849 l 288 956 q 456 769 374 849 l 425 725 l 413 725 q 271 869 326 807 q 129 725 218 811 l 115 725 l 85 769 z "},"ˇ":{"ha":540,"x_min":85,"x_max":456,"o":"m 456 911 q 286 725 376 832 l 253 725 q 85 911 167 832 l 115 956 l 128 956 q 269 811 214 874 q 411 956 322 869 l 425 956 l 456 911 z "},"ˉ":{"ha":540,"x_min":67,"x_max":475,"o":"m 468 808 l 75 808 l 67 817 l 74 881 l 467 881 l 475 874 l 468 808 z "},"˘":{"ha":540,"x_min":96,"x_max":447,"o":"m 447 892 q 268 732 410 732 q 96 892 128 732 l 126 932 l 143 932 q 271 811 169 811 q 399 932 372 811 l 415 932 l 447 892 z "},"˙":{"ha":339,"x_min":106,"x_max":232,"o":"m 171 919 q 215 903 199 919 q 232 857 232 886 q 215 808 232 826 q 167 790 197 790 q 106 854 106 790 q 123 901 106 883 q 171 919 140 919 z "},"˚":{"ha":540,"x_min":153,"x_max":386,"o":"m 271 968 q 356 937 325 968 q 386 856 386 906 q 352 770 386 801 q 267 739 318 739 q 185 769 217 739 q 153 853 153 799 q 185 937 153 906 q 271 968 217 968 m 268 914 q 206 854 206 914 q 223 808 206 824 q 269 792 240 792 q 315 807 297 792 q 332 851 332 822 q 268 914 332 914 z "},"˛":{"ha":540,"x_min":154,"x_max":400,"o":"m 251 -74 q 226 -143 226 -114 q 241 -183 226 -168 q 282 -199 256 -199 q 378 -146 329 -199 l 385 -146 l 400 -201 q 264 -274 331 -274 q 184 -243 214 -274 q 154 -162 154 -212 q 189 -61 154 -110 l 275 64 l 342 64 l 251 -74 z "},"˜":{"ha":540,"x_min":51,"x_max":489,"o":"m 489 881 l 404 785 l 390 781 q 274 808 360 783 q 175 832 194 832 q 154 823 165 832 q 119 790 143 814 l 97 767 l 85 767 l 51 803 l 51 813 l 136 908 l 150 913 q 265 885 183 910 q 365 863 351 863 q 421 903 383 863 l 444 926 l 456 926 l 489 892 l 489 881 z "},"˝":{"ha":540,"x_min":47,"x_max":493,"o":"m 47 754 q 235 968 113 824 l 244 969 l 296 932 l 296 921 q 96 722 208 829 l 83 721 l 47 754 m 243 754 q 431 968 319 835 l 442 969 l 493 932 l 492 921 q 292 722 404 829 l 281 721 l 243 754 z "},"̃":{"ha":0,"x_min":51,"x_max":489,"o":"m 489 881 l 403 783 l 389 779 q 276 807 375 781 q 175 832 190 832 q 154 823 165 832 q 119 790 143 814 l 97 767 l 85 767 l 51 803 l 51 813 l 138 908 l 151 914 q 265 886 183 911 q 365 863 344 863 q 421 903 383 863 l 444 926 l 456 926 l 489 892 l 489 881 z "},"̣":{"ha":0,"x_min":96,"x_max":222,"o":"m 161 -53 q 206 -69 189 -53 q 222 -115 222 -86 q 205 -164 222 -146 q 157 -182 188 -182 q 96 -118 96 -182 q 113 -71 96 -89 q 161 -53 131 -53 z "},"̦":{"ha":0,"x_min":57,"x_max":214,"o":"m 159 -32 q 213 -119 213 -65 q 92 -292 213 -203 l 57 -260 l 57 -251 q 128 -137 128 -195 q 88 -76 128 -102 l 88 -65 q 159 -32 124 -41 z "},"Δ":{"ha":803,"x_min":19,"x_max":772,"o":"m 19 0 l 344 890 l 474 890 l 772 0 l 19 0 m 154 93 l 635 93 l 413 775 l 403 775 l 154 93 z "},"Ω":{"ha":1033,"x_min":51,"x_max":981,"o":"m 526 899 q 738 847 651 899 q 867 706 825 794 q 910 510 910 617 q 860 282 910 393 q 718 92 811 171 l 721 86 l 860 86 l 974 96 l 981 88 l 967 -6 l 829 0 l 646 0 l 593 -3 l 586 3 l 586 92 q 740 275 685 163 q 794 503 794 388 q 724 722 794 636 q 517 808 653 808 q 310 723 381 808 q 239 504 239 638 q 293 276 239 389 q 444 92 347 163 l 444 3 l 439 -3 l 385 0 l 182 0 l 60 -4 l 51 6 l 67 94 l 186 86 l 311 86 l 313 92 q 172 275 221 168 q 124 496 124 382 q 169 698 124 606 q 306 844 215 790 q 526 899 397 899 z "},"μ":{"ha":710,"x_min":101,"x_max":679,"o":"m 667 19 q 585 -7 629 -7 q 490 83 508 -7 l 481 83 q 300 -8 396 10 q 204 15 244 -8 l 204 -257 l 101 -257 l 104 269 l 101 629 l 204 639 l 204 199 q 235 115 206 146 q 315 85 264 85 q 485 169 396 85 l 485 629 l 589 639 l 582 143 q 621 74 581 74 q 668 90 642 74 l 679 82 l 667 19 z "},"π":{"ha":871,"x_min":8,"x_max":818,"o":"m 661 143 q 701 74 661 74 q 753 90 724 74 l 764 83 l 751 19 q 669 -7 706 -7 q 563 131 563 -7 l 563 603 l 325 603 l 325 279 l 328 -129 l 221 -129 l 225 269 l 221 603 l 169 603 q 136 588 154 603 q 81 536 118 574 l 56 513 l 40 513 l 8 554 l 8 567 l 118 685 l 139 692 l 810 693 l 818 683 l 808 601 l 664 603 l 661 143 z "},"Ẁ":{"ha":1240,"x_min":29,"x_max":1228,"o":"m 497 1200 q 764 1057 621 1128 l 744 1007 l 731 1001 q 460 1121 583 1064 l 457 1132 l 485 1197 l 497 1200 m 794 0 l 621 517 l 611 517 l 428 0 l 313 0 l 29 890 l 139 890 l 156 804 l 372 124 l 382 124 l 574 665 l 497 890 l 611 890 l 633 794 l 853 124 l 861 124 l 1103 799 l 1124 890 l 1228 890 l 910 0 l 794 0 z "},"ẁ":{"ha":1067,"x_min":46,"x_max":1040,"o":"m 417 1024 q 644 822 508 933 l 614 778 l 601 776 q 365 953 503 846 l 363 964 l 404 1022 l 417 1024 m 671 0 l 535 378 l 528 378 l 383 0 l 272 0 l 46 692 l 151 692 l 164 618 l 332 115 l 340 115 l 492 519 l 435 692 l 542 692 l 557 610 l 726 115 l 736 115 l 922 613 l 940 692 l 1040 692 l 782 0 l 671 0 z "},"Ẃ":{"ha":1240,"x_min":29,"x_max":1229,"o":"m 794 0 l 621 517 l 611 517 l 428 0 l 313 0 l 29 890 l 140 890 l 156 804 l 372 124 l 382 124 l 574 665 l 499 890 l 613 890 l 633 794 l 853 124 l 861 124 l 1103 799 l 1124 890 l 1229 890 l 910 0 l 794 0 m 801 1131 l 799 1119 q 528 1000 675 1063 l 514 1006 l 494 1056 q 761 1199 638 1126 l 774 1196 l 801 1131 z "},"ẃ":{"ha":1067,"x_min":46,"x_max":1040,"o":"m 671 0 l 535 378 l 526 378 l 383 0 l 272 0 l 46 692 l 150 692 l 163 618 l 332 115 l 339 115 l 490 519 l 433 692 l 542 692 l 557 610 l 726 115 l 735 115 l 922 613 l 939 692 l 1040 692 l 782 0 l 671 0 m 685 964 l 682 953 q 446 776 544 846 l 433 778 l 403 822 q 631 1024 539 933 l 643 1022 l 685 964 z "},"Ẅ":{"ha":1240,"x_min":29,"x_max":1228,"o":"m 504 1157 q 547 1142 532 1157 q 563 1099 563 1126 q 546 1051 563 1069 q 500 1033 529 1033 q 457 1050 472 1033 q 442 1094 442 1067 q 458 1140 442 1122 q 504 1157 475 1157 m 722 1157 q 765 1142 750 1157 q 781 1099 781 1126 q 764 1051 781 1069 q 718 1033 747 1033 q 675 1050 690 1033 q 660 1094 660 1067 q 676 1140 660 1122 q 722 1157 693 1157 m 794 0 l 621 517 l 611 517 l 428 0 l 313 0 l 29 890 l 139 890 l 156 804 l 372 124 l 382 124 l 574 665 l 497 890 l 611 890 l 633 794 l 853 124 l 861 124 l 1103 799 l 1124 890 l 1228 890 l 910 0 l 794 0 z "},"ẅ":{"ha":1067,"x_min":46,"x_max":1040,"o":"m 399 960 q 442 944 426 960 q 457 901 457 929 q 440 854 457 872 q 394 836 424 836 q 351 853 367 836 q 336 897 336 869 q 353 942 336 925 q 399 960 369 960 m 617 960 q 660 944 644 960 q 675 901 675 929 q 658 854 675 872 q 613 836 642 836 q 569 853 585 836 q 554 897 554 869 q 571 942 554 925 q 617 960 588 960 m 671 0 l 535 378 l 528 378 l 383 0 l 272 0 l 46 692 l 151 692 l 164 618 l 332 115 l 340 115 l 492 519 l 435 692 l 542 692 l 557 610 l 726 115 l 736 115 l 922 613 l 940 692 l 1040 692 l 782 0 l 671 0 z "},"ẞ":{"ha":876,"x_min":100,"x_max":835,"o":"m 444 897 q 771 811 589 897 l 776 789 l 544 506 q 764 400 693 460 q 835 238 835 340 q 798 106 835 163 q 698 20 761 50 q 558 -10 635 -10 q 326 53 433 -10 l 340 167 l 356 174 q 459 106 401 131 q 568 81 517 81 q 681 122 638 81 q 725 226 725 164 q 652 351 725 301 q 411 444 579 400 l 404 468 l 636 758 q 442 806 536 806 q 272 748 332 806 q 211 589 211 690 l 208 279 l 213 0 l 100 0 l 108 264 l 104 589 q 144 751 103 681 q 263 859 185 821 q 444 897 340 897 z "},"Ạ":{"ha":803,"x_min":19,"x_max":774,"o":"m 658 0 l 639 89 l 589 242 l 388 246 l 207 242 l 153 94 l 131 0 l 19 0 l 347 890 l 476 890 l 774 0 l 658 0 m 413 775 l 403 775 l 242 336 l 397 333 l 557 336 l 413 775 m 399 -97 q 443 -114 426 -97 q 460 -160 460 -131 q 442 -208 460 -190 q 394 -226 425 -226 q 333 -162 333 -226 q 351 -115 333 -133 q 399 -97 368 -97 z "},"ạ":{"ha":711,"x_min":35,"x_max":665,"o":"m 560 0 l 543 75 l 507 178 l 342 179 l 194 178 l 157 81 l 138 0 l 35 0 l 301 692 l 421 692 l 665 0 l 560 0 m 363 590 l 354 590 l 228 263 l 350 261 l 478 263 l 363 590 m 354 -97 q 399 -114 382 -97 q 415 -160 415 -131 q 398 -208 415 -190 q 350 -226 381 -226 q 289 -162 289 -226 q 306 -115 289 -133 q 354 -97 324 -97 z "},"Ả":{"ha":803,"x_min":19,"x_max":772,"o":"m 658 0 l 638 89 l 588 242 l 388 246 l 207 242 l 153 94 l 131 0 l 19 0 l 346 890 l 475 890 l 772 0 l 658 0 m 413 775 l 403 775 l 242 336 l 397 333 l 557 336 l 413 775 m 397 1242 q 460 1219 435 1242 q 485 1163 485 1196 q 413 1058 485 1118 l 440 1011 l 392 985 l 347 1061 q 417 1151 417 1111 q 381 1181 417 1181 q 300 1147 339 1181 l 278 1183 q 397 1242 333 1242 z "},"ả":{"ha":711,"x_min":35,"x_max":664,"o":"m 560 0 l 543 75 l 507 178 l 342 179 l 194 178 l 157 81 l 138 0 l 35 0 l 301 692 l 421 692 l 664 0 l 560 0 m 363 590 l 354 590 l 228 263 l 350 261 l 478 263 l 363 590 m 357 1044 q 419 1022 394 1044 q 444 965 444 999 q 372 861 444 921 l 400 814 l 351 788 l 307 864 q 376 954 376 914 q 340 983 376 983 q 260 950 299 983 l 238 986 q 357 1044 293 1044 z "},"Ấ":{"ha":803,"x_min":19,"x_max":772,"o":"m 658 0 l 638 89 l 588 242 l 388 246 l 207 242 l 153 94 l 131 0 l 19 0 l 346 890 l 475 890 l 772 0 l 658 0 m 413 775 l 403 775 l 242 336 l 397 333 l 557 336 l 413 775 m 640 1276 l 526 1138 l 515 1138 l 476 1169 l 574 1313 l 585 1315 l 639 1288 l 640 1276 m 224 1038 q 385 1164 317 1101 l 417 1164 q 579 1038 479 1108 l 557 990 l 544 990 q 401 1082 467 1038 q 260 990 347 1044 l 246 990 l 224 1038 z "},"ấ":{"ha":711,"x_min":35,"x_max":664,"o":"m 560 0 l 543 75 l 507 178 l 342 179 l 194 178 l 157 81 l 138 0 l 35 0 l 301 692 l 421 692 l 664 0 l 560 0 m 363 590 l 354 590 l 228 263 l 350 261 l 478 263 l 363 590 m 600 1079 l 486 940 l 475 940 l 436 972 l 533 1115 l 544 1118 l 599 1090 l 600 1079 m 183 840 q 344 967 276 904 l 376 967 q 539 840 439 911 l 517 793 l 504 793 q 361 885 426 840 q 219 793 307 847 l 206 793 l 183 840 z "},"Ầ":{"ha":803,"x_min":19,"x_max":772,"o":"m 658 0 l 638 89 l 588 242 l 388 246 l 207 242 l 153 94 l 131 0 l 19 0 l 346 890 l 475 890 l 772 0 l 658 0 m 413 775 l 403 775 l 242 336 l 397 333 l 557 336 l 413 775 m 594 1169 l 554 1138 l 544 1138 l 431 1276 l 432 1288 l 488 1315 l 497 1313 l 594 1169 m 224 1038 q 385 1164 317 1101 l 417 1164 q 579 1038 479 1108 l 557 990 l 544 990 q 401 1082 467 1038 q 260 990 347 1044 l 246 990 l 224 1038 z "},"ầ":{"ha":711,"x_min":35,"x_max":664,"o":"m 560 0 l 543 75 l 507 178 l 342 179 l 194 178 l 157 81 l 138 0 l 35 0 l 301 692 l 421 692 l 664 0 l 560 0 m 363 590 l 354 590 l 228 263 l 350 261 l 478 263 l 363 590 m 554 972 l 514 940 l 504 940 l 390 1079 l 392 1090 l 447 1118 l 457 1115 l 554 972 m 183 840 q 344 967 276 904 l 376 967 q 539 840 439 911 l 517 793 l 504 793 q 361 885 426 840 q 219 793 307 847 l 206 793 l 183 840 z "},"Ẩ":{"ha":803,"x_min":19,"x_max":774,"o":"m 518 1310 q 442 1278 481 1310 l 421 1313 q 533 1367 472 1367 q 593 1346 569 1367 q 617 1293 617 1325 q 549 1193 617 1249 l 575 1149 l 529 1124 l 488 1196 q 554 1282 554 1244 q 518 1310 554 1310 m 224 1038 q 385 1164 317 1101 l 417 1164 q 579 1038 479 1108 l 557 990 l 544 990 q 401 1082 467 1038 q 260 990 347 1044 l 246 990 l 224 1038 m 658 0 l 639 89 l 589 242 l 388 246 l 207 242 l 153 94 l 131 0 l 19 0 l 347 890 l 476 890 l 774 0 l 658 0 m 413 775 l 403 775 l 242 336 l 397 333 l 557 336 l 413 775 z "},"ẩ":{"ha":711,"x_min":35,"x_max":665,"o":"m 478 1113 q 401 1081 440 1113 l 381 1115 q 493 1169 432 1169 q 553 1149 529 1169 q 576 1096 576 1128 q 508 996 576 1051 l 535 951 l 489 926 l 447 999 q 514 1085 514 1047 q 478 1113 514 1113 m 183 840 q 344 967 276 904 l 376 967 q 539 840 439 911 l 517 793 l 504 793 q 361 885 426 840 q 219 793 307 847 l 206 793 l 183 840 m 560 0 l 543 75 l 507 178 l 342 179 l 194 178 l 157 81 l 138 0 l 35 0 l 301 692 l 421 692 l 665 0 l 560 0 m 363 590 l 354 590 l 228 263 l 350 261 l 478 263 l 363 590 z "},"Ẫ":{"ha":803,"x_min":19,"x_max":774,"o":"m 203 1221 l 203 1232 l 282 1325 l 294 1328 q 407 1300 328 1325 q 497 1279 479 1279 q 519 1289 508 1279 q 546 1315 531 1299 q 571 1342 561 1332 l 582 1342 l 613 1308 l 613 1297 l 533 1204 l 521 1200 q 410 1228 489 1203 q 319 1250 335 1250 q 265 1208 301 1250 l 246 1188 l 235 1188 l 203 1221 m 417 1164 q 579 1038 479 1108 l 557 990 l 544 990 q 401 1082 467 1038 q 260 990 347 1044 l 246 990 l 224 1038 q 385 1164 317 1101 l 417 1164 m 658 0 l 639 89 l 589 242 l 388 246 l 207 242 l 153 94 l 131 0 l 19 0 l 347 890 l 476 890 l 774 0 l 658 0 m 413 775 l 403 775 l 242 336 l 397 333 l 557 336 l 413 775 z "},"ẫ":{"ha":711,"x_min":35,"x_max":665,"o":"m 163 1024 l 163 1035 l 242 1128 l 254 1131 q 367 1103 288 1128 q 457 1082 440 1082 q 479 1092 468 1082 q 506 1118 490 1101 q 531 1144 521 1135 l 542 1144 l 572 1111 l 572 1100 l 493 1007 l 481 1003 q 369 1031 449 1006 q 279 1053 294 1053 q 225 1011 261 1053 l 206 990 l 194 990 l 163 1024 m 376 967 q 539 840 439 911 l 517 793 l 504 793 q 361 885 426 840 q 219 793 307 847 l 206 793 l 183 840 q 344 967 276 904 l 376 967 m 560 0 l 543 75 l 507 178 l 342 179 l 194 178 l 157 81 l 138 0 l 35 0 l 301 692 l 421 692 l 665 0 l 560 0 m 363 590 l 354 590 l 228 263 l 350 261 l 478 263 l 363 590 z "},"Ậ":{"ha":803,"x_min":19,"x_max":774,"o":"m 224 1064 q 385 1190 317 1128 l 417 1190 q 579 1064 479 1135 l 557 1017 l 544 1017 q 401 1108 467 1064 q 260 1017 347 1071 l 246 1017 l 224 1064 m 658 0 l 639 89 l 589 242 l 388 246 l 207 242 l 153 94 l 131 0 l 19 0 l 347 890 l 476 890 l 774 0 l 658 0 m 413 775 l 403 775 l 242 336 l 397 333 l 557 336 l 413 775 m 399 -97 q 443 -114 426 -97 q 460 -160 460 -131 q 442 -208 460 -190 q 394 -226 425 -226 q 333 -162 333 -226 q 351 -115 333 -133 q 399 -97 368 -97 z "},"ậ":{"ha":711,"x_min":35,"x_max":665,"o":"m 178 826 q 347 1013 258 907 l 381 1013 q 549 826 467 906 l 518 782 l 506 782 q 364 926 419 864 q 222 782 311 868 l 208 782 l 178 826 m 560 0 l 543 75 l 507 178 l 342 179 l 194 178 l 157 81 l 138 0 l 35 0 l 301 692 l 421 692 l 665 0 l 560 0 m 363 590 l 354 590 l 228 263 l 350 261 l 478 263 l 363 590 m 354 -97 q 399 -114 382 -97 q 415 -160 415 -131 q 398 -208 415 -190 q 350 -226 381 -226 q 289 -162 289 -226 q 306 -115 289 -133 q 354 -97 324 -97 z "},"Ắ":{"ha":803,"x_min":19,"x_max":772,"o":"m 658 0 l 638 89 l 588 242 l 388 246 l 207 242 l 153 94 l 131 0 l 19 0 l 346 890 l 475 890 l 772 0 l 658 0 m 413 775 l 403 775 l 242 336 l 397 333 l 557 336 l 413 775 m 532 1271 q 396 1135 465 1203 l 385 1135 l 347 1165 q 469 1317 426 1261 l 479 1318 l 531 1282 l 532 1271 m 579 1103 q 511 1010 557 1043 q 400 978 465 978 q 292 1010 336 978 q 228 1103 247 1042 l 258 1142 l 275 1142 q 404 1057 306 1057 q 531 1142 497 1057 l 547 1142 l 579 1103 z "},"ắ":{"ha":711,"x_min":35,"x_max":664,"o":"m 560 0 l 543 75 l 507 178 l 342 179 l 194 178 l 157 81 l 138 0 l 35 0 l 301 692 l 421 692 l 664 0 l 560 0 m 363 590 l 354 590 l 228 263 l 350 261 l 478 263 l 363 590 m 492 1074 q 356 938 425 1006 l 344 938 l 307 968 q 429 1119 386 1064 l 439 1121 l 490 1085 l 492 1074 m 539 906 q 471 813 517 846 q 360 781 425 781 q 251 813 296 781 q 188 906 207 844 l 218 944 l 235 944 q 364 860 265 860 q 490 944 457 860 l 507 944 l 539 906 z "},"Ằ":{"ha":803,"x_min":19,"x_max":772,"o":"m 658 0 l 638 89 l 588 242 l 388 246 l 207 242 l 153 94 l 131 0 l 19 0 l 346 890 l 475 890 l 772 0 l 658 0 m 413 775 l 403 775 l 242 336 l 397 333 l 557 336 l 413 775 m 333 1317 q 456 1165 397 1233 l 417 1135 l 406 1135 l 271 1271 l 271 1282 l 322 1318 l 333 1317 m 579 1103 q 511 1010 557 1043 q 400 978 465 978 q 292 1010 336 978 q 228 1103 247 1042 l 258 1142 l 275 1142 q 404 1057 306 1057 q 531 1142 497 1057 l 547 1142 l 579 1103 z "},"ằ":{"ha":711,"x_min":35,"x_max":664,"o":"m 560 0 l 543 75 l 507 178 l 342 179 l 194 178 l 157 81 l 138 0 l 35 0 l 301 692 l 421 692 l 664 0 l 560 0 m 363 590 l 354 590 l 228 263 l 350 261 l 478 263 l 363 590 m 293 1119 q 415 968 357 1036 l 376 938 l 365 938 l 231 1074 l 231 1085 l 282 1121 l 293 1119 m 539 906 q 471 813 517 846 q 360 781 425 781 q 251 813 296 781 q 188 906 207 844 l 218 944 l 235 944 q 364 860 265 860 q 490 944 457 860 l 507 944 l 539 906 z "},"Ẳ":{"ha":803,"x_min":19,"x_max":774,"o":"m 388 1325 q 307 1292 347 1325 l 285 1328 q 404 1386 340 1386 q 467 1363 442 1386 q 492 1307 492 1340 q 419 1203 492 1263 l 447 1156 l 399 1129 l 354 1206 q 424 1296 424 1256 q 388 1325 424 1325 m 400 978 q 292 1010 336 978 q 228 1103 247 1042 l 258 1142 l 275 1142 q 404 1057 306 1057 q 531 1142 497 1057 l 547 1142 l 579 1103 q 511 1010 557 1043 q 400 978 465 978 m 658 0 l 639 89 l 589 242 l 388 246 l 207 242 l 153 94 l 131 0 l 19 0 l 347 890 l 476 890 l 774 0 l 658 0 m 413 775 l 403 775 l 242 336 l 397 333 l 557 336 l 413 775 z "},"ẳ":{"ha":711,"x_min":35,"x_max":665,"o":"m 347 1128 q 267 1094 307 1128 l 244 1131 q 364 1189 300 1189 q 426 1166 401 1189 q 451 1110 451 1143 q 379 1006 451 1065 l 407 958 l 358 932 l 314 1008 q 383 1099 383 1058 q 347 1128 383 1128 m 360 781 q 251 813 296 781 q 188 906 207 844 l 218 944 l 235 944 q 364 860 265 860 q 490 944 457 860 l 507 944 l 539 906 q 471 813 517 846 q 360 781 425 781 m 560 0 l 543 75 l 507 178 l 342 179 l 194 178 l 157 81 l 138 0 l 35 0 l 301 692 l 421 692 l 665 0 l 560 0 m 363 590 l 354 590 l 228 263 l 350 261 l 478 263 l 363 590 z "},"Ẵ":{"ha":803,"x_min":19,"x_max":774,"o":"m 203 1221 l 203 1232 l 282 1325 l 294 1328 q 407 1300 328 1325 q 497 1279 479 1279 q 519 1289 508 1279 q 546 1315 531 1299 q 571 1342 561 1332 l 582 1342 l 613 1308 l 613 1297 l 533 1204 l 521 1200 q 410 1228 489 1203 q 319 1250 335 1250 q 265 1208 301 1250 l 246 1188 l 235 1188 l 203 1221 m 406 1057 q 531 1139 499 1057 l 547 1139 l 576 1101 q 510 1010 556 1042 q 403 979 465 979 q 233 1101 272 979 l 264 1139 l 281 1139 q 406 1057 308 1057 m 658 0 l 639 89 l 589 242 l 388 246 l 207 242 l 153 94 l 131 0 l 19 0 l 347 890 l 476 890 l 774 0 l 658 0 m 413 775 l 403 775 l 242 336 l 397 333 l 557 336 l 413 775 z "},"ẵ":{"ha":711,"x_min":35,"x_max":665,"o":"m 163 1024 l 163 1035 l 242 1128 l 254 1131 q 367 1103 288 1128 q 457 1082 440 1082 q 479 1092 468 1082 q 506 1118 490 1101 q 531 1144 521 1135 l 542 1144 l 572 1111 l 572 1100 l 493 1007 l 481 1003 q 369 1031 449 1006 q 279 1053 294 1053 q 225 1011 261 1053 l 206 990 l 194 990 l 163 1024 m 365 860 q 490 942 458 860 l 507 942 l 536 904 q 470 813 515 844 q 363 782 425 782 q 193 904 232 782 l 224 942 l 240 942 q 365 860 268 860 m 560 0 l 543 75 l 507 178 l 342 179 l 194 178 l 157 81 l 138 0 l 35 0 l 301 692 l 421 692 l 665 0 l 560 0 m 363 590 l 354 590 l 228 263 l 350 261 l 478 263 l 363 590 z "},"Ặ":{"ha":803,"x_min":19,"x_max":774,"o":"m 400 1004 q 291 1037 336 1004 q 226 1131 246 1069 l 257 1168 l 275 1168 q 404 1085 304 1085 q 531 1168 497 1085 l 547 1168 l 578 1131 q 510 1037 557 1069 q 400 1004 464 1004 m 658 0 l 639 89 l 589 242 l 388 246 l 207 242 l 153 94 l 131 0 l 19 0 l 347 890 l 476 890 l 774 0 l 658 0 m 413 775 l 403 775 l 242 336 l 397 333 l 557 336 l 413 775 m 399 -97 q 443 -114 426 -97 q 460 -160 460 -131 q 442 -208 460 -190 q 394 -226 425 -226 q 333 -162 333 -226 q 351 -115 333 -133 q 399 -97 368 -97 z "},"ặ":{"ha":711,"x_min":35,"x_max":665,"o":"m 361 788 q 189 947 221 788 l 219 988 l 236 988 q 364 867 263 867 q 492 988 465 867 l 508 988 l 540 947 q 361 788 503 788 m 560 0 l 543 75 l 507 178 l 342 179 l 194 178 l 157 81 l 138 0 l 35 0 l 301 692 l 421 692 l 665 0 l 560 0 m 363 590 l 354 590 l 228 263 l 350 261 l 478 263 l 363 590 m 354 -97 q 399 -114 382 -97 q 415 -160 415 -131 q 398 -208 415 -190 q 350 -226 381 -226 q 289 -162 289 -226 q 306 -115 289 -133 q 354 -97 324 -97 z "},"Ẹ":{"ha":669,"x_min":129,"x_max":638,"o":"m 638 86 l 629 0 l 129 0 l 136 268 l 129 890 l 631 890 l 638 879 l 628 793 l 418 797 l 242 794 l 239 503 l 406 500 l 553 504 l 560 494 l 551 408 l 396 411 l 238 410 l 236 278 l 240 93 l 418 92 l 631 97 l 638 86 m 392 -97 q 436 -114 419 -97 q 453 -160 453 -131 q 435 -208 453 -190 q 388 -226 418 -226 q 326 -162 326 -226 q 344 -115 326 -133 q 392 -97 361 -97 z "},"ẹ":{"ha":604,"x_min":125,"x_max":556,"o":"m 556 81 l 546 0 l 125 0 l 129 208 l 125 692 l 549 692 l 556 683 l 547 603 l 372 608 l 229 607 l 228 397 l 365 396 l 486 400 l 492 390 l 485 308 l 356 313 l 226 311 l 225 217 l 228 85 l 361 83 l 547 89 l 556 81 m 342 -97 q 386 -114 369 -97 q 403 -160 403 -131 q 385 -208 403 -190 q 338 -226 368 -226 q 276 -162 276 -226 q 294 -115 276 -133 q 342 -97 311 -97 z "},"Ẻ":{"ha":669,"x_min":129,"x_max":638,"o":"m 629 0 l 129 0 l 136 268 l 129 890 l 631 890 l 636 879 l 628 793 l 418 797 l 242 794 l 239 503 l 406 500 l 553 504 l 561 494 l 551 408 l 396 411 l 238 410 l 236 278 l 240 93 l 417 92 l 631 97 l 638 86 l 629 0 m 375 1242 q 438 1219 413 1242 q 463 1163 463 1196 q 390 1058 463 1118 l 418 1011 l 369 985 l 325 1061 q 394 1151 394 1111 q 358 1181 394 1181 q 278 1147 317 1181 l 256 1183 q 375 1242 311 1242 z "},"ẻ":{"ha":604,"x_min":125,"x_max":556,"o":"m 556 81 l 546 0 l 125 0 l 129 208 l 125 692 l 549 692 l 556 683 l 547 603 l 372 608 l 228 607 l 226 397 l 364 396 l 485 400 l 492 390 l 483 308 l 356 313 l 226 311 l 225 217 l 226 85 l 363 83 l 547 89 l 556 81 m 332 1044 q 394 1022 369 1044 q 419 965 419 999 q 347 861 419 921 l 375 814 l 326 788 l 282 864 q 351 954 351 914 q 315 983 351 983 q 235 950 274 983 l 213 986 q 332 1044 268 1044 z "},"Ẽ":{"ha":669,"x_min":129,"x_max":638,"o":"m 629 0 l 129 0 l 136 268 l 129 890 l 631 890 l 636 879 l 628 793 l 418 797 l 242 794 l 239 503 l 406 500 l 553 504 l 561 494 l 551 408 l 396 411 l 238 410 l 236 278 l 240 93 l 417 92 l 631 97 l 638 86 l 629 0 m 599 1133 l 514 1038 l 500 1033 q 383 1061 469 1036 q 285 1085 304 1085 q 264 1076 275 1085 q 229 1043 253 1067 l 207 1019 l 194 1019 l 161 1056 l 161 1065 l 246 1161 l 260 1165 q 375 1138 293 1163 q 475 1115 461 1115 q 531 1156 493 1115 l 554 1179 l 565 1179 l 599 1144 l 599 1133 z "},"ẽ":{"ha":604,"x_min":117,"x_max":556,"o":"m 556 81 l 546 0 l 125 0 l 129 208 l 125 692 l 549 692 l 556 683 l 547 603 l 372 608 l 228 607 l 226 397 l 364 396 l 485 400 l 492 390 l 483 308 l 356 313 l 226 311 l 225 217 l 226 85 l 363 83 l 547 89 l 556 81 m 554 936 l 469 840 l 456 836 q 339 864 425 839 q 240 888 260 888 q 219 878 231 888 q 185 846 208 869 l 163 822 l 150 822 l 117 858 l 117 868 l 201 964 l 215 968 q 331 940 249 965 q 431 918 417 918 q 486 958 449 918 l 510 982 l 521 982 l 554 947 l 554 936 z "},"Ế":{"ha":669,"x_min":129,"x_max":638,"o":"m 629 0 l 129 0 l 136 268 l 129 890 l 631 890 l 636 879 l 628 793 l 418 797 l 242 794 l 239 503 l 406 500 l 553 504 l 561 494 l 551 408 l 396 411 l 238 410 l 236 278 l 240 93 l 417 92 l 631 97 l 638 86 l 629 0 m 618 1276 l 504 1138 l 493 1138 l 454 1169 l 551 1313 l 563 1315 l 617 1288 l 618 1276 m 201 1038 q 363 1164 294 1101 l 394 1164 q 557 1038 457 1108 l 535 990 l 522 990 q 379 1082 444 1038 q 238 990 325 1044 l 224 990 l 201 1038 z "},"ế":{"ha":604,"x_min":125,"x_max":574,"o":"m 556 81 l 546 0 l 125 0 l 129 208 l 125 692 l 549 692 l 556 683 l 547 603 l 372 608 l 228 607 l 226 397 l 364 396 l 485 400 l 492 390 l 483 308 l 356 313 l 226 311 l 225 217 l 226 85 l 363 83 l 547 89 l 556 81 m 574 1079 l 460 940 l 449 940 l 410 972 l 507 1115 l 518 1118 l 572 1090 l 574 1079 m 157 840 q 318 967 250 904 l 350 967 q 513 840 413 911 l 490 793 l 478 793 q 335 885 400 840 q 193 793 281 847 l 179 793 l 157 840 z "},"Ề":{"ha":669,"x_min":129,"x_max":638,"o":"m 629 0 l 129 0 l 136 268 l 129 890 l 631 890 l 636 879 l 628 793 l 418 797 l 242 794 l 239 503 l 406 500 l 553 504 l 561 494 l 551 408 l 396 411 l 238 410 l 236 278 l 240 93 l 417 92 l 631 97 l 638 86 l 629 0 m 572 1169 l 532 1138 l 522 1138 l 408 1276 l 410 1288 l 465 1315 l 475 1313 l 572 1169 m 201 1038 q 363 1164 294 1101 l 394 1164 q 557 1038 457 1108 l 535 990 l 522 990 q 379 1082 444 1038 q 238 990 325 1044 l 224 990 l 201 1038 z "},"ề":{"ha":604,"x_min":125,"x_max":556,"o":"m 556 81 l 546 0 l 125 0 l 129 208 l 125 692 l 549 692 l 556 683 l 547 603 l 372 608 l 228 607 l 226 397 l 364 396 l 485 400 l 492 390 l 483 308 l 356 313 l 226 311 l 225 217 l 226 85 l 363 83 l 547 89 l 556 81 m 528 972 l 488 940 l 478 940 l 364 1079 l 365 1090 l 421 1118 l 431 1115 l 528 972 m 157 840 q 318 967 250 904 l 350 967 q 513 840 413 911 l 490 793 l 478 793 q 335 885 400 840 q 193 793 281 847 l 179 793 l 157 840 z "},"Ể":{"ha":669,"x_min":129,"x_max":638,"o":"m 496 1310 q 419 1278 458 1310 l 399 1313 q 511 1367 450 1367 q 571 1346 547 1367 q 594 1293 594 1325 q 526 1193 594 1249 l 553 1149 l 507 1124 l 465 1196 q 532 1282 532 1244 q 496 1310 532 1310 m 201 1038 q 363 1164 294 1101 l 394 1164 q 557 1038 457 1108 l 535 990 l 522 990 q 379 1082 444 1038 q 238 990 325 1044 l 224 990 l 201 1038 m 638 86 l 629 0 l 129 0 l 136 268 l 129 890 l 631 890 l 638 879 l 628 793 l 418 797 l 242 794 l 239 503 l 406 500 l 553 504 l 560 494 l 551 408 l 396 411 l 238 410 l 236 278 l 240 93 l 418 92 l 631 97 l 638 86 z "},"ể":{"ha":604,"x_min":125,"x_max":556,"o":"m 451 1113 q 375 1081 414 1113 l 354 1115 q 467 1169 406 1169 q 526 1149 503 1169 q 550 1096 550 1128 q 482 996 550 1051 l 508 951 l 463 926 l 421 999 q 488 1085 488 1047 q 451 1113 488 1113 m 157 840 q 318 967 250 904 l 350 967 q 513 840 413 911 l 490 793 l 478 793 q 335 885 400 840 q 193 793 281 847 l 179 793 l 157 840 m 556 81 l 546 0 l 125 0 l 129 208 l 125 692 l 549 692 l 556 683 l 547 603 l 372 608 l 229 607 l 228 397 l 365 396 l 486 400 l 492 390 l 485 308 l 356 313 l 226 311 l 225 217 l 228 85 l 361 83 l 547 89 l 556 81 z "},"Ễ":{"ha":669,"x_min":129,"x_max":638,"o":"m 629 0 l 129 0 l 136 268 l 129 890 l 631 890 l 636 879 l 628 793 l 418 797 l 242 794 l 239 503 l 406 500 l 553 504 l 561 494 l 551 408 l 396 411 l 238 410 l 236 278 l 240 93 l 417 92 l 631 97 l 638 86 l 629 0 m 572 1169 l 532 1138 l 522 1138 l 408 1276 l 410 1288 l 465 1315 l 475 1313 l 572 1169 m 201 1038 q 363 1164 294 1101 l 394 1164 q 557 1038 457 1108 l 535 990 l 522 990 q 379 1082 444 1038 q 238 990 325 1044 l 224 990 l 201 1038 z "},"ễ":{"ha":604,"x_min":125,"x_max":556,"o":"m 136 1024 l 136 1035 l 215 1128 l 228 1131 q 340 1103 261 1128 q 431 1082 414 1082 q 453 1092 442 1082 q 479 1118 464 1101 q 504 1144 494 1135 l 515 1144 l 546 1111 l 546 1100 l 467 1007 l 454 1003 q 343 1031 422 1006 q 253 1053 268 1053 q 199 1011 235 1053 l 179 990 l 168 990 l 136 1024 m 350 967 q 513 840 413 911 l 490 793 l 478 793 q 335 885 400 840 q 193 793 281 847 l 179 793 l 157 840 q 318 967 250 904 l 350 967 m 556 81 l 546 0 l 125 0 l 129 208 l 125 692 l 549 692 l 556 683 l 547 603 l 372 608 l 229 607 l 228 397 l 365 396 l 486 400 l 492 390 l 485 308 l 356 313 l 226 311 l 225 217 l 228 85 l 361 83 l 547 89 l 556 81 z "},"Ệ":{"ha":669,"x_min":129,"x_max":638,"o":"m 203 1065 q 364 1192 296 1129 l 396 1192 q 558 1065 458 1136 l 536 1018 l 524 1018 q 381 1110 446 1065 q 239 1018 326 1072 l 225 1018 l 203 1065 m 638 86 l 629 0 l 129 0 l 136 268 l 129 890 l 631 890 l 638 879 l 628 793 l 418 797 l 242 794 l 239 503 l 406 500 l 553 504 l 560 494 l 551 408 l 396 411 l 238 410 l 236 278 l 240 93 l 418 92 l 631 97 l 638 86 m 392 -97 q 436 -114 419 -97 q 453 -160 453 -131 q 435 -208 453 -190 q 388 -226 418 -226 q 326 -162 326 -226 q 344 -115 326 -133 q 392 -97 361 -97 z "},"ệ":{"ha":604,"x_min":125,"x_max":556,"o":"m 151 826 q 321 1013 231 906 l 354 1013 q 522 826 440 906 l 492 782 l 479 782 q 338 926 393 864 q 196 782 285 868 l 182 782 l 151 826 m 556 81 l 546 0 l 125 0 l 129 208 l 125 692 l 549 692 l 556 683 l 547 603 l 372 608 l 229 607 l 228 397 l 365 396 l 486 400 l 492 390 l 485 308 l 356 313 l 226 311 l 225 217 l 228 85 l 361 83 l 547 89 l 556 81 m 342 -97 q 386 -114 369 -97 q 403 -160 403 -131 q 385 -208 403 -190 q 338 -226 368 -226 q 276 -162 276 -226 q 294 -115 276 -133 q 342 -97 311 -97 z "},"Ỉ":{"ha":372,"x_min":61,"x_max":268,"o":"m 242 0 l 129 0 l 136 268 l 129 890 l 243 890 l 236 278 l 242 0 m 181 1242 q 243 1219 218 1242 q 268 1163 268 1196 q 196 1058 268 1118 l 224 1011 l 175 985 l 131 1061 q 200 1151 200 1111 q 164 1181 200 1181 q 83 1147 122 1181 l 61 1183 q 181 1242 117 1242 z "},"ỉ":{"ha":360,"x_min":57,"x_max":264,"o":"m 228 0 l 125 0 l 129 208 l 125 692 l 229 692 l 225 217 l 228 0 m 176 1044 q 239 1022 214 1044 q 264 965 264 999 q 192 861 264 921 l 219 814 l 171 788 l 126 864 q 196 954 196 914 q 160 983 196 983 q 79 950 118 983 l 57 986 q 176 1044 113 1044 z "},"Ị":{"ha":372,"x_min":115,"x_max":243,"o":"m 242 0 l 129 0 l 136 268 l 129 890 l 243 890 l 236 278 l 242 0 m 181 -97 q 225 -114 208 -97 q 242 -160 242 -131 q 224 -208 242 -190 q 176 -226 207 -226 q 115 -162 115 -226 q 133 -115 115 -133 q 181 -97 150 -97 z "},"ị":{"ha":360,"x_min":113,"x_max":239,"o":"m 229 0 l 125 0 l 129 208 l 125 692 l 231 692 l 225 217 l 229 0 m 178 -97 q 222 -114 206 -97 q 239 -160 239 -131 q 222 -208 239 -190 q 174 -226 204 -226 q 113 -162 113 -226 q 130 -115 113 -133 q 178 -97 147 -97 z "},"Ọ":{"ha":882,"x_min":53,"x_max":831,"o":"m 453 899 q 733 786 635 899 q 831 463 831 674 q 726 113 831 236 q 431 -11 622 -11 q 151 106 250 -11 q 53 438 53 222 q 156 779 53 660 q 453 899 260 899 m 443 807 q 167 451 167 807 q 438 82 167 82 q 715 443 715 82 q 648 717 715 628 q 443 807 581 807 m 442 -97 q 486 -114 469 -97 q 503 -160 503 -131 q 485 -208 503 -190 q 438 -226 468 -226 q 376 -162 376 -226 q 394 -115 376 -133 q 442 -97 411 -97 z "},"ọ":{"ha":774,"x_min":63,"x_max":711,"o":"m 397 700 q 630 611 549 700 q 711 360 711 522 q 624 87 711 183 q 376 -10 538 -10 q 144 81 226 -10 q 63 340 63 172 q 149 606 63 513 q 397 700 236 700 m 388 613 q 224 550 278 613 q 171 353 171 488 q 224 143 171 208 q 385 78 276 78 q 550 142 496 78 q 604 342 604 206 q 551 547 604 482 q 388 613 497 613 m 392 -97 q 436 -114 419 -97 q 453 -160 453 -131 q 435 -208 453 -190 q 388 -226 418 -226 q 326 -162 326 -226 q 344 -115 326 -133 q 392 -97 361 -97 z "},"Ỏ":{"ha":882,"x_min":53,"x_max":831,"o":"m 453 899 q 733 786 635 899 q 831 463 831 674 q 726 113 831 236 q 431 -11 622 -11 q 151 106 250 -11 q 53 438 53 222 q 156 779 53 660 q 453 899 260 899 m 443 807 q 167 451 167 807 q 438 82 167 82 q 715 443 715 82 q 648 717 715 628 q 443 807 581 807 m 438 1242 q 500 1219 475 1242 q 525 1163 525 1196 q 453 1058 525 1118 l 481 1011 l 432 985 l 388 1061 q 457 1151 457 1111 q 421 1181 457 1181 q 340 1147 379 1181 l 318 1183 q 438 1242 374 1242 z "},"ỏ":{"ha":774,"x_min":63,"x_max":711,"o":"m 397 700 q 630 611 549 700 q 711 360 711 522 q 624 87 711 183 q 376 -10 538 -10 q 144 81 226 -10 q 63 340 63 172 q 150 606 63 513 q 397 700 238 700 m 388 613 q 224 550 278 613 q 171 353 171 488 q 224 143 171 208 q 385 78 276 78 q 550 142 496 78 q 604 342 604 206 q 551 547 604 482 q 388 613 497 613 m 383 1044 q 446 1022 421 1044 q 471 965 471 999 q 399 861 471 921 l 426 814 l 378 788 l 333 864 q 403 954 403 914 q 367 983 403 983 q 286 950 325 983 l 264 986 q 383 1044 319 1044 z "},"Ố":{"ha":882,"x_min":53,"x_max":831,"o":"m 453 899 q 733 786 635 899 q 831 463 831 674 q 726 113 831 236 q 431 -11 622 -11 q 151 106 250 -11 q 53 438 53 222 q 156 779 53 660 q 453 899 260 899 m 443 807 q 167 451 167 807 q 438 82 167 82 q 715 443 715 82 q 648 717 715 628 q 443 807 581 807 m 681 1276 l 567 1138 l 556 1138 l 517 1169 l 614 1313 l 625 1315 l 679 1288 l 681 1276 m 264 1038 q 425 1164 357 1101 l 457 1164 q 619 1038 519 1108 l 597 990 l 585 990 q 442 1082 507 1038 q 300 990 388 1044 l 286 990 l 264 1038 z "},"ố":{"ha":774,"x_min":63,"x_max":711,"o":"m 397 700 q 630 611 549 700 q 711 360 711 522 q 624 87 711 183 q 376 -10 538 -10 q 144 81 226 -10 q 63 340 63 172 q 150 606 63 513 q 397 700 238 700 m 388 613 q 224 550 278 613 q 171 353 171 488 q 224 143 171 208 q 385 78 276 78 q 550 142 496 78 q 604 342 604 206 q 551 547 604 482 q 388 613 497 613 m 626 1079 l 513 940 l 501 940 l 463 972 l 560 1115 l 571 1118 l 625 1090 l 626 1079 m 210 840 q 371 967 303 904 l 403 967 q 565 840 465 911 l 543 793 l 531 793 q 388 885 453 840 q 246 793 333 847 l 232 793 l 210 840 z "},"Ồ":{"ha":882,"x_min":53,"x_max":831,"o":"m 453 899 q 733 786 635 899 q 831 463 831 674 q 726 113 831 236 q 431 -11 622 -11 q 151 106 250 -11 q 53 438 53 222 q 156 779 53 660 q 453 899 260 899 m 443 807 q 167 451 167 807 q 438 82 167 82 q 715 443 715 82 q 648 717 715 628 q 443 807 581 807 m 635 1169 l 594 1138 l 585 1138 l 471 1276 l 472 1288 l 528 1315 l 538 1313 l 635 1169 m 264 1038 q 425 1164 357 1101 l 457 1164 q 619 1038 519 1108 l 597 990 l 585 990 q 442 1082 507 1038 q 300 990 388 1044 l 286 990 l 264 1038 z "},"ồ":{"ha":774,"x_min":63,"x_max":711,"o":"m 397 700 q 630 611 549 700 q 711 360 711 522 q 624 87 711 183 q 376 -10 538 -10 q 144 81 226 -10 q 63 340 63 172 q 150 606 63 513 q 397 700 238 700 m 388 613 q 224 550 278 613 q 171 353 171 488 q 224 143 171 208 q 385 78 276 78 q 550 142 496 78 q 604 342 604 206 q 551 547 604 482 q 388 613 497 613 m 581 972 l 540 940 l 531 940 l 417 1079 l 418 1090 l 474 1118 l 483 1115 l 581 972 m 210 840 q 371 967 303 904 l 403 967 q 565 840 465 911 l 543 793 l 531 793 q 388 885 453 840 q 246 793 333 847 l 232 793 l 210 840 z "},"Ổ":{"ha":882,"x_min":53,"x_max":831,"o":"m 574 1367 q 633 1346 610 1367 q 657 1293 657 1325 q 589 1193 657 1249 l 615 1149 l 569 1124 l 528 1196 q 594 1282 594 1244 q 558 1310 594 1310 q 482 1278 521 1310 l 461 1313 q 574 1367 513 1367 m 264 1038 q 425 1164 357 1101 l 457 1164 q 619 1038 519 1108 l 597 990 l 585 990 q 442 1082 507 1038 q 300 990 388 1044 l 286 990 l 264 1038 m 453 899 q 733 786 635 899 q 831 463 831 674 q 726 113 831 236 q 431 -11 622 -11 q 151 106 250 -11 q 53 438 53 222 q 156 779 53 660 q 453 899 260 899 m 443 807 q 167 451 167 807 q 438 82 167 82 q 715 443 715 82 q 648 717 715 628 q 443 807 581 807 z "},"ổ":{"ha":774,"x_min":63,"x_max":711,"o":"m 519 1169 q 579 1149 556 1169 q 603 1096 603 1128 q 535 996 603 1051 l 561 951 l 515 926 l 474 999 q 540 1085 540 1047 q 504 1113 540 1113 q 428 1081 467 1113 l 407 1115 q 519 1169 458 1169 m 210 840 q 371 967 303 904 l 403 967 q 565 840 465 911 l 543 793 l 531 793 q 388 885 453 840 q 246 793 333 847 l 232 793 l 210 840 m 397 700 q 630 611 549 700 q 711 360 711 522 q 624 87 711 183 q 376 -10 538 -10 q 144 81 226 -10 q 63 340 63 172 q 149 606 63 513 q 397 700 236 700 m 388 613 q 224 550 278 613 q 171 353 171 488 q 224 143 171 208 q 385 78 276 78 q 550 142 496 78 q 604 342 604 206 q 551 547 604 482 q 388 613 497 613 z "},"Ỗ":{"ha":882,"x_min":53,"x_max":831,"o":"m 653 1297 l 574 1204 l 561 1200 q 450 1228 529 1203 q 360 1250 375 1250 q 306 1208 342 1250 l 286 1188 l 275 1188 l 243 1221 l 243 1232 l 322 1325 l 335 1328 q 447 1300 368 1325 q 538 1279 521 1279 q 560 1289 549 1279 q 586 1315 571 1299 q 611 1342 601 1332 l 622 1342 l 653 1308 l 653 1297 m 264 1038 q 425 1164 357 1101 l 457 1164 q 619 1038 519 1108 l 597 990 l 585 990 q 442 1082 507 1038 q 300 990 388 1044 l 286 990 l 264 1038 m 453 899 q 733 786 635 899 q 831 463 831 674 q 726 113 831 236 q 431 -11 622 -11 q 151 106 250 -11 q 53 438 53 222 q 156 779 53 660 q 453 899 260 899 m 443 807 q 167 451 167 807 q 438 82 167 82 q 715 443 715 82 q 648 717 715 628 q 443 807 581 807 z "},"ỗ":{"ha":774,"x_min":63,"x_max":711,"o":"m 599 1100 l 519 1007 l 507 1003 q 396 1031 475 1006 q 306 1053 321 1053 q 251 1011 288 1053 l 232 990 l 221 990 l 189 1024 l 189 1035 l 268 1128 l 281 1131 q 393 1103 314 1128 q 483 1082 467 1082 q 506 1092 494 1082 q 532 1118 517 1101 q 557 1144 547 1135 l 568 1144 l 599 1111 l 599 1100 m 210 840 q 371 967 303 904 l 403 967 q 565 840 465 911 l 543 793 l 531 793 q 388 885 453 840 q 246 793 333 847 l 232 793 l 210 840 m 397 700 q 630 611 549 700 q 711 360 711 522 q 624 87 711 183 q 376 -10 538 -10 q 144 81 226 -10 q 63 340 63 172 q 149 606 63 513 q 397 700 236 700 m 388 613 q 224 550 278 613 q 171 353 171 488 q 224 143 171 208 q 385 78 276 78 q 550 142 496 78 q 604 342 604 206 q 551 547 604 482 q 388 613 497 613 z "},"Ộ":{"ha":882,"x_min":53,"x_max":831,"o":"m 278 1056 q 439 1182 371 1119 l 471 1182 q 633 1056 533 1126 l 611 1008 l 599 1008 q 456 1100 521 1056 q 314 1008 401 1063 l 300 1008 l 278 1056 m 453 899 q 733 786 635 899 q 831 463 831 674 q 726 113 831 236 q 431 -11 622 -11 q 151 106 250 -11 q 53 438 53 222 q 156 779 53 660 q 453 899 260 899 m 443 807 q 167 451 167 807 q 438 82 167 82 q 715 443 715 82 q 648 717 715 628 q 443 807 581 807 m 442 -97 q 486 -114 469 -97 q 503 -160 503 -131 q 485 -208 503 -190 q 438 -226 468 -226 q 376 -162 376 -226 q 394 -115 376 -133 q 442 -97 411 -97 z "},"ộ":{"ha":774,"x_min":63,"x_max":711,"o":"m 204 826 q 374 1013 285 907 l 407 1013 q 575 826 493 906 l 544 782 l 532 782 q 390 926 446 864 q 249 782 338 868 l 235 782 l 204 826 m 397 700 q 630 611 549 700 q 711 360 711 522 q 624 87 711 183 q 376 -10 538 -10 q 144 81 226 -10 q 63 340 63 172 q 149 606 63 513 q 397 700 236 700 m 388 613 q 224 550 278 613 q 171 353 171 488 q 224 143 171 208 q 385 78 276 78 q 550 142 496 78 q 604 342 604 206 q 551 547 604 482 q 388 613 497 613 m 392 -97 q 436 -114 419 -97 q 453 -160 453 -131 q 435 -208 453 -190 q 388 -226 418 -226 q 326 -162 326 -226 q 344 -115 326 -133 q 392 -97 361 -97 z "},"Ớ":{"ha":889,"x_min":53,"x_max":876,"o":"m 800 1063 q 852 1027 828 1063 q 876 943 876 992 q 831 839 876 878 q 714 796 786 800 q 831 457 831 683 q 726 113 831 236 q 432 -11 622 -11 q 151 106 250 -11 q 53 438 53 222 q 156 779 53 660 q 447 899 260 899 q 608 869 518 899 q 689 851 663 851 q 759 874 731 851 q 788 935 788 896 q 743 1029 788 988 l 746 1040 q 800 1063 775 1063 m 443 807 q 167 451 167 807 q 438 82 167 82 q 715 443 715 82 q 648 717 715 628 q 443 807 581 807 m 633 1131 l 631 1119 q 360 1000 507 1063 l 346 1006 l 326 1056 q 593 1199 469 1126 l 606 1196 l 633 1131 z "},"ớ":{"ha":779,"x_min":63,"x_max":753,"o":"m 636 808 q 685 828 663 828 q 731 799 710 828 q 753 729 753 771 q 719 646 753 679 q 628 604 685 613 q 711 356 711 517 q 624 87 711 183 q 379 -10 536 -10 q 145 82 228 -10 q 63 340 63 174 q 149 606 63 513 q 396 700 236 700 q 531 681 453 700 q 597 668 574 668 q 650 683 629 668 q 671 725 671 697 q 633 800 671 763 l 636 808 m 386 71 q 550 138 496 71 q 604 344 604 204 q 551 549 604 483 q 386 614 497 614 q 224 549 276 614 q 171 346 171 483 q 224 138 171 206 q 386 71 278 71 m 574 933 l 571 922 q 300 803 447 865 l 286 808 l 267 858 q 533 1001 410 929 l 546 999 l 574 933 z "},"Ờ":{"ha":889,"x_min":53,"x_max":876,"o":"m 329 1200 q 596 1057 453 1128 l 576 1007 l 563 1001 q 292 1121 415 1064 l 289 1132 l 317 1197 l 329 1200 m 800 1063 q 852 1027 828 1063 q 876 943 876 992 q 831 839 876 878 q 714 796 786 800 q 831 457 831 683 q 726 113 831 236 q 432 -11 622 -11 q 151 106 250 -11 q 53 438 53 222 q 156 779 53 660 q 447 899 260 899 q 608 869 518 899 q 689 851 663 851 q 759 874 731 851 q 788 935 788 896 q 743 1029 788 988 l 746 1040 q 800 1063 775 1063 m 443 807 q 167 451 167 807 q 438 82 167 82 q 715 443 715 82 q 648 717 715 628 q 443 807 581 807 z "},"ờ":{"ha":779,"x_min":63,"x_max":753,"o":"m 269 1003 q 536 860 393 931 l 517 810 l 503 804 q 232 924 356 867 l 229 935 l 257 1000 l 269 1003 m 636 808 q 683 828 663 828 q 731 799 708 828 q 753 729 753 771 q 718 646 753 679 q 626 604 683 613 q 711 356 711 518 q 624 87 711 183 q 379 -10 536 -10 q 145 82 228 -10 q 63 340 63 174 q 149 606 63 513 q 396 700 236 700 q 531 681 453 700 q 596 668 574 668 q 650 683 629 668 q 671 725 671 697 q 633 800 671 763 l 636 808 m 388 71 q 551 138 497 71 q 604 344 604 204 q 551 549 604 483 q 386 614 497 614 q 224 549 276 614 q 171 346 171 483 q 224 138 171 206 q 388 71 278 71 z "},"Ở":{"ha":889,"x_min":53,"x_max":876,"o":"m 800 1063 q 852 1027 828 1063 q 876 943 876 992 q 831 839 876 878 q 714 796 786 800 q 831 457 831 683 q 726 113 831 236 q 432 -11 622 -11 q 151 106 250 -11 q 53 438 53 222 q 156 779 53 660 q 447 899 260 899 q 608 869 518 899 q 689 851 663 851 q 759 874 731 851 q 788 935 788 896 q 743 1029 788 988 l 746 1040 q 800 1063 775 1063 m 443 807 q 167 451 167 807 q 438 82 167 82 q 715 443 715 82 q 648 717 715 628 q 443 807 581 807 m 438 1242 q 500 1219 475 1242 q 525 1163 525 1196 q 453 1058 525 1118 l 481 1011 l 432 985 l 388 1061 q 457 1151 457 1111 q 421 1181 457 1181 q 340 1147 379 1181 l 318 1183 q 438 1242 374 1242 z "},"ở":{"ha":779,"x_min":63,"x_max":753,"o":"m 636 808 q 685 828 663 828 q 731 799 710 828 q 753 729 753 771 q 719 646 753 679 q 628 604 685 613 q 711 356 711 517 q 624 87 711 183 q 379 -10 536 -10 q 145 82 228 -10 q 63 340 63 174 q 149 606 63 513 q 396 700 236 700 q 531 681 453 700 q 597 668 574 668 q 650 683 629 668 q 671 725 671 697 q 633 800 671 763 l 636 808 m 386 71 q 550 138 496 71 q 604 344 604 204 q 551 549 604 483 q 386 614 497 614 q 224 549 276 614 q 171 346 171 483 q 224 138 171 206 q 386 71 278 71 m 376 1044 q 439 1022 414 1044 q 464 965 464 999 q 392 861 464 921 l 419 814 l 371 788 l 326 864 q 396 954 396 914 q 360 983 396 983 q 279 950 318 983 l 257 986 q 376 1044 313 1044 z "},"Ỡ":{"ha":889,"x_min":53,"x_max":876,"o":"m 800 1063 q 852 1027 828 1063 q 876 943 876 992 q 831 839 876 878 q 714 796 786 800 q 831 457 831 683 q 726 113 831 236 q 432 -11 622 -11 q 151 106 250 -11 q 53 438 53 222 q 156 779 53 660 q 447 899 260 899 q 608 869 518 899 q 689 851 663 851 q 759 874 731 851 q 788 935 788 896 q 743 1029 788 988 l 746 1040 q 800 1063 775 1063 m 443 807 q 167 451 167 807 q 438 82 167 82 q 715 443 715 82 q 648 717 715 628 q 443 807 581 807 m 661 1133 l 576 1038 l 563 1033 q 446 1061 532 1036 q 347 1085 367 1085 q 326 1076 338 1085 q 292 1043 315 1067 l 269 1019 l 257 1019 l 224 1056 l 224 1065 l 308 1161 l 322 1165 q 438 1138 356 1163 q 538 1115 524 1115 q 593 1156 556 1115 l 617 1179 l 628 1179 l 661 1144 l 661 1133 z "},"ỡ":{"ha":779,"x_min":63,"x_max":753,"o":"m 636 808 q 685 828 663 828 q 731 799 710 828 q 753 729 753 771 q 719 646 753 679 q 628 604 685 613 q 711 356 711 517 q 624 87 711 183 q 379 -10 536 -10 q 145 82 228 -10 q 63 340 63 174 q 149 606 63 513 q 396 700 236 700 q 531 681 453 700 q 597 668 574 668 q 650 683 629 668 q 671 725 671 697 q 633 800 671 763 l 636 808 m 386 71 q 550 138 496 71 q 604 344 604 204 q 551 549 604 483 q 386 614 497 614 q 224 549 276 614 q 171 346 171 483 q 224 138 171 206 q 386 71 278 71 m 600 936 l 515 840 l 501 836 q 385 864 471 839 q 286 888 306 888 q 265 878 276 888 q 231 846 254 869 l 208 822 l 196 822 l 163 858 l 163 868 l 247 964 l 261 968 q 376 940 294 965 q 476 918 463 918 q 532 958 494 918 l 556 982 l 567 982 l 600 947 l 600 936 z "},"Ợ":{"ha":889,"x_min":53,"x_max":876,"o":"m 800 1063 q 852 1027 828 1063 q 876 943 876 992 q 831 839 876 878 q 714 796 786 800 q 831 457 831 683 q 726 113 831 236 q 432 -11 622 -11 q 151 106 250 -11 q 53 438 53 222 q 156 779 53 660 q 447 899 260 899 q 608 869 518 899 q 689 851 663 851 q 759 874 731 851 q 788 935 788 896 q 743 1029 788 988 l 746 1040 q 800 1063 775 1063 m 443 807 q 167 451 167 807 q 438 82 167 82 q 715 443 715 82 q 648 717 715 628 q 443 807 581 807 m 442 -97 q 486 -114 469 -97 q 503 -160 503 -131 q 485 -208 503 -190 q 438 -226 468 -226 q 376 -162 376 -226 q 394 -115 376 -133 q 442 -97 411 -97 z "},"ợ":{"ha":779,"x_min":63,"x_max":753,"o":"m 636 808 q 683 828 663 828 q 731 799 708 828 q 753 729 753 771 q 718 646 753 679 q 626 604 683 613 q 711 356 711 518 q 624 87 711 183 q 379 -10 536 -10 q 145 82 228 -10 q 63 340 63 174 q 149 606 63 513 q 396 700 236 700 q 531 681 453 700 q 596 668 574 668 q 650 683 629 668 q 671 725 671 697 q 633 800 671 763 l 636 808 m 388 71 q 551 138 497 71 q 604 344 604 204 q 551 549 604 483 q 386 614 497 614 q 224 549 276 614 q 171 346 171 483 q 224 138 171 206 q 388 71 278 71 m 392 -97 q 436 -114 419 -97 q 453 -160 453 -131 q 435 -208 453 -190 q 388 -226 418 -226 q 326 -162 326 -226 q 344 -115 326 -133 q 392 -97 361 -97 z "},"Ụ":{"ha":869,"x_min":106,"x_max":769,"o":"m 765 338 q 680 81 768 172 q 428 -10 592 -10 q 186 77 269 -10 q 106 325 103 164 l 107 446 l 106 890 l 215 890 l 210 339 q 436 88 207 88 q 664 325 664 88 l 658 890 l 769 890 l 767 438 l 765 338 m 435 -97 q 479 -114 463 -97 q 496 -160 496 -131 q 478 -208 496 -190 q 431 -226 461 -226 q 369 -162 369 -226 q 387 -115 369 -133 q 435 -97 404 -97 z "},"ụ":{"ha":763,"x_min":104,"x_max":663,"o":"m 658 240 q 588 57 661 122 q 378 -8 514 -8 q 173 56 243 -8 q 106 240 103 121 l 107 346 l 104 692 l 210 692 l 203 257 q 382 81 200 81 q 561 257 564 81 l 558 692 l 663 692 l 658 340 l 658 240 m 385 -97 q 429 -114 413 -97 q 446 -160 446 -131 q 428 -208 446 -190 q 381 -226 411 -226 q 319 -162 319 -226 q 337 -115 319 -133 q 385 -97 354 -97 z "},"Ủ":{"ha":869,"x_min":106,"x_max":769,"o":"m 767 338 q 681 82 769 174 q 428 -10 592 -10 q 187 78 271 -10 q 106 325 103 165 l 107 446 l 106 890 l 215 890 l 211 339 q 436 88 208 88 q 664 325 667 88 l 658 890 l 769 890 l 768 438 l 767 338 m 433 1242 q 496 1219 471 1242 q 521 1163 521 1196 q 449 1058 521 1118 l 476 1011 l 428 985 l 383 1061 q 453 1151 453 1111 q 417 1181 453 1181 q 336 1147 375 1181 l 314 1183 q 433 1242 369 1242 z "},"ủ":{"ha":763,"x_min":106,"x_max":664,"o":"m 660 240 q 588 57 661 122 q 379 -8 515 -8 q 174 56 244 -8 q 106 240 103 121 l 107 346 l 106 692 l 210 692 l 204 257 q 383 81 201 81 q 563 257 565 81 l 558 692 l 664 692 l 660 340 l 660 240 m 379 1044 q 442 1022 417 1044 q 467 965 467 999 q 394 861 467 921 l 422 814 l 374 788 l 329 864 q 399 954 399 914 q 363 983 399 983 q 282 950 321 983 l 260 986 q 379 1044 315 1044 z "},"Ứ":{"ha":883,"x_min":106,"x_max":889,"o":"m 889 968 q 856 885 889 921 q 769 836 824 850 l 767 438 l 765 338 q 680 81 768 172 q 428 -10 592 -10 q 186 77 269 -10 q 106 325 103 164 l 107 446 l 106 890 l 215 890 l 210 339 q 436 88 207 88 q 664 325 664 88 l 658 890 l 711 890 q 801 961 801 890 q 756 1044 801 1004 l 760 1056 q 814 1078 792 1078 q 865 1045 840 1078 q 889 968 889 1013 m 628 1132 l 625 1121 q 354 1001 501 1064 l 340 1007 l 321 1057 q 588 1200 464 1128 l 600 1197 l 628 1132 z "},"ứ":{"ha":775,"x_min":101,"x_max":761,"o":"m 656 240 q 584 57 657 122 q 375 -8 511 -8 q 170 56 240 -8 q 103 240 100 121 l 104 346 l 101 692 l 206 692 l 200 257 q 379 81 197 81 q 558 257 561 81 l 554 692 l 607 692 q 679 746 679 692 q 643 811 679 781 l 646 821 q 697 840 672 840 q 741 815 721 840 q 761 756 761 790 q 734 686 761 717 q 660 643 707 656 l 656 340 l 656 240 m 561 933 l 558 922 q 288 803 435 865 l 274 808 l 254 858 q 521 1001 397 929 l 533 999 l 561 933 z "},"Ừ":{"ha":883,"x_min":106,"x_max":889,"o":"m 561 1003 q 290 1122 414 1065 l 288 1133 l 315 1199 l 328 1201 q 594 1058 451 1129 l 575 1008 l 561 1003 m 889 968 q 856 885 889 921 q 769 836 824 850 l 767 438 l 765 338 q 680 81 768 172 q 428 -10 592 -10 q 186 77 269 -10 q 106 325 103 164 l 107 446 l 106 890 l 215 890 l 210 339 q 436 88 207 88 q 664 325 664 88 l 658 890 l 711 890 q 801 961 801 890 q 756 1044 801 1004 l 760 1056 q 814 1078 792 1078 q 865 1045 840 1078 q 889 968 889 1013 z "},"ừ":{"ha":775,"x_min":101,"x_max":761,"o":"m 493 804 q 222 924 346 867 l 219 935 l 247 1000 l 260 1003 q 526 860 383 931 l 507 810 l 493 804 m 656 240 q 584 57 657 122 q 375 -8 511 -8 q 170 56 240 -8 q 103 240 100 121 l 104 346 l 101 692 l 206 692 l 200 257 q 379 81 197 81 q 558 257 561 81 l 554 692 l 607 692 q 679 746 679 692 q 643 811 679 781 l 646 821 q 697 840 672 840 q 741 815 721 840 q 761 756 761 790 q 734 686 761 717 q 660 643 707 656 l 656 340 l 656 240 z "},"Ử":{"ha":883,"x_min":106,"x_max":889,"o":"m 889 968 q 856 885 889 921 q 769 836 824 850 l 767 438 l 765 338 q 680 81 768 172 q 428 -10 592 -10 q 186 77 269 -10 q 106 325 103 164 l 107 446 l 106 890 l 215 890 l 210 339 q 436 88 207 88 q 664 325 664 88 l 658 890 l 711 890 q 801 961 801 890 q 756 1044 801 1004 l 760 1056 q 814 1078 792 1078 q 865 1045 840 1078 q 889 968 889 1013 m 432 1243 q 494 1220 469 1243 q 519 1164 519 1197 q 447 1060 519 1119 l 475 1013 l 426 986 l 382 1063 q 451 1153 451 1113 q 415 1182 451 1182 q 335 1149 374 1182 l 313 1185 q 432 1243 368 1243 z "},"ử":{"ha":775,"x_min":101,"x_max":761,"o":"m 656 240 q 584 57 657 122 q 375 -8 511 -8 q 170 56 240 -8 q 103 240 100 121 l 104 346 l 101 692 l 206 692 l 200 257 q 379 81 197 81 q 558 257 561 81 l 554 692 l 607 692 q 679 746 679 692 q 643 811 679 781 l 646 821 q 697 840 672 840 q 741 815 721 840 q 761 756 761 790 q 734 686 761 717 q 660 643 707 656 l 656 340 l 656 240 m 365 1044 q 428 1022 403 1044 q 453 965 453 999 q 381 861 453 921 l 408 814 l 360 788 l 315 864 q 385 954 385 914 q 349 983 385 983 q 268 950 307 983 l 246 986 q 365 1044 301 1044 z "},"Ữ":{"ha":883,"x_min":106,"x_max":889,"o":"m 889 968 q 856 885 889 921 q 769 836 824 850 l 767 438 l 765 338 q 680 81 768 172 q 428 -10 592 -10 q 186 77 269 -10 q 106 325 103 164 l 107 446 l 106 890 l 215 890 l 210 339 q 436 88 207 88 q 664 325 664 88 l 658 890 l 711 890 q 801 961 801 890 q 756 1044 801 1004 l 760 1056 q 814 1078 792 1078 q 865 1045 840 1078 q 889 968 889 1013 m 656 1135 l 571 1039 l 557 1035 q 440 1063 526 1038 q 342 1086 361 1086 q 321 1077 332 1086 q 286 1044 310 1068 l 264 1021 l 251 1021 l 218 1057 l 218 1067 l 303 1163 l 317 1167 q 432 1139 350 1164 q 532 1117 518 1117 q 588 1157 550 1117 l 611 1181 l 622 1181 l 656 1146 l 656 1135 z "},"ữ":{"ha":775,"x_min":101,"x_max":761,"o":"m 656 240 q 584 57 657 122 q 375 -8 511 -8 q 170 56 240 -8 q 103 240 100 121 l 104 346 l 101 692 l 206 692 l 200 257 q 379 81 197 81 q 558 257 561 81 l 554 692 l 607 692 q 679 746 679 692 q 643 811 679 781 l 646 821 q 697 840 672 840 q 741 815 721 840 q 761 756 761 790 q 734 686 761 717 q 660 643 707 656 l 656 340 l 656 240 m 589 936 l 504 840 l 490 836 q 374 864 460 839 q 275 888 294 888 q 254 878 265 888 q 219 846 243 869 l 197 822 l 185 822 l 151 858 l 151 868 l 236 964 l 250 968 q 365 940 283 965 q 465 918 451 918 q 521 958 483 918 l 544 982 l 556 982 l 589 947 l 589 936 z "},"Ự":{"ha":883,"x_min":106,"x_max":889,"o":"m 889 968 q 856 885 889 921 q 769 836 824 850 l 767 438 l 765 338 q 680 81 768 172 q 428 -10 592 -10 q 186 77 269 -10 q 106 325 103 164 l 107 446 l 106 890 l 215 890 l 210 339 q 436 88 207 88 q 664 325 664 88 l 658 890 l 711 890 q 801 961 801 890 q 756 1044 801 1004 l 760 1056 q 814 1078 792 1078 q 865 1045 840 1078 q 889 968 889 1013 m 439 -97 q 483 -114 467 -97 q 500 -160 500 -131 q 483 -208 500 -190 q 435 -226 465 -226 q 374 -162 374 -226 q 391 -115 374 -133 q 439 -97 408 -97 z "},"ự":{"ha":775,"x_min":101,"x_max":761,"o":"m 656 240 q 584 57 657 122 q 375 -8 511 -8 q 170 56 240 -8 q 103 240 100 121 l 104 346 l 101 692 l 206 692 l 200 257 q 379 81 197 81 q 558 257 561 81 l 554 692 l 607 692 q 679 746 679 692 q 643 811 679 781 l 646 821 q 697 840 672 840 q 741 815 721 840 q 761 756 761 790 q 734 686 761 717 q 660 643 707 656 l 656 340 l 656 240 m 386 -97 q 431 -114 414 -97 q 447 -160 447 -131 q 430 -208 447 -190 q 382 -226 413 -226 q 321 -162 321 -226 q 338 -115 321 -133 q 386 -97 356 -97 z "},"Ỳ":{"ha":733,"x_min":21,"x_max":715,"o":"m 479 1001 q 208 1121 332 1064 l 206 1132 l 233 1197 l 246 1200 q 513 1057 369 1128 l 493 1007 l 479 1001 m 410 0 l 297 0 l 304 260 l 303 321 l 21 890 l 140 890 l 158 840 l 353 440 l 364 440 l 576 838 l 597 890 l 715 890 l 406 317 l 404 260 l 410 0 z "},"ỳ":{"ha":657,"x_min":35,"x_max":621,"o":"m 432 776 q 196 953 333 846 l 193 964 l 235 1022 l 247 1024 q 475 822 339 933 l 444 778 l 432 776 m 369 0 l 265 0 l 269 199 l 269 239 l 35 692 l 147 692 l 161 651 l 315 354 l 324 354 l 493 647 l 513 692 l 621 692 l 367 242 l 365 199 l 369 0 z "},"Ỵ":{"ha":733,"x_min":21,"x_max":715,"o":"m 21 890 l 140 890 l 158 840 l 353 440 l 364 440 l 576 838 l 597 890 l 715 890 l 406 317 l 404 260 l 410 0 l 297 0 l 304 260 l 303 321 l 21 890 m 356 -97 q 400 -114 383 -97 q 417 -160 417 -131 q 399 -208 417 -190 q 351 -226 382 -226 q 290 -162 290 -226 q 308 -115 290 -133 q 356 -97 325 -97 z "},"ỵ":{"ha":657,"x_min":35,"x_max":621,"o":"m 35 692 l 147 692 l 161 651 l 315 354 l 324 354 l 493 647 l 513 692 l 621 692 l 367 242 l 365 199 l 369 0 l 265 0 l 269 199 l 269 239 l 35 692 m 319 -97 q 364 -114 347 -97 q 381 -160 381 -131 q 363 -208 381 -190 q 315 -226 346 -226 q 254 -162 254 -226 q 272 -115 254 -133 q 319 -97 289 -97 z "},"Ỷ":{"ha":733,"x_min":21,"x_max":715,"o":"m 410 0 l 297 0 l 306 260 l 304 319 l 21 890 l 140 890 l 158 840 l 353 440 l 364 440 l 576 838 l 597 890 l 715 890 l 407 319 l 406 260 l 410 0 m 353 1242 q 415 1219 390 1242 q 440 1163 440 1196 q 368 1058 440 1118 l 396 1011 l 347 985 l 303 1061 q 372 1151 372 1111 q 336 1181 372 1181 q 256 1147 294 1181 l 233 1183 q 353 1242 289 1242 z "},"ỷ":{"ha":657,"x_min":35,"x_max":622,"o":"m 369 0 l 265 0 l 269 199 l 269 240 l 35 692 l 147 692 l 163 651 l 317 354 l 324 354 l 493 647 l 513 692 l 622 692 l 367 242 l 365 199 l 369 0 m 329 1044 q 392 1022 367 1044 q 417 965 417 999 q 344 861 417 921 l 372 814 l 324 788 l 279 864 q 349 954 349 914 q 313 983 349 983 q 232 950 271 983 l 210 986 q 329 1044 265 1044 z "},"Ỹ":{"ha":733,"x_min":21,"x_max":715,"o":"m 410 0 l 297 0 l 306 260 l 304 319 l 21 890 l 140 890 l 158 840 l 353 440 l 364 440 l 576 838 l 597 890 l 715 890 l 407 319 l 406 260 l 410 0 m 576 1133 l 492 1038 l 478 1033 q 361 1061 447 1036 q 263 1085 282 1085 q 242 1076 253 1085 q 207 1043 231 1067 l 185 1019 l 172 1019 l 139 1056 l 139 1065 l 224 1161 l 238 1165 q 353 1138 271 1163 q 453 1115 439 1115 q 508 1156 471 1115 l 532 1179 l 543 1179 l 576 1144 l 576 1133 z "},"ỹ":{"ha":657,"x_min":35,"x_max":622,"o":"m 369 0 l 265 0 l 269 199 l 269 240 l 35 692 l 147 692 l 163 651 l 317 354 l 324 354 l 493 647 l 513 692 l 622 692 l 367 242 l 365 199 l 369 0 m 553 936 l 468 840 l 454 836 q 338 864 424 839 q 239 888 258 888 q 218 878 229 888 q 183 846 207 869 l 161 822 l 149 822 l 115 858 l 115 868 l 200 964 l 214 968 q 329 940 247 965 q 429 918 415 918 q 485 958 447 918 l 508 982 l 519 982 l 553 947 l 553 936 z "},"–":{"ha":664,"x_min":-21,"x_max":685,"o":"m 681 317 l -12 317 l -21 325 l -14 394 l 678 394 l 685 385 l 681 317 z "},"—":{"ha":1290,"x_min":-22,"x_max":1314,"o":"m 1307 317 l -14 317 l -22 325 l -15 394 l 1304 394 l 1314 385 l 1307 317 z "},"‘":{"ha":232,"x_min":44,"x_max":189,"o":"m 119 603 q 44 707 44 631 q 146 893 44 793 l 188 864 l 189 854 q 131 738 131 792 q 185 661 131 682 l 185 650 q 119 603 158 625 z "},"’":{"ha":232,"x_min":46,"x_max":190,"o":"m 115 892 q 190 788 190 864 q 89 601 190 701 l 47 631 l 46 640 q 104 757 104 703 q 50 833 104 813 l 50 844 q 115 892 76 869 z "},"‚":{"ha":318,"x_min":61,"x_max":229,"o":"m 171 121 q 229 28 229 85 q 99 -158 229 -62 l 61 -124 l 61 -114 q 138 8 138 -54 q 94 74 138 46 l 94 85 q 171 121 133 111 z "},"“":{"ha":401,"x_min":38,"x_max":364,"o":"m 294 604 q 219 708 219 632 q 321 894 219 794 l 363 865 l 364 856 q 306 739 306 793 q 360 663 306 683 l 360 651 q 294 604 333 626 m 113 604 q 38 708 38 632 q 139 894 38 794 l 181 865 l 182 856 q 124 739 124 793 q 178 663 124 683 l 178 651 q 113 604 151 626 z "},"”":{"ha":410,"x_min":42,"x_max":364,"o":"m 289 892 q 364 788 364 864 q 263 601 364 701 l 221 631 l 219 640 q 278 757 278 703 q 224 833 278 813 l 224 844 q 289 892 250 869 m 111 892 q 186 788 186 864 q 85 601 186 701 l 43 631 l 42 640 q 100 757 100 703 q 46 833 100 813 l 46 844 q 111 892 72 869 z "},"„":{"ha":501,"x_min":61,"x_max":410,"o":"m 351 121 q 410 28 410 85 q 279 -158 410 -62 l 242 -124 l 242 -114 q 318 8 318 -54 q 275 74 318 46 l 275 85 q 351 121 314 111 m 171 121 q 229 28 229 85 q 99 -158 229 -62 l 61 -124 l 61 -114 q 138 8 138 -54 q 94 74 138 46 l 94 85 q 171 121 133 111 z "},"†":{"ha":669,"x_min":58,"x_max":613,"o":"m 372 483 l 372 399 l 372 -126 l 303 -131 l 294 -121 l 294 483 l 67 483 l 58 492 l 65 560 l 294 560 l 294 813 l 368 819 l 374 813 l 372 560 l 603 560 l 613 551 l 606 483 l 372 483 z "},"‡":{"ha":669,"x_min":58,"x_max":613,"o":"m 613 185 l 606 117 l 372 117 l 372 -126 l 303 -131 l 294 -121 l 294 117 l 67 117 l 58 125 l 65 193 l 294 193 l 294 490 l 67 490 l 58 500 l 65 568 l 294 568 l 294 813 l 368 819 l 374 813 l 372 568 l 603 568 l 613 560 l 606 490 l 372 490 l 372 399 l 372 193 l 603 193 l 613 185 z "},"•":{"ha":354,"x_min":106,"x_max":249,"o":"m 180 436 q 230 417 211 436 q 249 366 249 399 q 229 311 249 331 q 175 291 210 291 q 106 363 106 291 q 126 416 106 395 q 180 436 145 436 z "},"․":{"ha":318,"x_min":96,"x_max":222,"o":"m 161 122 q 206 106 189 122 q 222 60 222 89 q 205 11 222 29 q 157 -7 188 -7 q 96 57 96 -7 q 113 104 96 86 q 161 122 131 122 z "},"‥":{"ha":564,"x_min":90,"x_max":461,"o":"m 400 122 q 444 106 428 122 q 461 60 461 89 q 444 11 461 29 q 396 -7 426 -7 q 335 57 335 -7 q 352 104 335 86 q 400 122 369 122 m 156 122 q 200 106 183 122 q 217 60 217 89 q 199 11 217 29 q 151 -7 182 -7 q 90 57 90 -7 q 108 104 90 86 q 156 122 125 122 z "},"…":{"ha":808,"x_min":90,"x_max":704,"o":"m 400 122 q 444 106 428 122 q 461 60 461 89 q 444 11 461 29 q 396 -7 426 -7 q 335 57 335 -7 q 352 104 335 86 q 400 122 369 122 m 643 122 q 688 106 671 122 q 704 60 704 89 q 687 11 704 29 q 639 -7 669 -7 q 578 57 578 -7 q 595 104 578 86 q 643 122 613 122 m 156 122 q 200 106 183 122 q 217 60 217 89 q 199 11 217 29 q 151 -7 182 -7 q 90 57 90 -7 q 108 104 90 86 q 156 122 125 122 z "},"‰":{"ha":1664,"x_min":56,"x_max":1607,"o":"m 903 894 l 247 -126 l 199 -99 l 192 -82 l 846 942 l 894 914 l 903 894 m 267 896 q 412 835 361 896 q 463 658 463 774 q 409 470 463 535 q 253 406 356 406 q 107 467 158 406 q 56 644 56 529 q 110 831 56 767 q 267 896 164 896 m 258 815 q 133 651 133 815 q 260 482 133 482 q 386 646 386 482 q 258 815 386 815 m 892 485 q 1037 424 986 485 q 1088 247 1088 363 q 1034 59 1088 124 q 878 -6 981 -6 q 732 56 783 -6 q 681 233 681 118 q 735 420 681 356 q 892 485 789 485 m 1411 485 q 1556 424 1506 485 q 1607 247 1607 363 q 1553 59 1607 124 q 1397 -6 1500 -6 q 1251 56 1303 -6 q 1200 233 1200 118 q 1254 420 1200 356 q 1411 485 1308 485 m 883 404 q 758 240 758 404 q 885 71 758 71 q 1011 235 1011 71 q 883 404 1011 404 m 1403 404 q 1278 240 1278 404 q 1404 71 1278 71 q 1531 235 1531 71 q 1403 404 1531 404 z "},"′":{"ha":231,"x_min":72,"x_max":172,"o":"m 139 624 l 82 615 l 72 625 l 79 881 l 164 888 l 172 878 l 139 624 z "},"″":{"ha":396,"x_min":72,"x_max":336,"o":"m 303 624 l 246 615 l 236 625 l 243 881 l 328 888 l 336 878 l 303 624 m 139 624 l 82 615 l 72 625 l 79 881 l 164 888 l 172 878 l 139 624 z "},"‹":{"ha":318,"x_min":29,"x_max":286,"o":"m 29 322 l 231 564 l 285 533 l 286 519 l 114 313 l 286 106 l 285 93 l 231 63 l 29 300 l 29 322 z "},"›":{"ha":326,"x_min":38,"x_max":294,"o":"m 294 306 l 93 64 l 39 94 l 38 108 l 210 315 l 38 522 l 39 535 l 93 565 l 294 328 l 294 306 z "},"⁄":{"ha":106,"x_min":-328,"x_max":383,"o":"m 383 894 l -272 -126 l -321 -99 l -328 -82 l 326 942 l 375 914 l 383 894 z "},"⁰":{"ha":519,"x_min":56,"x_max":463,"o":"m 267 981 q 412 913 361 981 q 463 719 463 846 q 408 514 463 585 q 253 443 354 443 q 107 511 158 443 q 56 706 56 579 q 110 910 56 839 q 267 981 164 981 m 258 892 q 133 714 133 892 q 260 526 133 526 q 386 707 386 526 q 258 892 386 892 z "},"⁴":{"ha":488,"x_min":36,"x_max":440,"o":"m 354 589 l 360 457 l 354 449 l 276 444 l 271 450 l 272 589 l 114 589 l 43 585 l 36 594 l 36 656 l 264 975 l 354 975 l 353 661 l 433 661 l 440 653 l 435 585 l 354 589 m 274 661 l 274 865 l 267 865 l 122 661 l 274 661 z "},"⁵":{"ha":422,"x_min":42,"x_max":369,"o":"m 360 900 l 353 893 l 285 900 l 158 900 l 156 781 l 213 767 q 329 715 292 750 q 367 621 367 679 q 304 491 367 540 q 140 442 242 442 q 47 451 99 442 l 42 519 l 49 526 q 142 515 92 515 q 238 542 203 515 q 272 614 272 568 q 169 699 272 676 l 85 714 l 79 724 l 83 963 l 94 976 l 144 975 l 281 975 l 364 978 l 369 972 l 360 900 z "},"⁶":{"ha":468,"x_min":51,"x_max":418,"o":"m 267 767 q 378 724 339 767 q 418 615 418 682 q 370 490 418 538 q 232 442 322 442 q 99 494 147 442 q 51 639 51 546 q 122 840 51 751 q 319 982 192 929 l 325 982 l 386 940 l 386 931 q 233 849 288 893 q 156 742 178 804 l 163 733 q 267 767 211 767 m 235 503 q 329 607 329 503 q 240 699 329 699 q 142 665 185 699 l 140 640 q 235 503 140 503 z "},"⁷":{"ha":417,"x_min":32,"x_max":378,"o":"m 336 975 l 376 976 l 378 906 l 218 558 l 171 439 l 90 460 l 85 475 l 281 896 l 115 896 l 38 889 l 32 900 l 40 976 l 132 975 l 336 975 z "},"⁸":{"ha":474,"x_min":56,"x_max":413,"o":"m 247 981 q 356 947 317 981 q 396 854 396 913 q 306 728 396 775 l 306 722 q 385 672 357 699 q 413 594 413 644 q 361 483 413 524 q 225 442 310 442 q 101 478 146 442 q 56 576 56 515 q 165 707 56 667 l 165 711 q 75 838 75 757 q 122 942 75 904 q 247 981 169 981 m 240 915 q 180 895 201 915 q 158 840 158 875 q 180 788 158 807 q 244 750 201 769 q 318 843 318 788 q 297 896 318 876 q 240 915 276 915 m 226 682 q 138 588 138 653 q 163 528 138 550 q 233 506 189 506 q 305 528 279 506 q 331 586 331 551 q 305 642 331 624 q 226 682 279 661 z "},"⁹":{"ha":469,"x_min":54,"x_max":421,"o":"m 239 983 q 373 931 325 983 q 421 783 421 878 q 351 583 421 671 q 151 442 281 494 l 146 442 l 88 483 l 88 494 q 240 575 185 531 q 317 681 294 619 l 308 689 q 204 657 261 657 q 94 700 135 657 q 54 810 54 743 q 102 935 54 886 q 239 983 150 983 m 232 725 q 331 758 285 725 l 332 783 q 239 921 332 921 q 143 818 143 921 q 232 725 143 725 z "},"₣":{"ha":543,"x_min":32,"x_max":536,"o":"m 213 379 l 343 379 l 468 381 l 474 371 l 467 307 l 213 307 l 211 217 l 211 193 l 374 193 l 379 188 l 375 139 l 213 139 l 215 0 l 125 0 l 126 139 l 38 139 l 32 144 l 36 193 l 128 193 l 128 208 l 125 690 l 528 690 l 536 682 l 526 617 l 354 619 l 215 619 l 213 379 z "},"€":{"ha":674,"x_min":22,"x_max":626,"o":"m 429 69 q 608 125 529 69 l 621 118 l 613 46 q 425 -8 521 -8 q 131 224 181 -8 l 28 224 l 22 231 l 26 289 l 122 289 l 121 336 q 122 382 121 367 l 28 382 l 22 389 l 26 447 l 131 447 q 235 632 156 568 q 442 696 314 696 q 626 646 544 696 l 610 572 l 600 569 q 436 621 529 621 q 225 447 263 621 l 483 447 l 489 440 l 485 382 l 218 382 l 217 343 q 218 289 217 306 l 483 289 l 489 282 l 485 224 l 229 224 q 429 69 274 69 z "},"ℓ":{"ha":524,"x_min":122,"x_max":497,"o":"m 490 0 l 122 0 l 126 208 l 122 692 l 226 692 l 222 217 l 225 88 l 492 88 l 497 78 l 490 0 z "},"™":{"ha":808,"x_min":38,"x_max":732,"o":"m 293 883 l 289 839 l 226 842 l 197 842 l 194 665 l 197 563 l 136 563 l 139 660 l 138 842 l 108 842 l 42 839 l 38 843 l 42 889 l 289 889 l 293 883 m 678 563 l 669 661 l 656 796 l 650 796 l 564 597 l 514 597 l 433 796 l 429 796 l 413 668 l 404 563 l 351 563 l 388 889 l 461 889 l 476 840 l 539 678 l 543 678 l 613 840 l 629 889 l 699 889 l 732 563 l 678 563 z "},"Ω":{"ha":1033,"x_min":51,"x_max":981,"o":"m 526 899 q 738 847 651 899 q 867 706 825 794 q 910 510 910 617 q 860 282 910 393 q 718 92 811 171 l 721 86 l 860 86 l 974 96 l 981 88 l 967 -6 l 829 0 l 646 0 l 593 -3 l 586 3 l 586 92 q 740 275 685 163 q 794 503 794 388 q 724 722 794 636 q 517 808 653 808 q 310 723 381 808 q 239 504 239 638 q 293 276 239 389 q 444 92 347 163 l 444 3 l 439 -3 l 385 0 l 182 0 l 60 -4 l 51 6 l 67 94 l 186 86 l 311 86 l 313 92 q 172 275 221 168 q 124 496 124 382 q 169 698 124 606 q 306 844 215 790 q 526 899 397 899 z "},"℮":{"ha":1094,"x_min":53,"x_max":1071,"o":"m 563 901 q 817 840 700 901 q 1003 673 935 778 q 1071 443 1071 568 l 1071 435 l 244 435 q 235 426 235 435 l 235 175 q 249 144 235 161 q 390 49 308 83 q 564 14 472 14 q 754 53 664 14 q 910 160 844 92 l 963 160 q 787 33 892 79 q 563 -14 682 -14 q 308 47 425 -14 q 122 214 190 108 q 53 443 53 319 q 122 673 53 568 q 308 840 190 778 q 563 901 425 901 m 564 874 q 250 744 376 874 q 235 711 235 732 l 235 471 q 244 461 235 461 l 881 461 q 890 471 890 461 l 890 717 q 875 749 890 733 q 735 841 815 808 q 564 874 654 874 z "},"⅛":{"ha":975,"x_min":19,"x_max":914,"o":"m 779 894 l 124 -126 l 75 -99 l 68 -82 l 722 942 l 771 914 l 779 894 m 232 553 l 235 365 l 136 365 l 139 540 l 139 789 l 28 760 l 19 764 l 19 842 l 222 899 l 235 886 l 232 553 m 749 532 q 858 498 818 532 q 897 406 897 464 q 807 279 897 326 l 807 274 q 886 223 858 250 q 914 146 914 196 q 863 34 914 75 q 726 -7 811 -7 q 602 30 647 -7 q 557 128 557 67 q 667 258 557 218 l 667 263 q 576 389 576 308 q 624 494 576 456 q 749 532 671 532 m 742 467 q 681 447 703 467 q 660 392 660 426 q 681 340 660 358 q 746 301 703 321 q 819 394 819 339 q 799 447 819 428 q 742 467 778 467 m 728 233 q 639 139 639 204 q 665 79 639 101 q 735 57 690 57 q 806 80 781 57 q 832 138 832 103 q 806 194 832 175 q 728 233 781 213 z "},"⅜":{"ha":1026,"x_min":42,"x_max":965,"o":"m 831 894 l 175 -126 l 126 -99 l 119 -82 l 774 942 l 822 914 l 831 894 m 197 897 q 306 865 265 897 q 347 778 347 832 q 326 706 347 740 q 261 651 304 671 l 261 646 q 367 519 367 618 q 306 403 367 447 q 147 360 246 360 q 53 369 93 360 l 46 439 l 54 446 q 149 433 104 433 q 238 457 206 433 q 271 521 271 481 q 174 600 271 597 l 114 600 l 108 607 l 110 672 l 151 672 q 217 698 186 672 q 249 760 249 724 q 229 805 249 789 q 176 821 210 821 q 67 778 129 821 l 57 778 l 42 843 q 197 897 113 897 m 800 532 q 909 498 869 532 q 949 406 949 464 q 858 279 949 326 l 858 274 q 938 223 910 250 q 965 146 965 196 q 914 34 965 75 q 778 -7 863 -7 q 653 30 699 -7 q 608 128 608 67 q 718 258 608 218 l 718 263 q 628 389 628 308 q 675 494 628 456 q 800 532 722 532 m 793 467 q 733 447 754 467 q 711 392 711 426 q 733 340 711 358 q 797 301 754 321 q 871 394 871 339 q 850 447 871 428 q 793 467 829 467 m 779 233 q 690 139 690 204 q 716 79 690 101 q 786 57 742 57 q 858 80 832 57 q 883 138 883 103 q 858 194 883 175 q 779 233 832 213 z "},"⅝":{"ha":1000,"x_min":42,"x_max":939,"o":"m 804 894 l 149 -126 l 100 -99 l 93 -82 l 747 942 l 796 914 l 804 894 m 360 817 l 353 810 l 285 817 l 158 817 l 156 697 l 213 683 q 329 631 292 667 q 367 538 367 596 q 304 408 367 457 q 140 358 242 358 q 47 368 99 358 l 42 436 l 49 443 q 142 432 92 432 q 238 458 203 432 q 272 531 272 485 q 169 615 272 593 l 85 631 l 79 640 l 83 879 l 94 893 l 144 892 l 281 892 l 364 894 l 369 889 l 360 817 m 774 532 q 883 498 843 532 q 922 406 922 464 q 832 279 922 326 l 832 274 q 911 223 883 250 q 939 146 939 196 q 888 34 939 75 q 751 -7 836 -7 q 627 30 672 -7 q 582 128 582 67 q 692 258 582 218 l 692 263 q 601 389 601 308 q 649 494 601 456 q 774 532 696 532 m 767 467 q 706 447 728 467 q 685 392 685 426 q 706 340 685 358 q 771 301 728 321 q 844 394 844 339 q 824 447 844 428 q 767 467 803 467 m 753 233 q 664 139 664 204 q 690 79 664 101 q 760 57 715 57 q 831 80 806 57 q 857 138 857 103 q 831 194 857 175 q 753 233 806 213 z "},"⅞":{"ha":974,"x_min":32,"x_max":913,"o":"m 778 894 l 122 -126 l 74 -99 l 67 -82 l 721 942 l 769 914 l 778 894 m 336 892 l 376 893 l 378 822 l 218 475 l 171 356 l 90 376 l 85 392 l 281 813 l 115 813 l 38 806 l 32 817 l 40 893 l 132 892 l 336 892 m 747 532 q 856 498 817 532 q 896 406 896 464 q 806 279 896 326 l 806 274 q 885 223 857 250 q 913 146 913 196 q 861 34 913 75 q 725 -7 810 -7 q 601 30 646 -7 q 556 128 556 67 q 665 258 556 218 l 665 263 q 575 389 575 308 q 622 494 575 456 q 747 532 669 532 m 740 467 q 680 447 701 467 q 658 392 658 426 q 680 340 658 358 q 744 301 701 321 q 818 394 818 339 q 797 447 818 428 q 740 467 776 467 m 726 233 q 638 139 638 204 q 663 79 638 101 q 733 57 689 57 q 805 80 779 57 q 831 138 831 103 q 805 194 831 175 q 726 233 779 213 z "},"←":{"ha":717,"x_min":31,"x_max":681,"o":"m 42 1047 l 42 1029 l -228 754 l -289 772 l -289 789 l -83 1003 l -600 997 l -608 1006 l -603 1076 l -82 1072 l -289 1286 l -289 1304 l -228 1321 l 42 1047 z "},"↑":{"ha":717,"x_min":74,"x_max":640,"o":"m 347 650 l 365 650 l 640 381 l 622 319 l 606 319 l 392 525 l 397 8 l 389 0 l 318 6 l 322 526 l 108 319 l 90 319 l 74 381 l 347 650 z "},"→":{"ha":717,"x_min":32,"x_max":682,"o":"m 671 -401 l 671 -383 l 940 -108 l 1001 -126 l 1001 -143 l 796 -357 l 1313 -351 l 1321 -360 l 1315 -431 l 794 -426 l 1001 -640 l 1001 -658 l 940 -675 l 671 -401 z "},"↓":{"ha":717,"x_min":75,"x_max":642,"o":"m 368 -6 l 350 -6 l 75 264 l 93 325 l 110 325 l 324 119 l 318 636 l 326 644 l 397 639 l 393 118 l 607 325 l 625 325 l 642 264 l 368 -6 z "},"↖":{"ha":717,"x_min":135,"x_max":628,"o":"m 147 1067 l 159 1054 l 163 669 l 107 639 l 95 651 l 90 947 l -272 578 l -284 578 l -330 632 l 41 997 l -256 1002 l -269 1015 l -237 1070 l 147 1067 z "},"↗":{"ha":717,"x_min":85,"x_max":579,"o":"m 554 44 l 567 56 l 952 60 l 982 4 l 970 -7 l 674 -13 l 1043 -375 l 1043 -386 l 989 -432 l 624 -61 l 619 -359 l 606 -372 l 551 -340 l 554 44 z "},"↘":{"ha":717,"x_min":85,"x_max":578,"o":"m 566 -427 l 553 -414 l 549 -29 l 605 1 l 617 -10 l 623 -307 l 984 62 l 996 62 l 1042 8 l 671 -357 l 969 -362 l 981 -375 l 950 -430 l 566 -427 z "},"↙":{"ha":717,"x_min":136,"x_max":631,"o":"m 161 603 l 149 591 l -236 587 l -267 643 l -255 655 l 42 660 l -328 1022 l -328 1034 l -274 1080 l 92 709 l 97 1006 l 109 1019 l 164 987 l 161 603 z "},"∂":{"ha":710,"x_min":51,"x_max":653,"o":"m 174 994 q 529 738 406 897 q 653 360 653 578 q 572 87 653 185 q 342 -11 490 -11 q 126 69 201 -11 q 51 288 51 150 q 125 506 51 424 q 331 588 199 588 q 514 519 422 583 l 525 529 q 90 926 447 804 l 90 940 l 163 994 l 174 994 m 344 71 q 497 143 446 71 q 549 354 549 215 q 546 413 549 374 q 349 500 446 500 q 204 446 254 500 q 154 286 154 392 q 203 126 154 182 q 344 71 251 71 z "},"∆":{"ha":803,"x_min":19,"x_max":772,"o":"m 19 0 l 344 890 l 474 890 l 772 0 l 19 0 m 154 93 l 635 93 l 413 775 l 403 775 l 154 93 z "},"∏":{"ha":924,"x_min":71,"x_max":851,"o":"m 769 278 l 774 0 l 661 0 l 669 268 l 663 800 l 260 800 l 254 278 l 260 0 l 147 0 l 156 268 l 149 799 l 79 797 l 71 808 l 81 890 l 843 890 l 851 879 l 842 797 l 774 799 l 769 278 z "},"∑":{"ha":676,"x_min":44,"x_max":651,"o":"m 643 792 l 510 799 l 183 799 l 457 460 l 457 439 l 179 90 l 493 90 l 640 97 l 650 86 l 642 -1 l 154 0 l 44 -1 l 44 78 l 335 450 l 49 806 l 49 890 l 643 892 l 651 881 l 643 792 z "},"−":{"ha":667,"x_min":43,"x_max":624,"o":"m 617 329 l 51 329 l 43 338 l 50 407 l 615 407 l 624 399 l 617 329 z "},"∕":{"ha":399,"x_min":31,"x_max":400,"o":"m 115 -157 l 39 -157 l 31 -146 l 315 942 l 392 942 l 400 929 l 115 -157 z "}}}
